<?xml version="1.0" encoding="utf-8"?>
<!-- Generator: Adobe Illustrator 26.1.0, SVG Export Plug-In . SVG Version: 6.00 Build 0)  -->
<svg version="1.1" id="瀧_1" xmlns="http://www.w3.org/2000/svg" xmlns:xlink="http://www.w3.org/1999/xlink" x="0px" y="0px"
	 viewBox="0 0 118.8 114.6" style="enable-background:new 0 0 118.8 114.6;" xml:space="preserve">
<style type="text/css">
	.st0{clip-path:url(#SVGID_00000069381812536819464670000011241872858536522891_);}
	.st1{fill:#E5B593;}
	.st2{fill:#EFC6A8;}
	.st3{fill:#FFA9A9;}
	.st4{clip-path:url(#SVGID_00000010999220879412131470000008169123564406303159_);}
	.st5{clip-path:url(#SVGID_00000010999220879412131470000008169123564406303159_);fill:#FFFFFF;}
	.st6{clip-path:url(#SVGID_00000080164387788490614690000006490580114194792884_);}
	.st7{clip-path:url(#SVGID_00000080164387788490614690000006490580114194792884_);fill:#FFFFFF;}
	.st8{fill:#FFFFFF;}
	.st9{fill:#E2AE8A;}
	.st10{fill:#E0B192;}
	.st11{fill:#F9DEC7;}
	.st12{fill:#D8A27D;}
	.st13{fill:#F4EEED;}
	.st14{fill:#F5A64E;}
	.st15{fill:#FFDCCE;}
	.st16{fill:#CEC2B7;}
	.st17{fill:#D8791A;}
	.st18{clip-path:url(#SVGID_00000014627047310134431960000006413248554871647877_);}
	.st19{clip-path:url(#SVGID_00000014627047310134431960000006413248554871647877_);fill:#FFFFFF;}
</style>
<g>
	<defs>
		<rect id="SVGID_1_" x="-311.6" y="-85.1" width="450" height="450"/>
	</defs>
	<clipPath id="SVGID_00000113334876640360232050000011356496504301009557_">
		<use xlink:href="#SVGID_1_"  style="overflow:visible;"/>
	</clipPath>
	<g style="clip-path:url(#SVGID_00000113334876640360232050000011356496504301009557_);">
		<path class="st1" d="M69.6,102.5c6.8,0,14.5-2.1,19.6-6.6c5.1-4.5,8.4-10.9,9.3-17.6c-0.5,0.6-1,1.1-1.4,1.7
			c1.4-6.7,1.8-13.6,0.8-20.3c-0.5,0.7-0.9,1.3-1.4,2c1.4-6.6-0.4-16.2-2.2-19.6l-1.1,1.1c1.1-4.4,0.8-9.8-0.2-14.2
			c0,0-1.9,0.6-2.8,1.3c0-0.6,0.1-1.1,0.1-1.7c-2.1,0.7-4.1,1.7-5.8,3.3c0-0.3-0.1-0.5-0.1-0.8c-3.7,3.7-5.9,8.9-5.8,14.1
			c-0.2-0.2-0.4-0.3-0.5-0.5c-0.6,3.2-0.4,6.7,0.2,9.6L69.6,102.5z"/>
		<path class="st2" d="M43.8,103.3c-4.8,0.3-9.1-1-12.5-2.9c0,0.5,0,1,0,1.5c-4.7-3.6-7.5-9.9-6.3-15.7c-0.2,0.5-0.4,0.9-0.6,1.4
			C23.4,80,24,71.9,26,64.5l-1.6,1.3c2-13,10.8-24.7,10.8-24.7s-1.5,0.6-2,0.5c-0.5-0.1,0.6-4.4,1.3-6.7c0,0-1.4,1-1.8,0.7
			c-0.4-0.3,1.6-5.2,3.3-7.3c0,0-1.4,0.7-1.6,0.5c-0.2-0.2,1.8-5,3.6-7c-1.1-3.2-1.7-8.2-1.1-8.8c0.6-0.6,5.4,2.5,6.9,4.9
			c6.2-2.4,13.3-2.4,19.4,0.2c1.5-1.5,5.7-6,6.5-5.4c1.1,0.7,0.6,6.6-0.3,9.2c1.6,2.5,2.7,5.3,3.1,8.2c-0.6-0.2-1.3-0.5-1.3-0.5
			c1.7,2.1,3.1,6.5,2.8,6.6c-0.2,0.1-1-0.3-1.3-0.4c0.5,1.4,1.2,4.2,0.8,4.4c-0.4,0.2-1.2-0.3-1.6-0.5c1.9,2.4,6.9,11.4,8.2,20
			l-1.4-0.8c2.2,6.1,3.4,12.5,3.4,19c-0.4-0.2-0.8-0.4-1.2-0.6c1.9,5.6,2.1,11.8,0.4,17.4c-0.3-0.4-0.6-0.7-0.9-1.1
			c-1.5,5.8-8.5,10.5-15.2,10.1L43.8,103.3z"/>
		<path class="st3" d="M37.2,13.7c0.3-0.5,3.8,3.8,3.8,5s-2,2.3-2.5,1.9C38,20.3,36.9,14.2,37.2,13.7z"/>
		<path class="st3" d="M69.4,13.3c-0.4-0.4-3.5,4.5-3.5,5.8c0,1.3,2.3,2.4,2.8,2C69.2,20.7,70.1,14.1,69.4,13.3z"/>
		<g>
			<g>
				<defs>
					<path id="SVGID_00000077302121342803359660000007956115337199886254_" d="M48.7,26.5c0.5,0.2,1,0.6,1,1.1c0,0.6-0.6,1-1.1,1.2
						c-1.2,0.5-4.8,0.4-4.9-1.5C43.5,25.4,47.7,26.1,48.7,26.5z"/>
				</defs>
				<use xlink:href="#SVGID_00000077302121342803359660000007956115337199886254_"  style="overflow:visible;fill:#FFFFFF;"/>
				<clipPath id="SVGID_00000018944382528348217790000000894717544367992203_">
					<use xlink:href="#SVGID_00000077302121342803359660000007956115337199886254_"  style="overflow:visible;"/>
				</clipPath>
				<path style="clip-path:url(#SVGID_00000018944382528348217790000000894717544367992203_);" d="M46.1,26.5
					c-0.4,0.4-0.5,1.1-0.2,1.6c0.2,0.5,0.7,1,1.2,1.1c0.6,0.2,1.3,0,1.8-0.4c0.5-0.4,0.6-1.2,0.4-1.8C48.8,25.7,46.9,25.5,46.1,26.5
					z"/>
				<path style="clip-path:url(#SVGID_00000018944382528348217790000000894717544367992203_);fill:#FFFFFF;" d="M47.9,27.2
					c-0.1,0.1-0.1,0.2-0.1,0.4c0,0.1,0.1,0.2,0.3,0.2c0.1,0,0.3,0,0.4-0.1c0.1-0.1,0.1-0.3,0.1-0.4C48.5,27,48.1,27,47.9,27.2z"/>
			</g>
			<g>
				<defs>
					<path id="SVGID_00000034802005695118666960000003410384534392249485_" d="M61.8,26.3c0.5,0.2,1,0.5,1.1,1
						c0.1,0.6-0.4,1.1-0.9,1.4c-1.2,0.6-4.7,1-5.1-0.8C56.6,25.8,60.8,25.9,61.8,26.3z"/>
				</defs>
				<use xlink:href="#SVGID_00000034802005695118666960000003410384534392249485_"  style="overflow:visible;fill:#FFFFFF;"/>
				<clipPath id="SVGID_00000058564103242373503550000003388384921499660693_">
					<use xlink:href="#SVGID_00000034802005695118666960000003410384534392249485_"  style="overflow:visible;"/>
				</clipPath>
				<path style="clip-path:url(#SVGID_00000058564103242373503550000003388384921499660693_);" d="M59.3,26.7
					c-0.3,0.5-0.3,1.1,0,1.6c0.3,0.5,0.8,0.9,1.4,0.9c0.6,0.1,1.3-0.2,1.7-0.7c0.4-0.5,0.5-1.2,0.2-1.8C61.9,25.6,60,25.6,59.3,26.7
					z"/>
				<path style="clip-path:url(#SVGID_00000058564103242373503550000003388384921499660693_);fill:#FFFFFF;" d="M61.2,27
					c-0.1,0.1-0.1,0.3,0,0.4s0.2,0.2,0.3,0.2c0.1,0,0.3,0,0.4-0.2c0.1-0.1,0.1-0.3,0-0.4C61.8,26.8,61.3,26.8,61.2,27z"/>
			</g>
		</g>
		<path class="st8" d="M64.6,102.5c-1-2.5-8-5-9.8-3.6l-1.3,2.5l-1.4-2.5c-2.5-0.9-8.1,1-9.8,3.6c1.5,2.6,3.1,4.8,5.3,2.5
			c1.4,1.1,2.6,1.1,3.7-0.3c1,0,1.7-0.4,2.1-1.5c0.4,1,1.2,1.4,2.3,1.4c0.4,1.7,1.8,1.5,3.7,0.4C61.1,107.3,62.8,105.5,64.6,102.5z"
			/>
		<path class="st9" d="M66.1,85.9c0-0.2-0.2-0.4-0.5-0.4c-0.2,0-0.4,0.2-0.4,0.5c1.3,11.3-0.5,15.6-2.2,18.1
			c-0.8,1.2-1.7,1.6-2.2,1.6c-0.5,0-0.9-0.3-1.1-0.8c-0.2-0.4,0.1-0.8,0.6-1.6c0.2-0.4,0.5-0.9,0.8-1.4c0.1-0.2,0-0.5-0.2-0.6
			c-0.2-0.1-0.5,0-0.6,0.2c-0.2,0.5-0.5,1-0.7,1.4c-0.4,0.7-0.8,1.3-0.7,1.9c-0.4,0.2-0.7,0.4-1.1,0.5c-0.5,0.1-0.9,0.1-1.2,0
			c-0.3-0.1-0.5-0.5-0.5-0.9c0-0.5,0.3-1,0.7-1.6c0.2-0.4,0.5-0.8,0.7-1.3c0.1-0.2,0-0.5-0.2-0.6c-0.2-0.1-0.5,0-0.6,0.2
			c-0.2,0.5-0.5,0.9-0.7,1.2c-0.4,0.7-0.8,1.2-0.8,1.9c-0.5,0-1-0.3-1.2-0.8c-0.2-0.5-0.3-1.1-0.1-1.8c0.2-0.5,0.4-1.1,0.7-1.6
			l0.1-0.3c2.6-5.1,3.4-11,2.4-16.7c0-0.2-0.3-0.4-0.5-0.3c-0.2,0-0.4,0.3-0.3,0.5c1,5.5,0.2,11.2-2.3,16.2l-0.1,0.3
			c-0.2,0.3-0.3,0.7-0.5,1.1c-0.2-0.4-0.3-0.7-0.5-1.1l-0.1-0.3c-2.5-5-3.3-10.7-2.3-16.2c0-0.2-0.1-0.4-0.3-0.5
			c-0.2,0-0.4,0.1-0.5,0.3c-1,5.6-0.2,11.6,2.4,16.7l0.1,0.3c0.3,0.5,0.5,1,0.7,1.6c0.2,0.7,0.2,1.3-0.1,1.8
			c-0.2,0.5-0.8,0.8-1.2,0.8c-0.1-0.7-0.4-1.2-0.8-1.9c-0.2-0.4-0.5-0.8-0.7-1.2c-0.1-0.2-0.3-0.3-0.6-0.2c-0.2,0.1-0.3,0.3-0.2,0.6
			c0.2,0.5,0.5,0.9,0.7,1.3c0.4,0.6,0.7,1.1,0.7,1.6c0,0.4-0.2,0.7-0.5,0.9c-0.3,0.2-0.8,0.2-1.2,0c-0.4-0.1-0.7-0.3-1.1-0.5
			c0.1-0.6-0.3-1.2-0.7-1.9c-0.2-0.4-0.5-0.8-0.7-1.4c-0.1-0.2-0.3-0.3-0.6-0.2c-0.2,0.1-0.3,0.3-0.2,0.6c0.3,0.6,0.5,1,0.8,1.4
			c0.5,0.8,0.7,1.3,0.6,1.6c-0.2,0.4-0.7,0.8-1.1,0.8c-0.5,0-1.4-0.4-2.2-1.6c-1.7-2.5-3.5-6.8-2.2-18.1c0-0.2-0.1-0.4-0.4-0.5
			c-0.2,0-0.4,0.1-0.5,0.4c-1.3,11.5,0.5,16,2.3,18.7c1.2,1.8,2.4,2,2.9,2c0,0,0.1,0,0.1,0c0.7,0,1.3-0.4,1.7-1
			c0.4,0.2,0.7,0.4,1.2,0.5c0.3,0.1,0.6,0.1,0.8,0.1c0.4,0,0.7-0.1,1-0.2c0.4-0.2,0.7-0.5,0.9-1c0.1,0,0.1,0,0.2,0
			c0.7,0,1.4-0.4,1.8-1c0.4,0.6,1.1,1,1.8,1c0.1,0,0.1,0,0.2,0c0.2,0.4,0.5,0.8,0.9,1c0.3,0.1,0.6,0.2,1,0.2c0.3,0,0.6,0,0.8-0.1
			c0.4-0.1,0.8-0.3,1.2-0.5c0.4,0.6,1,0.9,1.7,1c0,0,0.1,0,0.1,0c0.5,0,1.7-0.2,2.9-2C65.6,101.9,67.4,97.4,66.1,85.9z"/>
		<g>
			<path class="st10" d="M53.2,17.8c-0.5,0.1-0.3,0.9-0.1,1.8c0.2,1,0.3,1.7,0.8,1.7c0.5-0.1,0.3-0.9,0.1-1.8
				C53.8,18.4,53.7,17.7,53.2,17.8z"/>
			<path class="st10" d="M61.8,44.4c0.5-0.1,0.3-0.7,0.1-1.5c-0.2-0.7-0.4-1.4-0.8-1.2c-0.5,0.1-0.3,0.7-0.1,1.5
				C61.2,43.9,61.4,44.5,61.8,44.4z"/>
			<path class="st10" d="M42.5,45.8c-0.4-0.2-0.8,0.5-1.2,1.4c-0.5,0.9-0.8,1.6-0.4,1.8c0.4,0.2,0.8-0.5,1.2-1.4
				C42.5,46.8,42.9,46,42.5,45.8z"/>
			<path class="st10" d="M30.5,68.1c0.5,0.1,0.7-0.8,1.1-1.9c0.3-1.2,0.6-2.1,0.2-2.2c-0.5-0.1-0.7,0.8-1.1,1.9
				C30.4,67,30.1,67.9,30.5,68.1z"/>
			<path class="st10" d="M32.1,82.3c0.2-0.9,0.3-1.6-0.2-1.7c-0.5-0.1-0.6,0.7-0.8,1.6c-0.2,0.9-0.3,1.6,0.2,1.7
				C31.8,83.9,32,83.2,32.1,82.3z"/>
			<path class="st10" d="M60.8,18.7c-0.4,1-0.7,1.8-0.3,2c0.4,0.2,0.8-0.6,1.2-1.6c0.2-0.5,0.4-1,0.5-1.3c-0.3-0.1-0.5-0.2-0.8-0.3
				C61.2,17.7,61,18.2,60.8,18.7z"/>
			<path class="st10" d="M56.9,48.3c-0.5,0-0.5,0.7-0.5,1.5c0,0.8,0,1.5,0.5,1.5c0.5,0,0.5-0.7,0.5-1.5C57.4,49,57.4,48.3,56.9,48.3
				z"/>
			<path class="st10" d="M56.5,17c-0.1,1.2-0.2,2.1,0.2,2.2c0.5,0.1,0.6-0.9,0.7-2.1c0-0.2,0.1-0.5,0.1-0.7
				c-0.3-0.1-0.6-0.1-0.9-0.1C56.5,16.5,56.5,16.8,56.5,17z"/>
			<path class="st10" d="M32.7,54.1c-0.9,1.4-1.6,2.6-1.2,2.8c0.4,0.3,1.1-0.9,2-2.3c0.9-1.4,1.6-2.6,1.2-2.8
				C34.3,51.6,33.6,52.7,32.7,54.1z"/>
			<path class="st10" d="M62.7,71.7c0.5-0.1,0.4-1,0.2-2.2c-0.1-1.2-0.3-2.1-0.7-2.1c-0.5,0.1-0.4,1-0.2,2.2
				C62.1,70.8,62.2,71.7,62.7,71.7z"/>
			<path class="st10" d="M58.4,20.3c-0.4-0.2-0.7,0.6-1.1,1.6c-0.4,1-0.7,1.7-0.2,1.9c0.4,0.2,0.7-0.6,1.1-1.6
				C58.5,21.2,58.8,20.5,58.4,20.3z"/>
			<path class="st10" d="M60.9,56c-0.5,0-0.4,0.7-0.3,1.5c0.1,0.8,0.1,1.5,0.6,1.4c0.5,0,0.4-0.7,0.3-1.5
				C61.4,56.6,61.4,55.9,60.9,56z"/>
			<path class="st10" d="M29.1,75c-0.5-0.1-0.6,0.7-0.7,1.6c-0.1,0.9-0.2,1.7,0.3,1.7c0.5,0.1,0.6-0.7,0.7-1.6
				C29.5,75.8,29.6,75,29.1,75z"/>
			<path class="st10" d="M39.4,53c-0.4-0.1-0.7,0.6-1,1.4c-0.3,0.9-0.5,1.6-0.1,1.7c0.4,0.1,0.7-0.6,1-1.4
				C39.6,53.9,39.8,53.1,39.4,53z"/>
			<path class="st10" d="M28,71.5c0.1-0.9,0.2-1.6-0.2-1.7c-0.5-0.1-0.6,0.6-0.7,1.5c-0.1,0.9-0.2,1.6,0.2,1.7S27.8,72.4,28,71.5z"
				/>
			<path class="st10" d="M64.6,33.9c-0.5,0.1-0.3,0.8-0.1,1.6c0.2,0.9,0.3,1.5,0.8,1.4c0.5-0.1,0.3-0.8,0.1-1.6
				C65.2,34.5,65.1,33.8,64.6,33.9z"/>
			<path class="st10" d="M39.1,62.6c-0.5-0.1-0.6,0.6-0.7,1.5c-0.2,0.9-0.3,1.6,0.2,1.7c0.5,0.1,0.6-0.6,0.7-1.5
				C39.4,63.4,39.5,62.7,39.1,62.6z"/>
			<path class="st10" d="M37.2,39.3c0.4,0.3,0.9-0.5,1.5-1.4c0.6-0.9,1.1-1.7,0.7-1.9s-0.9,0.5-1.5,1.4
				C37.3,38.3,36.8,39.1,37.2,39.3z"/>
			<path class="st10" d="M38.7,30.1c-0.4-0.3-0.8,0.4-1.4,1.2c-0.6,0.8-1,1.5-0.6,1.8c0.4,0.3,0.8-0.4,1.4-1.2
				C38.6,31.1,39.1,30.4,38.7,30.1z"/>
			<path class="st10" d="M39.9,25.1c-0.4-0.3-0.8,0.3-1.3,1c-0.5,0.7-0.9,1.3-0.5,1.5c0.4,0.3,0.8-0.3,1.3-1
				C39.8,25.9,40.2,25.3,39.9,25.1z"/>
			<path class="st10" d="M36,71.9c-0.5-0.1-0.6,0.5-0.8,1.3c-0.2,0.8-0.3,1.4,0.1,1.6c0.5,0.1,0.6-0.5,0.8-1.3
				C36.3,72.6,36.5,72,36,71.9z"/>
			<path class="st10" d="M38.1,43.3c-0.4-0.3-1,0.5-1.7,1.5c-0.7,1-1.3,1.8-0.9,2c0.4,0.3,1-0.5,1.7-1.5
				C37.9,44.4,38.5,43.6,38.1,43.3z"/>
			<path class="st10" d="M73.8,54.2c-0.4-1.1-0.7-1.9-1.1-1.8c-0.4,0.2-0.1,1,0.2,2.1c0.4,1.1,0.7,1.9,1.1,1.8
				C74.5,56.1,74.2,55.2,73.8,54.2z"/>
			<path class="st10" d="M52.2,25.4c0.5-0.1,0.2-1,0-2.1c-0.3-1.1-0.5-1.9-0.9-1.8c-0.5,0.1-0.2,1,0,2.1
				C51.5,24.6,51.8,25.5,52.2,25.4z"/>
			<path class="st10" d="M68.3,48.8c0.4-0.2,0.2-0.8-0.1-1.5c-0.3-0.7-0.5-1.3-1-1.1c-0.4,0.2-0.2,0.8,0.1,1.5
				C67.6,48.4,67.9,49,68.3,48.8z"/>
			<path class="st10" d="M68.9,38c0.2,0.6,0.4,1,0.8,0.8c0.4-0.2,0.3-0.6,0.1-1.2c-0.2-0.6-0.4-1-0.8-0.8C68.5,37,68.7,37.4,68.9,38
				z"/>
			<path class="st10" d="M73.8,48c-0.4-0.8-0.8-1.4-1.2-1.2c-0.4,0.2-0.1,0.9,0.3,1.6c0.4,0.8,0.8,1.4,1.2,1.2
				C74.5,49.4,74.2,48.7,73.8,48z"/>
			<path class="st10" d="M68.8,60.6c0.5-0.1,0.4-0.8,0.2-1.7c-0.1-0.9-0.2-1.6-0.7-1.5c-0.5,0.1-0.4,0.8-0.2,1.7
				C68.2,60,68.3,60.7,68.8,60.6z"/>
			<path class="st10" d="M78.2,70.5c-0.5,0.1-0.2,1,0,2.1c0.3,1.1,0.5,2,0.9,1.9c0.5-0.1,0.2-1,0-2.1C78.9,71.3,78.6,70.4,78.2,70.5
				z"/>
			<path class="st10" d="M72.4,90c-0.1,1-0.1,1.7,0.3,1.8c0.5,0,0.5-0.7,0.6-1.7c0.1-1,0.1-1.7-0.3-1.8C72.6,88.3,72.5,89.1,72.4,90
				z"/>
			<path class="st10" d="M77.4,83.2c0.5-0.1,0.4-0.9,0.2-1.9c-0.1-1-0.2-1.9-0.7-1.8c-0.5,0.1-0.4,0.9-0.2,1.9S76.9,83.2,77.4,83.2z
				"/>
			<path class="st10" d="M68.6,32.7c0.4-0.2,0-1-0.6-2c-0.6-1-1-1.8-1.4-1.6c-0.4,0.2,0,1,0.6,2C67.7,32.1,68.2,32.9,68.6,32.7z"/>
			<path class="st10" d="M68.7,24.8c-0.4-0.5-0.6-1-1-0.7c-0.4,0.3-0.1,0.7,0.2,1.2c0.4,0.5,0.6,1,1,0.7
				C69.3,25.8,69,25.4,68.7,24.8z"/>
			<path class="st10" d="M70.3,45.2c0.4-0.3-0.1-1-0.8-2c-0.6-1-1.2-1.7-1.6-1.5c-0.4,0.3,0.1,1,0.8,2
				C69.4,44.7,69.9,45.4,70.3,45.2z"/>
			<path class="st10" d="M48.6,59.3c0.5,0.1,0.6-0.8,0.8-1.9c0.2-1.1,0.3-1.9-0.1-2c-0.5-0.1-0.6,0.8-0.8,1.9
				C48.3,58.3,48.2,59.2,48.6,59.3z"/>
			<path class="st10" d="M44.4,72.6c-0.1,0.9-0.2,1.6,0.2,1.7c0.5,0.1,0.6-0.7,0.7-1.6c0.1-0.9,0.2-1.6-0.2-1.7S44.5,71.7,44.4,72.6
				z"/>
			<path class="st10" d="M48,19.4c-0.4-0.5-0.6-0.9-1-0.6c-0.4,0.3-0.1,0.7,0.3,1.1c0.4,0.5,0.6,0.9,1,0.6
				C48.6,20.3,48.4,19.9,48,19.4z"/>
			<path class="st10" d="M49.1,16.6c0.4,1.1,0.6,2,1.1,1.9c0.5-0.1,0.2-1.1-0.2-2.2c0,0,0,0,0,0c-0.3,0-0.6,0.1-1,0.1
				C49,16.4,49.1,16.5,49.1,16.6z"/>
			<path class="st10" d="M73.8,73.5c0.5-0.1,0.3-0.9,0.1-1.9c-0.2-1-0.3-1.8-0.8-1.8c-0.5,0.1-0.3,0.9-0.1,1.9
				C73.2,72.8,73.4,73.6,73.8,73.5z"/>
			<path class="st10" d="M51,45.2c-0.1,0.6-0.2,1.2,0.2,1.3c0.5,0.1,0.6-0.4,0.7-1.1c0.1-0.6,0.2-1.2-0.2-1.3
				C51.3,44.1,51.2,44.6,51,45.2z"/>
			<path class="st10" d="M74.7,63.2c-0.5,0.1-0.3,0.8,0,1.5c0.2,0.8,0.4,1.4,0.9,1.3c0.5-0.1,0.3-0.8,0-1.5
				C75.3,63.6,75.1,63,74.7,63.2z"/>
			<path class="st10" d="M44.9,51.5c-0.4-0.3-1,0.6-1.7,1.7s-1.3,1.9-0.9,2.2c0.4,0.3,1-0.6,1.7-1.7C44.7,52.6,45.3,51.8,44.9,51.5z
				"/>
			<path class="st10" d="M42.8,35.9c0.4,0.2,0.7-0.5,1.1-1.3c0.4-0.8,0.7-1.5,0.3-1.7c-0.4-0.2-0.7,0.5-1.1,1.3
				C42.6,35,42.3,35.7,42.8,35.9z"/>
			<path class="st10" d="M43.6,40.1C43.2,40,43,40.4,42.9,41c-0.2,0.6-0.3,1,0.2,1.1c0.5,0.1,0.6-0.3,0.7-0.9
				C43.9,40.7,44.1,40.2,43.6,40.1z"/>
		</g>
		<g>
			<path class="st2" d="M85.1,34.9c-0.5-0.2-0.7,0.4-1,1.1c-0.3,0.7-0.5,1.3,0.1,1.5c0.5,0.2,0.7-0.4,1-1.1
				C85.4,35.6,85.6,35.1,85.1,34.9z"/>
			<path class="st2" d="M90,43.7c0.6,0,0.6-1.1,0.7-2.6c0.1-1.4,0.1-2.6-0.5-2.6c-0.6,0-0.6,1.1-0.7,2.6
				C89.5,42.5,89.4,43.7,90,43.7z"/>
			<path class="st2" d="M87,43.6c-0.6,0-0.6,1.1-0.6,2.6c0,1.4,0,2.6,0.5,2.6c0.6,0,0.6-1.1,0.6-2.6C87.6,44.8,87.6,43.6,87,43.6z"
				/>
			<path class="st2" d="M81.7,43.1c-0.6,0-0.6,0.6-0.6,1.3c0,0.7,0,1.4,0.5,1.4c0.6,0,0.6-0.6,0.6-1.3
				C82.3,43.7,82.3,43.1,81.7,43.1z"/>
			<path class="st2" d="M83.4,54.1c-0.6,0-0.6,0.9-0.7,2.1s-0.1,2.1,0.4,2.2c0.6,0,0.6-0.9,0.7-2.1S83.9,54.2,83.4,54.1z"/>
			<path class="st2" d="M93,53.9c0.6-0.1,0.4-1.1,0.3-2.3c-0.1-1.3-0.3-2.3-0.8-2.2c-0.6,0.1-0.4,1.1-0.3,2.3
				C92.3,52.9,92.4,53.9,93,53.9z"/>
			<path class="st2" d="M90.4,58.9c-0.6,0-0.6,0.9-0.6,1.9c0,1.1,0,1.9,0.5,1.9c0.6,0,0.6-0.9,0.6-1.9C90.9,59.8,91,58.9,90.4,58.9z
				"/>
			<path class="st2" d="M93.7,67.5c0-0.9,0-1.6-0.6-1.6c-0.6,0-0.6,0.7-0.6,1.6c0,0.9,0,1.6,0.6,1.6C93.7,69.2,93.7,68.4,93.7,67.5z
				"/>
			<path class="st2" d="M86,63.9c-0.6,0-0.6,0.7-0.7,1.7c-0.1,0.9-0.1,1.7,0.5,1.7c0.6,0,0.6-0.7,0.7-1.7C86.6,64.7,86.6,64,86,63.9
				z"/>
			<path class="st2" d="M90.7,73.8c0.1-0.7,0.1-1.3-0.5-1.3c-0.6,0-0.6,0.5-0.7,1.2c-0.1,0.7-0.1,1.3,0.5,1.3
				C90.6,75.1,90.7,74.5,90.7,73.8z"/>
			<path class="st2" d="M94.2,77.4c-0.5-0.1-0.8,0.7-1,1.6c-0.3,1-0.5,1.8,0.1,1.9c0.5,0.1,0.8-0.7,1-1.6
				C94.5,78.3,94.7,77.5,94.2,77.4z"/>
			<path class="st2" d="M91.5,86.9c-0.5-0.3-0.8,0.4-1.2,1.2c-0.4,0.8-0.7,1.5-0.2,1.7c0.5,0.3,0.8-0.4,1.2-1.2
				C91.7,87.8,92,87.1,91.5,86.9z"/>
			<path class="st2" d="M88.6,79.7c-0.5-0.2-0.7,0.3-0.9,1c-0.2,0.6-0.4,1.2,0.2,1.3c0.5,0.2,0.7-0.3,0.9-1
				C89,80.4,89.2,79.9,88.6,79.7z"/>
		</g>
		<path class="st8" d="M61,32c-0.7-1.4-2.3-2.2-3.8-2.2c-1.5,0-3,0.8-4.1,1.9c-1.1-1.1-2.6-1.9-4.1-1.9c-1.5,0-3.1,0.8-3.8,2.2
			c-0.7,1.3-0.4,3,0.4,4.3c0.8,1.3,2.1,2.1,3.5,2.7c1.4,0.6,3,1.1,4,1.1c1,0,2.6-0.5,4-1.1c1.4-0.6,2.7-1.4,3.5-2.7
			C61.4,35.1,61.7,33.4,61,32z"/>
		<path d="M55.4,36.1l-1.6-1.8v-1.9c0.7-0.6,1.7-2.2,1.6-2.5c-0.2-0.4-3.7-0.4-4,0c-0.2,0.3,0.8,1.9,1.6,2.5v1.9l-1.6,1.8
			c-0.2,0.2-0.1,0.4,0,0.6c0.2,0.2,0.4,0.1,0.6,0l1.4-1.6l1.4,1.6c0.1,0.1,0.2,0.1,0.3,0.1c0.1,0,0.2,0,0.3-0.1
			C55.5,36.6,55.6,36.3,55.4,36.1z"/>
		<g>
			<path class="st8" d="M62.6,30c-2.2,0.2-4.3,0.6-6.4,1.3c-0.2,0.1-0.1,0.3,0,0.3c2.1-0.6,4.2-1,6.4-1.3C62.8,30.3,62.8,30,62.6,30
				z"/>
			<path class="st8" d="M66.4,31.9c-2.5-0.1-4.9,0-7.4,0.3c-0.7,0.1-1.4,0.2-2.1,0.3c-0.2,0-0.1,0.3,0,0.3c2.4-0.3,4.9-0.5,7.3-0.6
				c0.7,0,1.4,0,2.1,0C66.6,32.1,66.6,31.9,66.4,31.9z"/>
			<path class="st8" d="M62.6,34c-2-0.4-4.1-0.6-6.1-0.7c-0.2,0-0.2,0.3,0,0.3c2.1,0.1,4.1,0.3,6.1,0.7C62.7,34.3,62.7,34,62.6,34z"
				/>
			<path class="st8" d="M51.6,31.7c-2.2-1.3-4.6-2-7.2-2.2c-0.2,0-0.2,0.3,0,0.3c2.5,0.2,4.9,0.9,7,2.2C51.6,32,51.8,31.8,51.6,31.7
				z"/>
			<path class="st8" d="M50,32.5c0.2,0,0.2-0.2,0-0.3c-2.8-0.5-5.7-0.7-8.6-0.6c-0.2,0-0.2,0.3,0,0.3C44.3,31.8,47.2,32,50,32.5z"/>
			<path class="st8" d="M50.5,33.5c-2.2,0-4.5,0.1-6.7,0.6c-0.2,0-0.1,0.3,0,0.3c2.2-0.4,4.4-0.6,6.6-0.6
				C50.6,33.8,50.7,33.5,50.5,33.5z"/>
			<path class="st8" d="M51.9,32.6c-0.4,0-0.4,0.6-0.1,0.6C52.2,33.1,52.3,32.6,51.9,32.6z"/>
			<path class="st8" d="M55,33c0.4,0,0.4-0.6,0.1-0.6C54.7,32.4,54.7,33,55,33z"/>
			<path class="st8" d="M55.1,34c-0.4,0-0.4,0.6-0.1,0.6C55.4,34.5,55.5,34,55.1,34z"/>
			<path class="st8" d="M56.8,34.7c-0.4,0-0.4,0.6-0.1,0.6C57.1,35.2,57.2,34.7,56.8,34.7z"/>
			<path class="st8" d="M51.9,34c-0.4,0-0.4,0.6-0.1,0.6C52.2,34.6,52.3,34,51.9,34z"/>
			<path class="st8" d="M50.4,34.8c-0.4,0-0.4,0.6-0.1,0.6C50.7,35.3,50.8,34.8,50.4,34.8z"/>
			<path class="st8" d="M45,25.2c0,0.1,0.1,0.1,0.2,0.1c0.1,0,0.1-0.1,0.1-0.2c-0.1-0.4-0.3-0.9-0.4-1.3c0-0.1-0.1-0.1-0.2-0.1
				c-0.1,0-0.1,0.1-0.1,0.2L45,25.2z"/>
			<path class="st8" d="M47.2,23.3v1.5c0,0.1,0,0.1,0.1,0.2c0.1,0,0.2,0,0.2-0.1v-1.5c0-0.1,0-0.1-0.1-0.2
				C47.3,23.2,47.2,23.2,47.2,23.3z"/>
			<path class="st8" d="M46.3,24.3c0-0.5,0-1.1,0-1.6c0-0.1-0.1-0.1-0.2-0.1c-0.1,0-0.1,0.1-0.1,0.2c0,0.5,0,1,0,1.5
				C46,24.4,46.3,24.4,46.3,24.3z"/>
			<path class="st8" d="M48.6,25.8c0.1,0,0.1-0.1,0.2-0.1c0-0.4,0.1-0.7,0.2-1.1c0-0.1,0-0.2-0.1-0.2c-0.1,0-0.2,0-0.2,0.1
				c-0.1,0.4-0.2,0.8-0.3,1.2C48.5,25.7,48.5,25.7,48.6,25.8z"/>
			<path class="st8" d="M58.3,25.4c0,0.1,0,0.1,0.1,0.2c0.1,0,0.1,0,0.2-0.1c0-0.4-0.1-0.8-0.2-1.2c0-0.1-0.1-0.1-0.2-0.1
				c-0.1,0-0.1,0.1-0.1,0.2C58.3,24.7,58.3,25.1,58.3,25.4z"/>
			<path class="st8" d="M60.3,25.3c0.1,0,0.1-0.1,0.2-0.1c0.1-0.5,0.2-1.1,0.2-1.6c0-0.2-0.3-0.2-0.3,0c0,0.5-0.1,1.1-0.2,1.6
				C60.2,25.2,60.3,25.3,60.3,25.3z"/>
			<path class="st8" d="M61.6,25.6c0.1,0,0.2,0,0.2-0.1c0-0.1,0.1-0.2,0.1-0.3c0,0,0,0,0,0c0,0,0,0,0,0c0,0,0,0,0-0.1
				c0,0,0.1-0.1,0.1-0.1c0-0.1,0-0.2,0-0.2c-0.1,0-0.1,0-0.2,0c-0.1,0.2-0.2,0.4-0.3,0.6C61.5,25.5,61.6,25.6,61.6,25.6z"/>
			<path class="st8" d="M41,16c0.1,0,0.1-0.1,0-0.2c-0.3-0.3-0.6-0.6-0.8-0.9c-0.1-0.1-0.1-0.1-0.2,0c-0.1,0-0.1,0.1,0,0.2
				c0.3,0.3,0.6,0.6,0.8,0.9C40.9,16,41,16,41,16z"/>
			<path class="st8" d="M42.1,17.8c0,0.1,0.1,0.1,0.2,0.1c0.1,0,0.1-0.1,0.1-0.2c-0.2-0.3-0.3-0.5-0.5-0.8c0-0.1-0.1-0.1-0.2-0.1
				c-0.1,0-0.1,0.1-0.1,0.2C41.8,17.2,42,17.5,42.1,17.8z"/>
			<path class="st8" d="M66.4,15.2c-0.4,0.3-0.8,0.6-1.1,0.9c-0.4,0.4-0.7,0.8-1.1,1.2c-0.1,0.1-0.1,0.1,0,0.2c0,0.1,0.1,0.1,0.2,0
				c0.4-0.4,0.7-0.8,1.1-1.2c0.3-0.3,0.7-0.7,1.1-0.9C66.7,15.3,66.5,15.1,66.4,15.2z"/>
			<path class="st8" d="M52.5,16.6h-1.2c-0.1,0-0.1,0-0.2,0.1c0,0.1,0,0.2,0.1,0.2h1.2c0.1,0,0.1,0,0.2-0.1
				C52.7,16.7,52.6,16.6,52.5,16.6z"/>
			<path class="st8" d="M54.7,16.8c-0.3,0-0.7-0.1-1-0.1c-0.2,0-0.2,0.3,0,0.3c0.3,0,0.7,0.1,1,0.1C54.9,17.1,54.9,16.8,54.7,16.8z"
				/>
			<path class="st8" d="M45.4,18.3c0.7-0.3,1.4-0.4,2.1-0.4c0.2,0,0.2-0.3,0-0.3c-0.8,0-1.5,0.1-2.2,0.5
				C45.1,18.1,45.2,18.3,45.4,18.3z"/>
			<path class="st8" d="M37.7,34.3c-0.1,0-0.1,0-0.2,0c-0.3,0.3-0.6,0.7-0.8,1c0,0.1,0,0.1,0,0.2c0.1,0,0.2,0,0.2,0
				c0.2-0.4,0.5-0.7,0.8-1C37.8,34.5,37.8,34.4,37.7,34.3z"/>
			<path class="st8" d="M42.5,37.4c-0.1,0-0.1,0-0.2,0.1c-0.2,0.3-0.3,0.7-0.4,1c0,0.1,0,0.2,0.1,0.2c0.1,0,0.2,0,0.2-0.1
				c0.1-0.4,0.2-0.7,0.4-1C42.6,37.5,42.5,37.5,42.5,37.4z"/>
			<path class="st8" d="M41.1,43.4c-0.1,0-0.1,0-0.2,0.1c-0.2,0.4-0.3,0.8-0.5,1.1c0,0.1,0,0.2,0.1,0.2c0.1,0,0.1,0,0.2-0.1
				c0.2-0.4,0.3-0.8,0.5-1.1C41.2,43.5,41.2,43.4,41.1,43.4z"/>
			<path class="st8" d="M48,43.8c0.1,0.4,0,0.9-0.1,1.3c0,0.1,0.1,0.1,0.1,0.2c0.1,0,0.1-0.1,0.2-0.1c0.1-0.5,0.1-0.9,0.1-1.4
				C48.3,43.6,48,43.7,48,43.8z"/>
			<path class="st8" d="M38.1,49.5c-0.3,0.5-0.5,1-0.7,1.5c-0.1,0.2,0.2,0.3,0.3,0.1c0.2-0.5,0.4-0.9,0.7-1.4c0-0.1,0-0.1,0-0.2
				C38.3,49.5,38.2,49.5,38.1,49.5z"/>
			<path class="st8" d="M36,59.3c-0.1,0-0.1,0-0.2,0.1c-0.2,0.4-0.4,0.9-0.6,1.4c-0.1,0.2,0.2,0.3,0.3,0.1c0.2-0.5,0.4-0.9,0.6-1.4
				C36.1,59.4,36.1,59.3,36,59.3z"/>
			<path class="st8" d="M71.8,43c-0.1-0.2-0.3,0-0.3,0.1c0.3,0.5,0.6,1,0.9,1.5c0.1,0.1,0.3,0,0.2-0.2C72.3,44,72,43.5,71.8,43z"/>
			<path class="st8" d="M75.8,51.6c-0.1-0.2-0.3,0-0.3,0.1c0.3,0.6,0.5,1.1,0.8,1.7c0.1,0.2,0.3,0,0.3-0.1
				C76.3,52.7,76,52.1,75.8,51.6z"/>
			<path class="st8" d="M68.7,51.7c0.2,0.8,0.4,1.6,0.5,2.4c0,0.2,0.3,0.1,0.3,0c-0.1-0.8-0.3-1.6-0.5-2.4
				C68.9,51.4,68.7,51.5,68.7,51.7z"/>
			<path class="st8" d="M64.4,39.8c-0.1-0.2-0.3-0.1-0.3,0.1l0.6,1.6c0.1,0.2,0.3,0.1,0.3-0.1C64.8,40.9,64.6,40.3,64.4,39.8z"/>
			<path class="st8" d="M28.1,57.8c-0.6,1-1,2-1.3,3c0,0.2,0.2,0.3,0.3,0.1c0.3-1,0.7-2,1.3-3C28.4,57.8,28.2,57.6,28.1,57.8z"/>
			<path class="st8" d="M29.6,53.3c-0.2,0.5-0.4,1-0.5,1.6c-0.1,0.2,0.2,0.3,0.3,0.1c0.2-0.5,0.4-1,0.5-1.6
				C29.9,53.2,29.6,53.1,29.6,53.3z"/>
			<path class="st8" d="M26.2,67.9c-0.3,0.8-0.4,1.7-0.5,2.6c0,0.2,0.3,0.2,0.3,0c0-0.9,0.2-1.7,0.5-2.5
				C26.5,67.8,26.2,67.8,26.2,67.9z"/>
			<path class="st8" d="M25.7,73.7c0,0.5,0,0.9-0.1,1.4c0,0.2,0.3,0.2,0.3,0l0.1-1.4C26,73.5,25.7,73.5,25.7,73.7z"/>
			<path class="st8" d="M29.6,71c-0.1,0-0.2,0-0.2,0.1v1.5c0,0.1,0,0.1,0.1,0.2c0.1,0,0.2,0,0.2-0.1v-1.5C29.7,71.1,29.6,71,29.6,71
				z"/>
			<path class="st8" d="M43.9,89.4c0-0.2-0.3-0.2-0.3,0c-0.1,0.6,0,1.2,0,1.8c0,0.2,0.3,0.1,0.3,0C43.9,90.6,43.9,90,43.9,89.4z"/>
			<path class="st8" d="M46.9,86.6v-1.4c0-0.1,0-0.1-0.1-0.2c-0.1,0-0.2,0-0.2,0.1v1.4c0,0.1,0,0.1,0.1,0.2
				C46.8,86.8,46.9,86.7,46.9,86.6z"/>
			<path class="st8" d="M46.8,93.3c0-0.2-0.3-0.1-0.3,0l0.3,1.5c0,0.2,0.3,0.1,0.3,0L46.8,93.3z"/>
			<path class="st8" d="M59.2,80.4c0.2,0.7,0.3,1.3,0.3,2c0,0.2,0.3,0.1,0.3,0c0-0.7-0.1-1.4-0.3-2C59.5,80.2,59.2,80.2,59.2,80.4z"
				/>
			<path class="st8" d="M62.7,84.3c0.1,0.4,0.1,0.8,0.1,1.2c0,0.1,0,0.1,0.1,0.2c0.1,0,0.2,0,0.2-0.1c0-0.4,0-0.8-0.1-1.3
				C63,84.1,62.7,84.1,62.7,84.3z"/>
			<path class="st8" d="M63.3,89.2c0.1,0.4,0.1,0.9,0,1.3c0,0.2,0.3,0.2,0.3,0c0.1-0.5,0-0.9,0-1.4C63.5,89,63.2,89.1,63.3,89.2z"/>
			<path class="st8" d="M62,93.5c0,0.5-0.1,1-0.2,1.4c0,0.1,0,0.1,0.1,0.2c0.1,0,0.2,0,0.2-0.1c0.1-0.5,0.2-1,0.3-1.5
				C62.3,93.4,62,93.4,62,93.5z"/>
			<path class="st8" d="M80.4,83.4c-0.1,0-0.2,0-0.2,0.1l0,1.7c0,0.1,0,0.1,0.1,0.2c0.1,0,0.2,0,0.2-0.1l0-1.7
				C80.6,83.5,80.5,83.4,80.4,83.4z"/>
			<path class="st8" d="M75.8,74.4c-0.1,0-0.2,0.1-0.2,0.1c0,0.6,0,1.2,0.1,1.9c0,0.1,0,0.1,0.1,0.2c0.1,0,0.2-0.1,0.2-0.1
				c0-0.6,0-1.2-0.1-1.9C75.9,74.4,75.8,74.4,75.8,74.4z"/>
			<path class="st8" d="M71.1,65.5c0-0.2-0.3-0.2-0.3,0c0,0.4,0,0.9,0.1,1.3c0,0.1,0.1,0.1,0.2,0.1c0.1,0,0.1-0.1,0.1-0.2
				C71.1,66.4,71.1,65.9,71.1,65.5z"/>
			<path class="st8" d="M75,58.3c0.1,0.8,0.1,1.5,0.2,2.3c0,0.2,0.3,0.2,0.3,0c0-0.8-0.1-1.6-0.2-2.3C75.3,58.1,75,58.1,75,58.3z"/>
			<path class="st8" d="M81.6,37.6c-0.5,0.7-0.8,1.5-0.8,2.4c0,0.2,0.3,0.2,0.3,0c0.1-0.8,0.3-1.6,0.8-2.2
				C81.9,37.6,81.7,37.4,81.6,37.6z"/>
			<path class="st8" d="M82.8,34.3c-0.2,0.5-0.4,1-0.7,1.5c-0.1,0.2,0.2,0.3,0.3,0.1c0.2-0.5,0.4-1,0.7-1.5
				C83.2,34.3,82.9,34.2,82.8,34.3z"/>
			<path class="st8" d="M90.9,32.5c-0.2,0.6-0.3,1.3-0.5,1.9c0,0.2,0.2,0.3,0.3,0.1c0.2-0.6,0.3-1.3,0.5-1.9
				C91.2,32.5,90.9,32.4,90.9,32.5z"/>
			<path class="st8" d="M86.8,38.9c-0.2,0.6-0.5,1.1-0.7,1.7c-0.1,0.2,0.2,0.3,0.3,0.1c0.2-0.6,0.5-1.1,0.7-1.7
				C87.1,38.8,86.8,38.7,86.8,38.9z"/>
			<path class="st8" d="M83.5,46.4c-0.1,0.6-0.1,1.3-0.2,1.9c0,0.2,0.3,0.2,0.3,0c0.1-0.6,0.1-1.3,0.2-1.9
				C83.8,46.2,83.5,46.2,83.5,46.4z"/>
			<path class="st8" d="M89.8,47.2c0.1,1,0.1,2,0.2,3c0,0.2,0.3,0.1,0.3,0c-0.1-1-0.2-2-0.2-3C90.1,47,89.8,47,89.8,47.2z"/>
			<path class="st8" d="M86.8,54.5v2.2c0,0.2,0.3,0.2,0.3,0v-2.2C87.1,54.4,86.8,54.3,86.8,54.5z"/>
			<path class="st8" d="M93.8,57.9c0,0.6,0.1,1.2,0.1,1.8c0,0.2,0.3,0.1,0.3,0c0-0.6-0.1-1.2-0.1-1.8C94.1,57.7,93.8,57.7,93.8,57.9
				z"/>
			<path class="st8" d="M94.2,47.8v-2.1c0-0.2-0.3-0.2-0.3,0v2.1C93.9,48,94.2,48,94.2,47.8z"/>
			<path class="st8" d="M96.3,65c0-0.2-0.3-0.1-0.3,0l0.2,1.7c0,0.2,0.3,0.1,0.3,0L96.3,65z"/>
			<path class="st8" d="M89,66.1v2.5c0,0.2,0.3,0.2,0.3,0v-2.5C89.3,66,89,66,89,66.1z"/>
		</g>
		<g>
			<path class="st9" d="M33.6,47.9c-0.4-0.2-0.8,0.5-1.3,1.4c-0.5,0.9-0.9,1.6-0.5,1.9c0.4,0.2,0.8-0.5,1.3-1.4
				C33.6,48.9,34,48.2,33.6,47.9z"/>
			<path class="st9" d="M35.2,66.4c0.2-0.7,0.4-1.3-0.1-1.4c-0.5-0.1-0.6,0.4-0.9,1.2c-0.2,0.7-0.4,1.3,0.1,1.4
				C34.8,67.7,34.9,67.1,35.2,66.4z"/>
			<path class="st9" d="M30.5,59.3c-0.5-0.1-0.6,0.4-0.8,1c-0.2,0.6-0.3,1.2,0.1,1.3c0.5,0.1,0.6-0.4,0.8-1
				C30.8,59.9,31,59.4,30.5,59.3z"/>
			<path class="st9" d="M36.1,81.6c0.5,0.1,0.6-0.7,0.7-1.6c0.1-0.9,0.2-1.7-0.3-1.7c-0.5-0.1-0.6,0.7-0.7,1.6S35.6,81.6,36.1,81.6z
				"/>
			<path class="st9" d="M27.1,83.4c0.5,0,0.5-0.7,0.6-1.5c0.1-0.9,0.1-1.6-0.4-1.6c-0.5,0-0.5,0.7-0.6,1.5
				C26.7,82.7,26.6,83.4,27.1,83.4z"/>
			<path class="st9" d="M26.9,89.6c-0.5,0.1-0.3,1-0.2,2.2c0.2,1.2,0.3,2.1,0.8,2c0.5-0.1,0.3-1,0.2-2.2
				C27.5,90.4,27.4,89.5,26.9,89.6z"/>
			<path class="st9" d="M29.9,86.6c-0.5,0.1-0.4,0.8-0.3,1.6c0.1,0.9,0.2,1.6,0.7,1.5c0.5-0.1,0.4-0.8,0.3-1.6
				C30.5,87.2,30.4,86.5,29.9,86.6z"/>
			<path class="st9" d="M35.1,92.4c0.5-0.1,0.4-0.8,0.3-1.7c-0.1-0.9-0.2-1.7-0.7-1.6c-0.5,0.1-0.4,0.8-0.3,1.7
				C34.5,91.7,34.6,92.5,35.1,92.4z"/>
			<path class="st9" d="M31.7,93c-0.5,0.1-0.2,0.9,0,1.8c0.3,0.9,0.5,1.6,1,1.5c0.5-0.1,0.2-0.9,0-1.8C32.4,93.6,32.2,92.9,31.7,93z
				"/>
			<path class="st9" d="M35,97.8c-0.4,0.2-0.1,0.8,0.4,1.5c0.5,0.6,1.1,1,1.4,0.6c0.3-0.4-0.2-0.7-0.7-1.3
				C35.7,98.1,35.4,97.6,35,97.8z"/>
			<path class="st9" d="M78.5,88c-0.5,0-0.5,0.6-0.6,1.4c-0.1,0.8-0.1,1.4,0.4,1.5c0.5,0,0.5-0.6,0.6-1.4C78.9,88.7,79,88,78.5,88z"
				/>
			<path class="st9" d="M76,93.5c-0.5-0.2-0.8,0.6-1.2,1.6c-0.4,1-0.7,1.8-0.3,1.9c0.5,0.2,0.8-0.6,1.2-1.6
				C76.2,94.4,76.5,93.6,76,93.5z"/>
			<path class="st9" d="M70.5,94.9c-0.5-0.2-0.7,0.6-1.1,1.5c-0.4,0.9-0.6,1.7-0.2,1.8c0.5,0.2,0.7-0.6,1.1-1.5
				C70.6,95.8,70.9,95,70.5,94.9z"/>
			<path class="st9" d="M74.8,85.9c0.5,0,0.5-0.6,0.4-1.4c0-0.8,0-1.4-0.5-1.4c-0.5,0-0.5,0.6-0.4,1.4C74.3,85.3,74.3,86,74.8,85.9z
				"/>
			<path class="st9" d="M70.5,85.2c-0.5,0-0.5,0.6-0.5,1.4c0,0.8,0,1.4,0.5,1.4c0.5,0,0.5-0.6,0.5-1.4C71,85.9,71,85.2,70.5,85.2z"
				/>
			<path class="st9" d="M72.4,76c-0.5,0-0.4,0.7-0.4,1.6c0.1,0.8,0.1,1.5,0.6,1.5c0.5,0,0.4-0.7,0.4-1.6C73,76.6,72.9,76,72.4,76z"
				/>
			<path class="st9" d="M78.1,66.7c0.5-0.1,0.4-0.7,0.3-1.5c-0.1-0.8-0.2-1.4-0.7-1.3c-0.5,0.1-0.4,0.7-0.3,1.5
				C77.6,66.1,77.6,66.7,78.1,66.7z"/>
			<path class="st9" d="M64.6,43.6c-0.5,0.1-0.3,0.7-0.2,1.4c0.2,0.7,0.3,1.3,0.8,1.2c0.5-0.1,0.3-0.7,0.2-1.4
				C65.2,44,65.1,43.4,64.6,43.6z"/>
			<path class="st9" d="M45.9,43.1c-0.4-0.2-0.7,0.4-1,1c-0.3,0.7-0.5,1.2-0.1,1.4c0.4,0.2,0.7-0.4,1-1
				C46.1,43.9,46.4,43.3,45.9,43.1z"/>
		</g>
		<g>
			<path class="st11" d="M43.8,57.6c-0.7-0.1-0.8,0.9-1,2.1c-0.2,1.2-0.3,2.2,0.3,2.3c0.7,0.1,0.8-0.9,1-2.1
				C44.3,58.7,44.4,57.7,43.8,57.6z"/>
			<path class="st11" d="M38.6,58.6c-0.7-0.2-0.8,0.4-1.1,1.1c-0.2,0.7-0.4,1.3,0.2,1.6c0.7,0.2,0.8-0.4,1.1-1.1
				C39.1,59.5,39.3,58.9,38.6,58.6z"/>
			<path class="st11" d="M41,69.5c-0.7-0.1-0.8,0.6-1,1.6c-0.2,0.9-0.3,1.7,0.4,1.8c0.7,0.1,0.8-0.6,1-1.6
				C41.5,70.4,41.6,69.6,41,69.5z"/>
			<path class="st11" d="M65.6,63.6c-0.7,0.2-0.6,0.6-0.4,1.2c0.1,0.6,0.2,1,0.9,0.9c0.7-0.2,0.6-0.6,0.4-1.2
				C66.4,63.9,66.3,63.4,65.6,63.6z"/>
			<path class="st11" d="M68.8,78.8c-0.1-0.6-0.1-1-0.8-1c-0.7,0.1-0.6,0.5-0.6,1.1c0.1,0.6,0.1,1,0.8,1
				C68.9,79.8,68.8,79.4,68.8,78.8z"/>
			<path class="st11" d="M52.5,62.5c-0.7,0-0.6,1-0.6,2.3c0.1,1.3,0.1,2.3,0.8,2.2c0.7,0,0.6-1,0.6-2.3
				C53.2,63.5,53.2,62.5,52.5,62.5z"/>
			<path class="st11" d="M54.2,51.2c-0.7,0-0.7,0.7-0.6,1.6c0,0.9,0,1.6,0.7,1.6c0.7,0,0.7-0.7,0.6-1.6
				C54.9,51.9,54.8,51.2,54.2,51.2z"/>
			<path class="st11" d="M62.6,49.1c-0.7,0.2-0.5,0.9-0.3,1.7c0.2,0.8,0.4,1.5,1,1.4c0.7-0.2,0.5-0.9,0.3-1.7
				C63.4,49.6,63.3,48.9,62.6,49.1z"/>
		</g>
		<g>
			<path class="st12" d="M80.6,48.9c-0.5-0.1-0.6,0.8-0.8,1.9c-0.2,1.1-0.3,2,0.1,2.1c0.5,0.1,0.6-0.8,0.8-1.9
				C80.9,49.8,81.1,48.9,80.6,48.9z"/>
			<path class="st12" d="M85.8,51.8c0.1-0.8,0.1-1.5-0.4-1.6c-0.5,0-0.5,0.6-0.6,1.5c-0.1,0.8-0.1,1.5,0.4,1.6
				C85.7,53.3,85.7,52.6,85.8,51.8z"/>
			<path class="st12" d="M85.3,60.7c0,0.8,0,1.5,0.5,1.5c0.5,0,0.5-0.7,0.5-1.5c0-0.8,0-1.5-0.5-1.5C85.2,59.2,85.2,59.9,85.3,60.7z
				"/>
			<path class="st12" d="M94.2,70.8c-0.5-0.1-0.6,0.7-0.7,1.6c-0.1,0.9-0.2,1.7,0.3,1.8c0.5,0.1,0.6-0.7,0.7-1.6
				C94.6,71.6,94.7,70.8,94.2,70.8z"/>
			<path class="st12" d="M91,81.8c-0.5,0-0.5,0.6-0.8,1.3c-0.3,0.7-0.7,1.2-0.3,1.5c0.4,0.3,0.9-0.3,1.2-1.2
				C91.5,82.6,91.5,81.8,91,81.8z"/>
			<path class="st12" d="M86.5,90c0.4-0.6,0.8-1.1,0.4-1.4c-0.4-0.3-0.8,0.2-1.2,0.8c-0.4,0.6-0.8,1.1-0.4,1.4
				C85.7,91.1,86,90.6,86.5,90z"/>
			<path class="st12" d="M86.6,94.4c-0.8,0.8-1.5,1.4-1.2,1.7c0.3,0.4,1-0.3,1.8-1c0.8-0.8,1.5-1.4,1.2-1.7
				C88.1,93,87.5,93.7,86.6,94.4z"/>
			<path class="st12" d="M82.7,95c-0.9,0.6-1.6,1.2-1.3,1.6c0.3,0.4,1-0.1,1.8-0.8c0.9-0.6,1.6-1.2,1.3-1.6
				C84.2,93.8,83.5,94.3,82.7,95z"/>
		</g>
	</g>
	<g style="clip-path:url(#SVGID_00000113334876640360232050000011356496504301009557_);">
		<path class="st13" d="M95.5,421.4c0,19.5,16,32,34.1,32c12.9,0,23.7-3.1,30.1-13.3c3.8-6,4-11.8,3.6-18.2
			c-1.1-17.6-15.7-32.4-33.8-32.4C111.5,389.4,95.5,402.3,95.5,421.4z"/>
		<path class="st13" d="M122.3,433.9c5.1-5,3.1-15.4,1.4-20.5c0.5-1.6,2.7-7.7,1.6-8.7c-1.1-1-8.5,2.9-8.5,2.9
			c-5.4-2.6-10.4-2.8-16.6-1.3c0,0-5.8-5.9-7.4-4.5c-1.6,1.4,0.9,9.9,0.9,9.9c-4.2,8.4-4.9,16.6,0.2,21.3
			C99.1,437.6,112.9,443.2,122.3,433.9z"/>
		<path d="M116.9,407.7c0,0,7.4-3.9,8.5-2.9c1.1,1-1.1,7.1-1.6,8.7c0.3,1,0.7,2.2,1,3.5c-0.6-0.8-1.5-1.4-2.4-1.6
			c-1.3-0.3-2.8,0-4-0.7c-1.5-0.9-1.6-2.9-1.7-4.6c0-0.9-0.1-1.8-0.5-2.7C116.3,407.4,116.6,407.5,116.9,407.7z"/>
		<path d="M110.8,423c-0.3-0.8-6.3-1.5-6.6-1c-0.4,0.6,1.7,4.7,2.7,5C107.8,427.2,111.1,423.7,110.8,423z"/>
		<path class="st13" d="M159.7,440c-7.6,13.7-28.6,16.6-44.3,11.9c-20.5-6.2-21.6-16.1-18.8-21.8c2.1-4.2,7.2-5.7,12.8-2.9
			c11.1,5.8,25.2,20,44.7,9C158.8,433.6,162,436,159.7,440z"/>
		<path class="st14" d="M93.7,411.7c0,0-2.4-8.5-0.9-9.9c1.6-1.4,7.4,4.5,7.4,4.5c2.8-0.7,5.3-1,7.8-0.9c-0.1,0.9-0.3,1.8-0.2,2.8
			c0.1,1.2,0.2,2.3-0.3,3.5c-0.7,1.6-4.2,0.6-4.2,6.7c0,3.5-5.1,6.9-12.9,4.2C90.6,419.2,91.8,415.4,93.7,411.7z"/>
		<path class="st14" d="M109.4,427.2c2.8,1.5,5.8,3.5,9,5.4c5.6,5.9-1.5,8.9-1.5,11.6c0,4.9,3.9,3.5,6.6,5.1c2.5,1.5,1.9,4,4,4.6
			c-4.2-0.2-8.4-0.9-12.2-2c-20.5-6.2-21.6-16.1-18.8-21.8C98.8,426,103.9,424.4,109.4,427.2z"/>
		<path class="st14" d="M122,422c1.1-0.9,1.7-2.4,2-3.8c0.2-0.8,0.3-1.6,0.4-2.4c1.3,4.9,2.1,12.2-0.9,16.7
			c-0.8-0.7-1.6-1.4-2.4-2.1c-0.9-0.8-1.8-1.6-2.3-2.6c-0.6-1-0.7-2.3-0.1-3.3C119.4,423.3,120.9,422.9,122,422z"/>
		<path class="st14" d="M132.4,401.2c0.7-0.8,1.4-1.5,2-2.3c0.6-0.7,1.2-1.4,2-1.9c1.9-1.4,4.6-1.6,6.7-0.6c1.9,0.9,3.6,3,3.7,5.2
			c0,1.4-0.4,4.7-2.3,4.7c-1.3,0-2-1.7-3.2-2.2c-1.2-0.6-2.6,0-3.5,0.9c-0.9,0.9-1.6,2.1-2.4,3.1s-2.1,1.8-3.4,1.6
			c-1.7-0.3-2.6-2.4-2.2-4.1C130,403.9,131.2,402.5,132.4,401.2z"/>
		<path class="st14" d="M120.4,399.4c-2.4-0.2-4.6,0.8-6.7,1.9c-2.1,1.1-4.2,2.3-6.5,2.7c-1.6,0.2-3.5-0.1-4.9-1.1
			c-0.2-0.1-0.3-0.3-0.4-0.4c6.3-8.2,16.7-13.1,27.8-13.1c0.3,0,0.6,0,1,0c0.3,1.3,0.3,2.8,0.3,4.1c0,2.4-0.3,5.3-2.4,6.5
			C126.1,401.4,123.1,399.6,120.4,399.4z"/>
		<path class="st14" d="M147.3,424.3c-0.7-2,0.2-4.5,2-5.7c0.8-0.5,1.8-0.8,2.5-1.5c1-1.1,0.8-2.8,1.1-4.3c0.4-2,2-3.7,4-4.2
			c1.1-0.3,2.1-0.3,3-0.1c2.1,4.1,3.3,8.6,3.6,13.4c0.2,3.3,0.2,6.4-0.3,9.4c-0.6,0.1-1.3,0.1-1.9-0.2c-1.8-0.8-2.4-3.3-4.3-4
			c-1.5-0.5-3,0.4-4.5,0.5C150.2,427.7,148,426.3,147.3,424.3z"/>
		<path class="st14" d="M133.1,429c0.8-0.4,1.8-0.5,2.5-1.1c0.7-0.5,1-1.4,1.5-2.1c0.5-0.7,3.1-2.4,4.1,0.7c0.2,0.5,0,1-0.1,1.5
			c-0.1,0.5-0.1,1.1,0.3,1.5c0.3,0.3,0.7,0.5,1.1,0.7c1.4,0.8,2.2,2.5,1.9,4c-0.3,1.6-1.7,2.8-3.3,3c-1.5,0.1-2.9-0.6-4.4-0.2
			c-0.8,0.2-1.5,0.7-2.3,0.8c-0.8,0.1-1.5,0.3-1.7-1.2c-0.2-1.5-0.8-2-1.1-3c-0.3-0.9-0.4-2-0.1-2.9
			C131.8,430,132.4,429.3,133.1,429z"/>
		<path class="st14" d="M139.1,445.9c1-0.3,2.2,0.4,3.2,0.1c0.9-0.2,1.4-1.1,2.1-1.7c1.5-1.4,4-1.7,5.8-0.8c1,0.5,1.8,1.4,2.8,1.9
			c0.3,0.2,1.3,0.3,1.9,0.4c-4.4,3.9-10.3,6.4-16.6,7.5c0-0.4-0.1-0.9-0.2-1.3c-0.3-1.1-0.7-2.2-0.8-3.4
			C137.4,447.5,138,446.2,139.1,445.9z"/>
		<path d="M155.5,429.4c0.5-1.8,1.1-3.8,2.5-5.1c1.2-1.2,3.5-1.8,5.4-1.5c0.3,6-0.1,11.5-3.7,17.3c-0.1,0.2-0.2,0.3-0.3,0.5
			c0-0.1,0-0.2,0-0.3c0.2-1.6-0.2-3.3-1.2-4.4c-0.9-1-2.3-1.5-2.9-2.7C154.8,431.9,155.2,430.6,155.5,429.4z"/>
		<path d="M125.2,389.7c0.1,0.2,0.1,0.5,0.2,0.7c0.1,0.9-0.2,2-1.1,2.2c-0.4,0.1-0.8,0-1.2,0c-0.9,0.1-1.6,0.8-2.2,1.4
			c-0.6,0.7-1.2,1.4-2,1.7c-0.8,0.3-2,0-2.1-0.9c-0.2-0.9,0.7-1.6,1-2.4c0.1-0.4,0.2-0.8,0.1-1.2C120.2,390.5,122.7,390,125.2,389.7
			z"/>
		<path d="M111.7,448.8c-0.5-2.3,3.9-4.9,5.5-5.9c2.6-1.5,4.2,0.6,5,2.9c0.3,0.9,0.7,1.9,1.4,2.5c0.9,0.7,2.2,0.7,3.3,0.6
			c1.1-0.1,2.3-0.3,3.4,0.2c1.1,0.4,1.8,1.8,1.3,2.8c-0.7,1.2-2.6,0.8-4,1.2c-0.5,0.1-1,0.4-1.4,0.7c-3-0.2-6-0.7-8.8-1.4
			c-0.2-0.3-0.5-0.6-0.8-0.8c-0.8-0.6-1.8-0.7-2.8-1C112.9,450.3,111.9,449.8,111.7,448.8z"/>
		<path d="M151.1,406.4c-0.6,0.6-0.2,1.6-0.5,2.4c-0.2,0.7-1,1.1-1.8,1c-0.7-0.2-1.2-0.9-1.1-1.7c0.1-0.7,0.7-1.3,0.7-2
			c0.1-1.3-0.6-1.8,0.7-2.6c0.6-0.3,1.7-0.6,2.3-0.4c0.6,0.2,1.5,1,1.5,1.7C152.9,406,151.7,405.7,151.1,406.4z"/>
		<path class="st8" d="M96.8,416.1c-0.6,0.1-1.3,0.4-1.5,1c-0.2,0.7,0.3,1.4,0.9,1.8c1.3,0.9,5.5,1.9,6.3-0.3
			C103.2,416.4,98.1,415.9,96.8,416.1z"/>
		<path d="M113.9,419c0.3,1.2,1.5,1.9,2.7,2c1.1,0.1,2.3-0.4,2.9-1.4c0.1-0.2,0.4-0.2,0.6-0.1c0.2,0.2,0.2,0.4,0.1,0.6
			c-0.8,1.2-2.3,1.8-3.7,1.7c-1.4-0.2-3-1.2-3.3-2.6C112.9,418.7,113.7,418.4,113.9,419z"/>
		<path class="st15" d="M93.2,402.6c0.4-0.3,3.8,3.1,4.6,5.2c0.2,0.4-2.2,3.5-2.9,2.9C94.1,410.1,92.5,403.2,93.2,402.6z"/>
		<path class="st15" d="M125,405.5c-0.3-0.4-4.5,2.6-5.8,4.4c-0.3,0.4,2.3,2.7,3.2,2.3C123.4,411.8,125.6,406.2,125,405.5z"/>
		<path class="st16" d="M120.8,434.1c3.7,2.1,7.5,4.3,11.7,5c1.1,0.2,2.3,0.3,3.4,0.3c1.2,0.1,2.4,0.1,3.6,0.1
			c2.3,0,4.6-0.3,6.8-0.9c2.5-0.7,4.8-1.6,7.2-2.6c0.5-0.2,0.8,0.6,0.3,0.8c-4.3,1.8-8.6,3.4-13.3,3.5c-2.4,0.1-4.8,0-7.2-0.3
			c-2.2-0.3-4.3-0.9-6.3-1.8c-2.3-1-4.4-2.2-6.6-3.4C120,434.6,120.4,433.9,120.8,434.1z"/>
		<path class="st16" d="M126.9,437.2c1.6-1.5,2.7-3.5,3.1-5.7c0.5-2.4,0.3-5,1.2-7.3c0.4-1.1,0.9-2.2,1.4-3.3c0.5-1,0.9-2,1.5-2.9
			c1.1-1.9,2.4-3.6,4.1-5c2.1-1.6,4.8-2.6,7.4-3.1c0.5-0.1,0.6,0.7,0.1,0.8c-2.3,0.4-4.6,1.3-6.6,2.6c-1.8,1.3-3.1,3-4.2,4.9
			c-0.5,0.9-1,1.9-1.5,2.9c-0.5,1.1-1,2.1-1.4,3.2c-0.8,2.3-0.7,4.8-1.2,7.3c-0.5,2.5-1.7,4.7-3.5,6.3
			C127,438.3,126.5,437.6,126.9,437.2z"/>
		<g>
			<path class="st17" d="M106,435.2c0.1-0.3,0.4-0.5,0.6-0.5c0.1,0,0.3,0,0.4,0c0.1,0,0.3,0.1,0.4,0.1c0.2,0,0.4,0.1,0.5,0.3
				c0.9,0.5,1.8,1.1,2.6,1.8c0.3,0.2,0.2,0.7-0.2,0.8c-1.2,0.1-2.3-0.5-3.3-1.2C106.5,436.2,105.8,435.8,106,435.2z"/>
			<path class="st17" d="M98.6,434.5c0.1-0.2,0.3-0.3,0.6-0.2c0.9,0.4,1.8,1,2.5,1.8c0.1,0.1,0.2,0.2,0.2,0.4c0,0.1-0.1,0.3-0.3,0.3
				c-1.2,0.3-2.2-0.8-2.8-1.7c0,0,0-0.1-0.1-0.1C98.6,434.9,98.6,434.7,98.6,434.5z"/>
			<path class="st17" d="M104.6,439.2C104.6,439.2,104.6,439.2,104.6,439.2c0.2-0.2,0.4-0.3,0.6-0.2c0.8,0.3,1.6,0.8,2.2,1.4
				c0.1,0.1,0.2,0.3,0.1,0.5c0,0.2-0.2,0.3-0.4,0.3c-1,0-2-0.5-2.7-1.3C104.4,439.6,104.4,439.3,104.6,439.2z"/>
			<path class="st17" d="M99.8,441.4c0.1-0.2,0.3-0.2,0.5-0.1c1.3,0.6,2.6,1.4,3.8,2.3c0.3,0.2,0.1,0.7-0.2,0.8
				c-1,0.1-1.9-0.3-2.7-0.8c-0.4-0.3-0.7-0.6-1.1-0.9c-0.2-0.2-0.4-0.3-0.4-0.5C99.6,441.9,99.6,441.6,99.8,441.4z"/>
			<path class="st17" d="M108.4,443.6c0.1-0.1,0.3-0.1,0.5-0.1c1,0.4,2,0.9,2.9,1.5c0.3,0.2,0.1,0.7-0.2,0.8
				c-1.3,0.2-2.8-0.4-3.6-1.5C107.7,443.9,108.1,443.5,108.4,443.6z"/>
			<path class="st17" d="M158.9,412.2c0.2-0.1,0.5-0.1,0.6,0.1c0.5,0.8,0.8,1.7,0.9,2.7c0,0.2-0.2,0.5-0.4,0.5
				c-0.2,0-0.4-0.1-0.5-0.4c0-0.1,0-0.2-0.1-0.3c0,0,0-0.1,0-0.1c0,0,0,0,0,0c0,0,0-0.1,0-0.1c-0.1-0.2-0.1-0.4-0.2-0.6
				c-0.1-0.2-0.1-0.4-0.2-0.6c0-0.1-0.1-0.2-0.1-0.3c0,0,0-0.1-0.1-0.1c0,0-0.1-0.1-0.1-0.1C158.7,412.6,158.7,412.4,158.9,412.2z"
				/>
			<path class="st17" d="M154.6,413.6c0.2-0.1,0.5,0,0.5,0.3c0.4,1,0.8,1.9,1.2,2.9c0.1,0.2,0,0.5-0.3,0.5c-0.2,0.1-0.5,0-0.5-0.3
				l-1.2-2.9C154.2,414,154.4,413.7,154.6,413.6z"/>
			<path class="st17" d="M158.2,417.5c0.2-0.1,0.5,0,0.5,0.3c0.4,1.2,0.6,2.5,0.6,3.8c0,0.2-0.1,0.4-0.4,0.5c-0.2,0-0.5-0.2-0.5-0.4
				c0-1.2-0.2-2.4-0.5-3.6C157.9,417.8,158,417.6,158.2,417.5z"/>
		</g>
		<g>
			<path class="st16" d="M139.7,442.8l2.1-0.1c0.2,0,0.4,0.1,0.5,0.4c0,0.2-0.1,0.4-0.4,0.5c-0.7,0-1.4,0.1-2.1,0.1
				c-0.2,0-0.4-0.1-0.5-0.4C139.4,443.1,139.5,442.8,139.7,442.8z"/>
			<path class="st16" d="M133,444.4c0-0.2,0.3-0.4,0.5-0.3c0.3,0,0.7,0.1,1,0.1c0,0,0.1,0,0.1,0c0,0,0.1,0,0.1,0c0.1,0,0.2,0,0.2,0
				c0.2,0,0.3,0,0.5,0c0.2,0,0.4,0.1,0.5,0.4c0,0.2-0.1,0.5-0.4,0.5c-0.7,0-1.4,0-2.1-0.1C133.1,444.9,132.9,444.6,133,444.4z"/>
			<path class="st16" d="M127.8,441.2c0.1-0.2,0.3-0.3,0.6-0.2c0.8,0.3,1.6,0.5,2.5,0.5c0.2,0,0.4,0.1,0.5,0.4
				c0,0.2-0.1,0.5-0.4,0.5c-1,0-2-0.2-2.9-0.6C127.8,441.7,127.7,441.4,127.8,441.2z"/>
			<path class="st16" d="M121.2,441.1c0.1-0.2,0.4-0.3,0.6-0.2c0.9,0.4,1.7,0.6,2.7,0.7c0.2,0,0.4,0.3,0.3,0.5
				c0,0.2-0.3,0.4-0.5,0.3c-1-0.1-2-0.3-2.9-0.8C121.2,441.6,121.1,441.3,121.2,441.1z"/>
			<path class="st16" d="M142.9,412.9c0.7-0.3,1.3-0.5,2-0.6c0.2,0,0.5,0.2,0.5,0.4c0,0.3-0.1,0.4-0.4,0.5c0,0-0.1,0-0.1,0
				c0,0,0,0-0.1,0c-0.1,0-0.2,0-0.2,0.1c-0.2,0-0.3,0.1-0.5,0.1c-0.3,0.1-0.6,0.2-0.9,0.3c-0.2,0.1-0.5,0-0.5-0.3
				C142.5,413.2,142.7,412.9,142.9,412.9z"/>
			<path class="st16" d="M137.6,416.2c0.8-1.1,1.9-1.9,3.1-2.3c0.2-0.1,0.5,0,0.5,0.3c0.1,0.2,0,0.5-0.3,0.5
				c-1.1,0.4-2.1,1.1-2.8,2.1c-0.1,0.2-0.4,0.2-0.6,0.1C137.5,416.7,137.4,416.4,137.6,416.2z"/>
			<path class="st16" d="M134.5,421c0.4-1,1-1.9,1.7-2.8c0.1-0.2,0.4-0.2,0.6-0.1c0.2,0.2,0.2,0.4,0.1,0.6c-0.6,0.8-1.1,1.7-1.5,2.6
				c-0.1,0.2-0.4,0.3-0.6,0.2C134.5,421.5,134.4,421.3,134.5,421z"/>
			<path class="st16" d="M138.1,419c0.4-0.6,0.9-1.2,1.5-1.6c0.2-0.1,0.5-0.1,0.6,0.1c0.1,0.2,0.1,0.4-0.1,0.6
				c-0.1,0.1-0.3,0.2-0.4,0.3c0,0,0,0,0,0c0,0,0,0,0,0c0,0-0.1,0.1-0.1,0.1c-0.1,0.1-0.1,0.1-0.2,0.2c-0.2,0.3-0.5,0.5-0.6,0.8
				c-0.1,0.1-0.2,0.1-0.3,0.2c-0.1,0-0.2,0-0.3-0.1C138,419.5,138,419.2,138.1,419z"/>
		</g>
		<g>
			<defs>
				<path id="SVGID_00000136404940439745253170000018424984682480251295_" d="M96.8,416.1c-0.6,0.1-1.3,0.4-1.5,1
					c-0.2,0.7,0.3,1.4,0.9,1.8c1.3,0.9,5.5,1.9,6.3-0.3C103.2,416.4,98.1,415.9,96.8,416.1z"/>
			</defs>
			<clipPath id="SVGID_00000088107218658988005930000001456563452452930958_">
				<use xlink:href="#SVGID_00000136404940439745253170000018424984682480251295_"  style="overflow:visible;"/>
			</clipPath>
			<path style="clip-path:url(#SVGID_00000088107218658988005930000001456563452452930958_);" d="M100.9,417.2
				c0.3,0.6,0.2,1.4-0.2,2c-0.4,0.6-1.1,0.9-1.8,0.9c-0.8,0-1.6-0.4-2-1.1c-0.4-0.7-0.4-1.6,0-2.2
				C97.9,415.4,100.2,415.7,100.9,417.2z"/>
			<path style="clip-path:url(#SVGID_00000088107218658988005930000001456563452452930958_);fill:#FFFFFF;" d="M98.1,417.2
				c0.1,0.1,0,0.3,0,0.5c-0.1,0.1-0.2,0.2-0.4,0.2c-0.2,0-0.3-0.1-0.4-0.2c-0.1-0.2-0.1-0.4,0-0.5C97.4,416.8,97.9,416.9,98.1,417.2
				z"/>
		</g>
		<g>
			<path class="st17" d="M102.9,407.6c0.4-0.6,1.1-1.1,1.8-1.3c0.1,0,0.2,0,0.3,0.1c0.1-0.1,0.3-0.1,0.4,0.1
				c0.1,0.1,0.1,0.3-0.1,0.4c-0.7,0.4-1.3,0.8-2,1.2C103.1,408.1,102.8,407.8,102.9,407.6z"/>
			<path class="st17" d="M98.1,409.9c0.5-0.7,1.2-1.3,2-1.7c0.1-0.1,0.3,0,0.3,0.2c0,0,0,0,0,0c0,0.1,0.1,0.2,0,0.3
				c-0.3,0.4-0.5,0.9-0.9,1.2c-0.4,0.4-0.9,0.6-1.4,0.4C98,410.3,98,410.1,98.1,409.9z"/>
			<g>
				<path class="st17" d="M104.8,409.5C104.7,409.6,104.8,409.5,104.8,409.5L104.8,409.5z"/>
				<path class="st17" d="M103.2,410.4c0.4-0.6,0.9-1.1,1.5-1.5c0.1-0.1,0.3-0.1,0.4,0.1c0,0.1,0.1,0.1,0,0.2c0,0.1,0,0.2-0.1,0.2
					c0,0-0.1,0-0.1,0.1c0,0,0,0-0.1,0c0,0,0,0,0,0c0,0,0,0,0,0c0,0-0.1,0.1-0.1,0.1c0,0-0.1,0.1-0.1,0.1c-0.1,0.1-0.2,0.3-0.3,0.4
					c-0.1,0.1-0.2,0.3-0.4,0.4c-0.1,0.1-0.3,0.2-0.5,0.2C103.2,410.8,103.1,410.6,103.2,410.4z"/>
			</g>
			<path class="st17" d="M93.7,414.4c0.3-0.8,0.9-1.4,1.5-1.9c0.1-0.1,0.2-0.1,0.3,0c0.1-0.1,0.2-0.1,0.3-0.1c0,0,0.1,0,0.1,0.1
				c0.1,0.1,0.2,0.2,0.1,0.4c-0.5,0.8-1.2,1.5-2.1,1.9c-0.1,0-0.2,0-0.3-0.1C93.7,414.6,93.7,414.5,93.7,414.4z"/>
			<path class="st17" d="M124.2,420.7c0.1,0,0.2,0,0.2,0c0.1,0,0.2,0.1,0.2,0.2c0,0.1,0,0.2,0,0.4c0,0,0,0.1,0,0.1
				c0.1,0.6,0.2,1.1,0.2,1.7c0,0.1-0.1,0.2-0.2,0.3c-0.1,0-0.3,0-0.3-0.1c-0.2-0.3-0.3-0.7-0.3-1.1c0-0.2,0-0.4,0-0.6
				c0,0,0-0.1,0-0.1c0-0.1-0.1-0.3-0.1-0.4C124,420.9,124,420.7,124.2,420.7z"/>
			<path class="st17" d="M121.8,424.5c0-0.1,0.1-0.1,0.1-0.2c0-0.1,0-0.3,0.2-0.3c0.1,0,0.3,0,0.3,0.2c0.2,0.8,0.3,1.7,0.3,2.5
				c0,0.1-0.1,0.2-0.2,0.2c-0.1,0-0.2,0-0.3-0.1C121.7,426.2,121.8,425.3,121.8,424.5z"/>
		</g>
		<g>
			<path class="st8" d="M97.5,420.8c1.9,0.2,3.7,0.7,5.5,1.6c0.2,0.1,0,0.3-0.1,0.3c-1.7-0.8-3.5-1.4-5.4-1.5
				C97.3,421.1,97.4,420.8,97.5,420.8z"/>
			<path class="st8" d="M94.7,422.6c2.5,0,4.9,0.3,7.3,0.7c0.2,0,0.1,0.3,0,0.3c-2.4-0.5-4.8-0.7-7.2-0.7
				C94.6,422.9,94.6,422.6,94.7,422.6z"/>
			<path class="st8" d="M97.5,425.1c1.9-0.2,3.8-0.4,5.6-0.6c0.2,0,0.2,0.3,0,0.3c-1.9,0.1-3.8,0.3-5.6,0.6
				C97.3,425.4,97.3,425.1,97.5,425.1z"/>
			<path class="st8" d="M111.6,423.4c1.9-0.5,3.8-0.8,5.8-0.8c0.2,0,0.2,0.3,0,0.3c-1.9,0-3.8,0.2-5.7,0.8
				C111.5,423.7,111.4,423.4,111.6,423.4z"/>
			<path class="st8" d="M110.8,424.4c2.3-0.2,4.7-0.1,7,0.2c0.2,0,0.1,0.3,0,0.3c-2.3-0.3-4.6-0.4-6.9-0.2
				C110.7,424.7,110.7,424.4,110.8,424.4z"/>
			<path class="st8" d="M111.3,425.5c2.2,0.4,4.4,1,6.5,2c0.2,0.1,0,0.3-0.1,0.3c-2-1-4.2-1.6-6.4-2
				C111.1,425.8,111.1,425.5,111.3,425.5z"/>
			<path class="st8" d="M118.1,416.9l0.6-1.1c0-0.1,0.1-0.1,0.2-0.1c0.1,0,0.1,0.1,0.1,0.2c-0.2,0.4-0.4,0.8-0.6,1.1
				c0,0.1-0.1,0.1-0.2,0.1C118.1,417.1,118,417,118.1,416.9z"/>
			<path class="st8" d="M116.2,414.5c0-0.2,0.3-0.2,0.3,0c0,0.8,0,1.6-0.1,2.4c0,0.2-0.3,0.1-0.3,0
				C116.2,416.1,116.2,415.3,116.2,414.5z"/>
			<path class="st8" d="M99.9,412.5c0-0.2,0.3-0.1,0.3,0c-0.1,0.7-0.1,1.4-0.2,2.1c0,0.2-0.3,0.1-0.3,0
				C99.8,413.9,99.9,413.2,99.9,412.5z"/>
			<path class="st8" d="M98.8,413.5c0-0.1,0.1-0.1,0.2-0.1c0.1,0,0.1,0.1,0.1,0.2c0,0.3,0,0.6,0,1c0,0.1-0.1,0.1-0.1,0.2
				c-0.1,0-0.1-0.1-0.2-0.1C98.8,414.2,98.8,413.9,98.8,413.5z"/>
			<path class="st8" d="M120.6,406.3c0.4-0.2,0.7-0.3,1.1-0.5c0.1,0,0.2,0,0.2,0.1c0,0.1,0,0.2-0.1,0.2c-0.4,0.2-0.7,0.3-1.1,0.5
				c-0.1,0-0.2,0-0.2-0.1C120.5,406.4,120.6,406.3,120.6,406.3z"/>
			<path class="st8" d="M118.6,407.5c0.3-0.2,0.6-0.4,0.8-0.6c0.1,0,0.2,0,0.2,0c0,0.1,0,0.2,0,0.2c-0.3,0.2-0.6,0.4-0.8,0.6
				c-0.1,0-0.2,0-0.2,0C118.5,407.6,118.5,407.6,118.6,407.5z"/>
			<path class="st8" d="M97.9,404.7c0.4,0.4,0.9,0.8,1.3,1.2c0.1,0.1,0,0.2,0,0.2c-0.1,0-0.1,0-0.2,0c-0.4-0.4-0.8-0.8-1.2-1.2
				C97.6,404.8,97.7,404.6,97.9,404.7z"/>
			<path class="st8" d="M111.7,406.6c0.9,0.1,1.8,0.3,2.7,0.5c0.2,0.1,0.1,0.3-0.1,0.3c-0.8-0.3-1.7-0.4-2.6-0.5
				C111.5,406.9,111.5,406.6,111.7,406.6z"/>
			<path class="st8" d="M110.3,407.5c0.4,0,0.9,0,1.3,0c0.1,0,0.1,0.1,0.1,0.2c0,0.1-0.1,0.1-0.2,0.1c-0.4,0-0.9,0-1.3,0
				c-0.1,0-0.1-0.1-0.1-0.2C110.1,407.6,110.2,407.5,110.3,407.5z"/>
			<path class="st8" d="M91.2,424c0.1,0,0.2,0.1,0.2,0.1c0,0.5,0.1,1,0.1,1.5c0,0.1-0.1,0.1-0.1,0.2c-0.1,0-0.1-0.1-0.2-0.1
				c-0.1-0.5-0.1-1-0.1-1.5C91.1,424.1,91.2,424,91.2,424z"/>
			<path class="st8" d="M91.7,427.3c0,0.5,0.1,1,0.3,1.5c0.1,0.2-0.2,0.3-0.3,0.1c-0.2-0.5-0.3-1-0.4-1.6
				C91.4,427.1,91.7,427.1,91.7,427.3z"/>
			<path class="st8" d="M116.7,432.9c0.1-0.1,0.1-0.1,0.2,0c0.5,0.3,1,0.7,1.5,1c0.1,0,0.1,0.1,0,0.2c-0.1,0.1-0.1,0.1-0.2,0
				c-0.5-0.3-1-0.7-1.5-1C116.6,433,116.6,432.9,116.7,432.9z"/>
			<path class="st8" d="M113.3,431.3c0-0.1,0.1-0.1,0.2-0.1c0.5,0.2,0.9,0.5,1.4,0.7c0.1,0,0.1,0.1,0.1,0.2c0,0.1-0.1,0.1-0.2,0.1
				c-0.5-0.2-0.9-0.5-1.4-0.7C113.3,431.5,113.3,431.4,113.3,431.3z"/>
			<path class="st8" d="M114.7,435.5c0.6,0.2,1.2,0.5,1.8,0.7c0.2,0.1,0.1,0.3-0.1,0.3c-0.6-0.2-1.2-0.5-1.8-0.7
				C114.4,435.7,114.5,435.4,114.7,435.5z"/>
			<path class="st8" d="M112.1,439.1c0-0.1,0.1-0.1,0.2-0.1c0.3,0.1,0.5,0.3,0.8,0.4c0.1,0,0.1,0.1,0.1,0.2c0,0.1-0.1,0.1-0.2,0.1
				c-0.3-0.1-0.5-0.3-0.8-0.4C112.1,439.2,112,439.2,112.1,439.1z"/>
			<path class="st8" d="M105.2,431.9c0.3,0.1,0.6,0.2,0.9,0.4c0.1,0,0.1,0.1,0.1,0.2c0,0.1-0.1,0.1-0.2,0.1
				c-0.3-0.1-0.6-0.3-0.9-0.3c-0.1,0-0.1-0.1-0.1-0.2C105.1,431.9,105.2,431.8,105.2,431.9z"/>
			<path class="st8" d="M135,441.2c0.5,0,1,0,1.6,0c0.2,0,0.2,0.3,0,0.3c-0.5,0-1,0-1.6,0C134.8,441.5,134.8,441.2,135,441.2z"/>
			<path class="st8" d="M130.7,440.4c0-0.1,0.1-0.1,0.2-0.1c0.4,0.1,0.7,0.2,1.1,0.2c0.1,0,0.1,0,0.2,0.1c0,0.1-0.1,0.2-0.1,0.2
				c-0.4,0-0.8,0-1.2-0.2C130.7,440.6,130.6,440.5,130.7,440.4z"/>
			<path class="st8" d="M127.7,443.6c0.8,0,1.5,0.1,2.3,0.2c0.2,0,0.1,0.3,0,0.3c-0.7-0.1-1.5-0.2-2.2-0.2
				C127.5,443.9,127.5,443.6,127.7,443.6z"/>
			<path class="st8" d="M146.6,441c0.6-0.1,1.2-0.3,1.7-0.5c0.2-0.1,0.3,0.2,0.1,0.3c-0.6,0.3-1.2,0.4-1.8,0.5
				C146.4,441.3,146.4,441,146.6,441z"/>
			<path class="st8" d="M152.8,438.8c0.4-0.2,0.7-0.4,1.1-0.6c0.1,0,0.2,0,0.2,0c0,0.1,0,0.2,0,0.2c-0.4,0.2-0.7,0.4-1.1,0.6
				c-0.1,0-0.2,0-0.2-0.1C152.7,438.9,152.7,438.8,152.8,438.8z"/>
			<path class="st8" d="M144.7,414.7c0.9-0.2,1.7-0.5,2.6-0.9c0.2-0.1,0.3,0.2,0.1,0.3c-0.8,0.4-1.7,0.6-2.6,0.9
				C144.7,415.1,144.6,414.8,144.7,414.7z"/>
			<path class="st8" d="M141.9,416c0.3-0.3,0.6-0.5,0.9-0.8c0.1,0,0.2,0,0.2,0c0,0.1,0,0.1,0,0.2c-0.3,0.3-0.6,0.5-0.9,0.8
				c-0.1,0-0.2,0-0.2,0C141.8,416.2,141.9,416.1,141.9,416z"/>
			<path class="st8" d="M142,419.1c0.4-0.5,0.8-1,1.3-1.4c0.1,0,0.2,0,0.2,0c0,0.1,0,0.1,0,0.2c-0.5,0.4-0.9,0.9-1.3,1.4
				c0,0.1-0.1,0.1-0.2,0C142,419.2,142,419.1,142,419.1z"/>
			<path class="st8" d="M138.3,422.4c0.1-0.4,0.2-0.9,0.5-1.2c0-0.1,0.1-0.1,0.2-0.1c0.1,0,0.1,0.1,0.1,0.2
				c-0.2,0.4-0.3,0.8-0.4,1.2C138.5,422.7,138.2,422.6,138.3,422.4z"/>
			<path class="st8" d="M134.6,425.3c0.2-0.7,0.4-1.4,0.6-2.1c0-0.1,0.1-0.1,0.2-0.1c0.1,0,0.1,0.1,0.1,0.2
				c-0.2,0.7-0.4,1.4-0.6,2.1c0,0.1-0.1,0.1-0.2,0.1C134.7,425.4,134.6,425.4,134.6,425.3z"/>
			<path class="st8" d="M154.1,402.4c0.6,0.5,1.1,1.1,1.6,1.6c0,0.1,0,0.2,0,0.2c-0.1,0-0.1,0-0.2,0c-0.5-0.6-1-1.1-1.5-1.6
				C153.8,402.5,154,402.3,154.1,402.4z"/>
			<path class="st8" d="M151.6,399.8c0-0.1,0.1-0.1,0.2,0c0.3,0.4,0.7,0.7,1.1,1c0.1,0.1,0,0.3-0.2,0.2c-0.4-0.3-0.7-0.6-1.1-1
				C151.5,399.9,151.5,399.8,151.6,399.8z"/>
			<path class="st8" d="M145.5,394.7c0.7,0.3,1.3,0.7,1.9,1.2c0.1,0.1,0,0.3-0.2,0.2c-0.6-0.4-1.2-0.8-1.9-1.1
				C145.2,394.9,145.4,394.6,145.5,394.7z"/>
			<path class="st8" d="M142.1,392.9c0.5,0.1,1,0.3,1.4,0.5c0.2,0.1,0,0.3-0.1,0.3c-0.4-0.2-0.9-0.4-1.4-0.5
				C141.8,393.2,141.9,392.9,142.1,392.9z"/>
			<path class="st8" d="M143.5,395.2c0-0.1,0.1-0.1,0.2-0.1c0.4,0.1,0.7,0.3,1.1,0.4c0.1,0,0.1,0.1,0.1,0.2c0,0.1-0.1,0.1-0.2,0.1
				c-0.4-0.1-0.7-0.3-1.1-0.4C143.5,395.4,143.5,395.3,143.5,395.2z"/>
			<path class="st8" d="M133.5,390.8c0.8,0.1,1.6,0.2,2.5,0.3c0.2,0,0.1,0.3,0,0.3c-0.8-0.1-1.6-0.2-2.5-0.3
				C133.3,391.1,133.3,390.8,133.5,390.8z"/>
			<path class="st8" d="M112.8,395.2c0.3-0.1,0.7-0.3,1-0.4c0.1,0,0.2,0,0.2,0.1c0,0.1,0,0.2-0.1,0.2c-0.3,0.1-0.7,0.3-1,0.4
				c-0.1,0-0.2,0-0.2-0.1C112.7,395.3,112.7,395.2,112.8,395.2z"/>
			<path class="st8" d="M109.1,397.4c0.4-0.2,0.7-0.5,1-0.8c0.1-0.1,0.1-0.1,0.2,0c0.1,0,0.1,0.1,0,0.2c-0.3,0.3-0.7,0.6-1.1,0.9
				c-0.1,0-0.2,0-0.2,0C109,397.5,109,397.4,109.1,397.4z"/>
			<path class="st8" d="M112.8,398.9c0.4-0.3,0.8-0.6,1.2-1c0.1,0,0.2,0,0.2,0c0,0.1,0,0.1,0,0.2c-0.4,0.3-0.8,0.6-1.2,1
				c-0.1,0-0.2,0-0.2,0C112.8,399.1,112.8,399,112.8,398.9z"/>
			<path class="st8" d="M123.1,396.5c0.6-0.1,1.3-0.2,1.9-0.3c0.2,0,0.2,0.2,0,0.3c-0.6,0.1-1.3,0.2-1.9,0.3
				C123,396.8,122.9,396.5,123.1,396.5z"/>
			<path class="st8" d="M142.8,399.9c0.4,0.1,0.7,0.2,1.1,0.4c0.1,0,0.1,0.1,0.1,0.2c0,0.1-0.1,0.1-0.2,0.1c-0.3-0.2-0.6-0.3-1-0.3
				C142.6,400.2,142.6,399.9,142.8,399.9z"/>
			<path class="st8" d="M139.2,398.3c0.5,0,1,0,1.5,0.1c0.2,0,0.1,0.3,0,0.3c-0.5-0.1-1-0.1-1.5-0.1
				C139.1,398.6,139,398.3,139.2,398.3z"/>
			<path class="st8" d="M137.5,400.9l1.4-0.3c0.1,0,0.1,0.1,0.2,0.1c0,0.1-0.1,0.1-0.1,0.2l-1.4,0.3c-0.1,0-0.1-0.1-0.2-0.1
				C137.4,401,137.5,400.9,137.5,400.9z"/>
			<path class="st8" d="M157,411.8c0.2,0.5,0.4,1,0.6,1.5c0.1,0.2-0.2,0.3-0.3,0.1c-0.2-0.5-0.4-1-0.6-1.5
				C156.6,411.7,156.9,411.6,157,411.8z"/>
			<path class="st8" d="M160.5,417.2c0.1,0,0.1,0.1,0.2,0.1c0.1,0.4,0.1,0.9,0.2,1.3c0,0.2-0.3,0.2-0.3,0c0-0.4-0.1-0.9-0.2-1.3
				C160.4,417.3,160.4,417.2,160.5,417.2z"/>
			<path class="st8" d="M154.4,419.6c0.1,0,0.2,0,0.2,0.1l0.3,1.5c0,0.1,0,0.2-0.1,0.2c-0.1,0-0.2,0-0.2-0.1c-0.1-0.5-0.2-1-0.3-1.5
				C154.3,419.7,154.4,419.7,154.4,419.6z"/>
		</g>
	</g>
</g>
</svg>
