<?xml version="1.0" encoding="utf-8"?>
<!-- Generator: Adobe Illustrator 26.1.0, SVG Export Plug-In . SVG Version: 6.00 Build 0)  -->
<svg version="1.1" id="瀧_1" xmlns="http://www.w3.org/2000/svg" xmlns:xlink="http://www.w3.org/1999/xlink" x="0px" y="0px"
	 viewBox="0 0 104.1 110.5" style="enable-background:new 0 0 104.1 110.5;" xml:space="preserve">
<style type="text/css">
	.st0{clip-path:url(#SVGID_00000123434129404072547560000003582677225192156089_);}
	.st1{fill:#FFFFFF;}
	.st2{fill:#D8CDCB;}
	.st3{fill:#F98C7A;}
	.st4{fill:#FFC4B8;}
	.st5{fill:#383838;}
	.st6{clip-path:url(#SVGID_00000178202610526095878860000009081707913839010960_);}
	.st7{clip-path:url(#SVGID_00000031182192310943270960000008548881591436770697_);fill:#FFFFFF;}
	.st8{clip-path:url(#SVGID_00000049187391267322824420000010477536393744476813_);}
	.st9{clip-path:url(#SVGID_00000137097154153895304990000016097763025297606579_);fill:#FFFFFF;}
	.st10{fill:#C9A19D;}
	.st11{fill:#E2DDDC;}
</style>
<g>
	<g>
		<g>
			<defs>
				<rect id="SVGID_1_" x="-110.3" y="-98.1" width="450" height="450"/>
			</defs>
			<clipPath id="SVGID_00000013159784577607403280000013847385148045391513_">
				<use xlink:href="#SVGID_1_"  style="overflow:visible;"/>
			</clipPath>
			<g style="clip-path:url(#SVGID_00000013159784577607403280000013847385148045391513_);">
				<path class="st1" d="M75.3,32.8C68.4,31.3,62.2,44,60.8,46.9c0,0-4.5-0.4-5.6-8.3c0,0,2.2-7,1.9-10.6c-0.2-2.3-4.1-8.5-4.1-8.5
					s1.1-10.7,0-11.3s-7.7,6.5-7.7,6.5c-6.7-0.1-12.1,2-16,6.4c0,0-9.1-1.1-9.6-0.1s6,8.4,6,8.4c-0.4,6.2,1.8,10.8,5.2,14.7V50
					c-2.8,5.5-9,18.8-10.1,31.8c-0.9,11.5,2.8,23,6.3,24.9c2.8,1.5,9.4,0.8,9.4,0.8c3.7,3,8.2,2.1,8.3-0.1c0,0,14.2,1,18.1-1.6
					c3.9-2.6,12.9-28.5,1.6-27.1l-1.8-20.2c0,0,2.7,0.5,3.5-0.1c1.3-0.9,1.6-11.1,8.2-16.5c0.8,0.3,1.7,0.2,2.6-0.1
					c0.7,0.8,2,0.7,2.7,0.1c0.8-0.6,1.1-1.7,1.2-2.7C81.2,36.6,80,33.9,75.3,32.8z"/>
				<path d="M56.7,26.4c-1.1-2.8-3.6-6.7-3.6-6.7s1.1-10.7,0-11.3s-7.7,6.5-7.7,6.5c-0.5,0-1,0-1.5,0c-0.3,1.8-0.2,3.8,0,5.5
					c0.2,1.6,0.5,3.3,1.6,4.4c1,1,2.4,1.4,3.8,1.7c1.4,0.4,2.9,0.7,4.3,0.7C54.7,27.2,55.8,26.9,56.7,26.4z"/>
				<path class="st2" d="M35.3,21.3c1.7,0,3.3,0.7,4.6,1.7c2.7,2.3,3.7,6.4,2.2,9.7c-1.4,3.2-5.1,5.4-8.6,4.9
					c-3.6-0.4-6-3.1-6.1-6.6c-0.1-2.6,1.7-5,3.1-7.1C31.5,22.4,33.3,21.4,35.3,21.3z"/>
				<path class="st2" d="M41.5,110c-1.6,0-4.4-0.3-5.9-3c-0.8-1.4-1.7-4.9-2.4-9.2c-0.6-3.6-1.2-9.5-1.2-17.2c0-0.3,0.2-0.5,0.5-0.5
					s0.5,0.2,0.5,0.5c0,13.6,2.1,23.5,3.5,25.9s4,2.5,5.8,2.4c0.7,0,1.6-0.2,1.9-0.8c0.3-0.4,0.3-1.1-0.1-2
					c-0.6-1.5-1.8-6.2-2.5-12.5C41,88,40.5,79.2,41.9,69.4c0-0.3,0.3-0.5,0.6-0.4c0.3,0,0.5,0.3,0.4,0.6
					c-2.7,18.4,1.2,33.9,2.1,36.2c0.5,1.2,0.5,2.2,0,2.9c-0.5,0.8-1.4,1.2-2.8,1.2C42.2,110,41.9,110,41.5,110z"/>
				<path d="M53.6,30c-0.2,0-0.5,0.1-0.5,0.4c-0.3,1.9-0.5,1.9-3.8,1.9c-0.2,0-0.4,0-0.6,0L48,30.6c0.6-1,1.1-3.4,0.7-3.7
					c-0.5-0.4-4.7,1.3-4.7,1.8s2.2,2,3.2,2.3l0.7,1.7l-0.2,0.2c-1.1,1.4-1.6,2.1-2.1,2.4c-0.5,0.3-1.3,0.3-2.7,0.2h-0.1
					c-0.2,0-0.4,0.2-0.5,0.4c0,0.2,0.2,0.4,0.4,0.5h0.1c0.4,0,0.8,0,1.1,0c2.1,0,2.5-0.4,4.5-3l0.2-0.2c0.2,0,0.5,0,0.7,0
					c3.4,0,4.3,0,4.7-2.7C54,30.2,53.9,30,53.6,30z"/>
				<path class="st2" d="M78.5,37.2c0-0.3-0.3-0.5-0.6-0.4c-0.3,0-0.5,0.3-0.4,0.6c0.2,1.5-0.1,2.6-0.8,3.2c-0.6,0.4-1.3,0.5-2,0.3
					c-0.3-0.1-0.6-0.4-0.8-0.9c0.3-0.1,0.7-0.3,1-0.6c0.6-0.6,1.2-1.7,0.6-3.8c-0.1-0.3-0.4-0.4-0.6-0.3c-0.3,0.1-0.4,0.4-0.3,0.6
					c0.4,1.3,0.3,2.2-0.3,2.8c-0.6,0.5-1.4,0.6-1.9,0.5c-1.3-0.4-1.5-1.9-1.2-2.8c0.1-0.3-0.1-0.6-0.3-0.6c-0.3-0.1-0.6,0.1-0.6,0.3
					c-0.4,1.5,0.1,3.5,1.9,4.1c0.2,0.1,0.5,0.1,0.8,0.1h0.1c0.2,0.7,0.7,1.3,1.4,1.6c0.4,0.2,0.8,0.2,1.2,0.2c0.7,0,1.3-0.2,1.8-0.6
					C78,40.9,79,39.7,78.5,37.2z"/>
				<g>
					<path class="st3" d="M71,12.5c0.4-0.8,1.1-2.5,1.7-3.7c0.1-0.3,0.3-0.6,0.5-0.9c0.2-0.3,0.6-0.5,0.9-0.5
						c0.7-0.1,1.2,0.5,1.6,1.1c0.5,0.6,0.9,1.3,1.2,2.1c0.2,0.8,0.3,1.6-0.1,2.3c-0.3,0.6-0.8,1-1.4,1.3c-0.6,0.3-1.1,0.5-1.8,0.7
						C71.7,15.5,70,14.7,71,12.5z"/>
					<path class="st4" d="M67.7,12.6c-0.4-1.1-1.2-3.3-1.8-4.9c-0.2-0.4-0.3-0.9-0.4-1.3c0-0.5,0-0.9,0.3-1.3
						c0.5-0.7,1.4-0.6,2.2-0.5c0.9,0.2,1.9,0.4,2.7,0.9s1.6,1.2,1.9,2.2c0.2,0.8,0.2,1.6,0,2.4s-0.4,1.4-0.9,2.3
						C70.7,14.7,68.7,15.5,67.7,12.6z"/>
					<path class="st5" d="M66.9,15.5c0.6,0.7,1.3,1.5,2.1,2s1.8,0.9,2.7,0.9c1,0,2-0.5,2.5-1.3c0.4-0.6,0.5-1.5,0-2
						c-0.3-0.4-0.9-0.6-1.4-0.7C71.2,14,67.7,13,67.7,13L66.9,15.5z"/>
					<path d="M65,14.9c0.6,0.7,1.6,1.1,2.4,0.7c1.6-0.8,1.1-3.3-0.5-3.8C65.1,11.1,63.9,13.6,65,14.9z"/>
					<path d="M66,12.3c-0.1,0-0.3-0.1-0.3-0.2c-0.3-1.4-1.4-2.6-2.8-3c-0.2,0-0.2-0.2-0.2-0.4s0.2-0.2,0.4-0.2
						c1.6,0.5,2.8,1.9,3.2,3.4C66.3,12.1,66.2,12.2,66,12.3L66,12.3z"/>
					<path d="M64.9,12.9c-0.1,0-0.2,0-0.2-0.1c-0.5-0.5-0.9-1-1.5-1.4S62,10.9,61.4,11c-0.2,0-0.3-0.1-0.3-0.2
						c0-0.2,0.1-0.3,0.2-0.3c0.7-0.1,1.5,0.1,2.2,0.5c0.6,0.4,1.1,0.9,1.6,1.4c0.1,0.1,0.1,0.3,0,0.4C65,12.9,65,12.9,64.9,12.9z"/>
				</g>
				<g>
					<g>
						<g>
							<path id="SVGID_00000176759491047924741790000017702623559660424606_" class="st1" d="M38.7,27c0.5,0,1.1,0.1,1.4,0.6
								c0.3,0.5-0.1,1.2-0.5,1.6c-1,1-4.3,2.4-5.2,0.7C33.4,28.1,37.6,26.9,38.7,27z"/>
						</g>
						<g>
							<g>
								<defs>
									<path id="SVGID_00000146489055611178046870000012189681381750772881_" d="M38.7,27c0.5,0,1.1,0.1,1.4,0.6
										c0.3,0.5-0.1,1.2-0.5,1.6c-1,1-4.3,2.4-5.2,0.7C33.4,28.1,37.6,26.9,38.7,27z"/>
								</defs>
								<clipPath id="SVGID_00000091006833285213687090000000971289529204221334_">
									<use xlink:href="#SVGID_00000146489055611178046870000012189681381750772881_"  style="overflow:visible;"/>
								</clipPath>
								<path style="clip-path:url(#SVGID_00000091006833285213687090000000971289529204221334_);" d="M36.3,28.1
									c-0.1,0.6,0,1.2,0.5,1.6c0.4,0.4,1,0.6,1.6,0.5s1.2-0.6,1.5-1.2c0.2-0.6,0.1-1.4-0.3-1.8C38.5,26.1,36.6,26.7,36.3,28.1z"/>
							</g>
						</g>
						<g>
							<g>
								<defs>
									<path id="SVGID_00000118359629749762923990000003843492858014206885_" d="M38.7,27c0.5,0,1.1,0.1,1.4,0.6
										c0.3,0.5-0.1,1.2-0.5,1.6c-1,1-4.3,2.4-5.2,0.7C33.4,28.1,37.6,26.9,38.7,27z"/>
								</defs>
								<clipPath id="SVGID_00000039845731880406227640000010304541390022011838_">
									<use xlink:href="#SVGID_00000118359629749762923990000003843492858014206885_"  style="overflow:visible;"/>
								</clipPath>
								<path style="clip-path:url(#SVGID_00000039845731880406227640000010304541390022011838_);fill:#FFFFFF;" d="M38.3,27.9
									c0,0.1,0,0.3,0.1,0.4c0.1,0.1,0.2,0.1,0.4,0.1c0.1,0,0.3-0.1,0.3-0.3c0.1-0.1,0-0.3-0.1-0.4C38.8,27.5,38.4,27.6,38.3,27.9z
									"/>
							</g>
						</g>
					</g>
					<g>
						<g>
							<path id="SVGID_00000049214469957635895670000017339691623697015481_" class="st1" d="M50.9,21.1c0.5-0.1,1.2,0,1.5,0.4
								c0.3,0.5,0.1,1.2-0.3,1.7c-0.8,1.1-3.9,2.9-5.1,1.4C45.8,22.9,49.8,21.2,50.9,21.1z"/>
						</g>
						<g>
							<g>
								<defs>
									<path id="SVGID_00000164486152285405524820000016127003874664938904_" d="M50.9,21.1c0.5-0.1,1.2,0,1.5,0.4
										c0.3,0.5,0.1,1.2-0.3,1.7c-0.8,1.1-3.9,2.9-5.1,1.4C45.8,22.9,49.8,21.2,50.9,21.1z"/>
								</defs>
								<clipPath id="SVGID_00000067233207691080088220000014385894611108637355_">
									<use xlink:href="#SVGID_00000164486152285405524820000016127003874664938904_"  style="overflow:visible;"/>
								</clipPath>
								<path style="clip-path:url(#SVGID_00000067233207691080088220000014385894611108637355_);" d="M48.7,22.6
									c-0.1,0.6,0.2,1.2,0.7,1.6c0.5,0.4,1.1,0.5,1.7,0.3c0.6-0.2,1.1-0.7,1.3-1.4c0.2-0.6-0.1-1.4-0.6-1.8
									C50.7,20.4,48.9,21.3,48.7,22.6z"/>
							</g>
						</g>
						<g>
							<g>
								<defs>
									<path id="SVGID_00000011010647277336097190000005263513293338729404_" d="M50.9,21.1c0.5-0.1,1.2,0,1.5,0.4
										c0.3,0.5,0.1,1.2-0.3,1.7c-0.8,1.1-3.9,2.9-5.1,1.4C45.8,22.9,49.8,21.2,50.9,21.1z"/>
								</defs>
								<clipPath id="SVGID_00000138544143730247627460000016240186989305265582_">
									<use xlink:href="#SVGID_00000011010647277336097190000005263513293338729404_"  style="overflow:visible;"/>
								</clipPath>
								<path style="clip-path:url(#SVGID_00000138544143730247627460000016240186989305265582_);fill:#FFFFFF;" d="M50.6,22.1
									c0,0.1,0,0.3,0.2,0.4c0.1,0.1,0.2,0.1,0.4,0.1c0.1,0,0.3-0.2,0.3-0.3s0-0.3-0.1-0.4C51.1,21.6,50.7,21.8,50.6,22.1z"/>
							</g>
						</g>
					</g>
				</g>
				<path class="st10" d="M49.3,15.6c-0.1-1,2.7-5.8,3.2-5.8s0.2,8.6-0.3,8.9S49.5,16.6,49.3,15.6z"/>
				<path class="st10" d="M20.9,21.7c-0.3,0.4,4.8,6.5,5.4,6.5c0.6,0,1.7-3.3,1.4-4.1C27.4,23.3,21.2,21.3,20.9,21.7z"/>
				<path d="M39.9,53.8c-2.4-2.2-5.6-3.5-8.9-3.7l0,0c-2.8,5.5-9,18.8-10.1,31.8c-0.1,1.4-0.2,2.9-0.1,4.3c1.9-0.8,3.4-2.5,4.7-4.2
					c2.2-2.8,4.4-5.6,5.5-8.9c0.8-2.3,1.2-5,3-6.6c2.2-1.9,5.8-1.7,7.7-3.9c1.1-1.3,1.4-3.1,0.9-4.8C42.2,56.3,41.1,54.9,39.9,53.8z
					"/>
				<path class="st2" d="M63.3,47.2c4-0.2,4.4-6.2,2.6-8.9c-2.3,3-4,6.3-4.8,8.1C61.7,46.9,62.5,47.2,63.3,47.2z"/>
				<path class="st2" d="M36.8,74.6c0,0.6,0.1,1.2-0.1,1.7c-0.3,1-1.3,1.6-1.6,2.5s0.1,2.1,0.9,2.6c0.9,0.5,2.1,0.3,2.7-0.4
					c0.7-0.8,0.7-2,0.7-3c0-1.2,0-2.4,0-3.7C39.4,71.1,36.6,71.7,36.8,74.6z"/>
				<path d="M66.9,52.7c-1.6,1.3-3,1.5-1.9,3.3c0.4,0.7,1.1,1.2,1.9,1.4c0.5-1.6,1.1-4.4,2.3-7.5C68.4,50.5,67.7,52.1,66.9,52.7z"/>
				<path class="st2" d="M64.7,78.8c-1.3,1.8-0.6,4.5,0.3,6.4c0.6,1.1,1.2,2.3,1.3,3.5c0.2,1.6-0.2,3.2-0.5,4.8s-0.3,3.3,0.6,4.6
					c0.2,0.3,0.4,0.5,0.7,0.7C70.5,90.5,72.7,77.8,64.7,78.8z"/>
				<path d="M27.4,87.1c-0.6,0.5-2.2,0.6-2.4,1.4c-0.2,0.9,0.4,2,1.3,2.3c0.9,0.4,2,0.1,2.7-0.5c0.8-0.6,1.2-1.6,1.4-2.5
					s0.3-2.9-0.9-3.1C28.5,84.5,28,86.6,27.4,87.1z"/>
				<path d="M29.1,27.1c0.5,0.6,1.5,0.9,2.2,0.4c0.8-0.6,0.8-1.9,1.5-2.6s1.8-0.8,2.4-1.6c0.6-0.8,0.3-2-0.5-2.7
					c-1.5-1.2-4.3-0.4-5.3,1.2C28.7,23.1,28.1,25.9,29.1,27.1z"/>
				<path class="st2" d="M31.8,41.5c0.7,0.2,1.5,0.5,1.9,1.1c0.2,0.3,0.3,0.7,0.5,1c0.5,1,1.7,1.7,2.8,1.7c1.1-0.1,2.2-0.8,2.6-1.9
					c0.4-1.1,0.1-2.4-0.7-3.2s-1.9-1-3-1.2c-1.3-0.3-4.9-1.8-6-0.8C28.2,39.6,30.7,41.2,31.8,41.5z"/>
				<g>
					<path class="st5" d="M32.3,53c-0.5-0.2-0.7,0.5-1,1.3s-0.5,1.4,0,1.6c0.5,0.2,0.7-0.5,1-1.3C32.5,53.8,32.7,53.1,32.3,53z"/>
					<path class="st5" d="M35.9,56.2c-0.5-0.1-0.7,0.5-0.9,1.4c-0.2,0.8-0.4,1.5,0,1.7c0.5,0.1,0.7-0.5,0.9-1.4
						C36.2,57,36.4,56.3,35.9,56.2z"/>
					<path class="st5" d="M29.7,61.5c0.3-1.2,0.6-2.2,0.1-2.3s-0.7,0.9-1.1,2.1c-0.3,1.2-0.6,2.2-0.1,2.3
						C29.2,63.7,29.4,62.7,29.7,61.5z"/>
					<path class="st5" d="M25.2,67.8c-0.5-0.2-0.8,0.8-1.1,2s-0.4,2.3,0,2.3c0.5,0.1,0.6-0.9,0.9-2.1C25.4,68.9,25.7,67.9,25.2,67.8
						z"/>
					<path class="st5" d="M29.8,66.6c-0.5-0.1-0.7,0.7-0.9,1.6c-0.2,0.9-0.4,1.7,0.1,1.8s0.7-0.7,0.9-1.6S30.3,66.7,29.8,66.6z"/>
					<path class="st5" d="M25.3,75.1c-0.5-0.1-0.6,0.5-0.7,1.2c-0.1,0.7-0.2,1.2,0.3,1.3s0.6-0.5,0.7-1.2S25.8,75.2,25.3,75.1z"/>
				</g>
				<g>
					<path class="st11" d="M49.7,54.5c-0.5,0-0.5,0.9-0.6,2c0,1.1-0.1,2,0.4,2s0.5-0.9,0.6-2C50.2,55.4,50.2,54.5,49.7,54.5z"/>
					<path class="st11" d="M48.7,64c-0.5-0.1-0.6,0.9-0.8,2c-0.1,1.2-0.3,2.1,0.2,2.2c0.5,0.1,0.6-0.9,0.8-2
						C49.1,65,49.2,64.1,48.7,64z"/>
					<path class="st11" d="M53.5,60.5c-0.5,0-0.5,1-0.6,2.4c0,1.3-0.1,2.4,0.4,2.4s0.5-1,0.6-2.4S54,60.5,53.5,60.5z"/>
					<path class="st11" d="M58.9,55.9c0-0.8,0-1.4-0.5-1.4s-0.5,0.6-0.5,1.4c0,0.8,0,1.4,0.5,1.4S58.9,56.7,58.9,55.9z"/>
					<path class="st11" d="M59.9,65.2c-0.1-0.8-0.1-1.5-0.6-1.4c-0.5,0-0.5,0.7-0.4,1.5s0.1,1.5,0.6,1.4S59.9,66,59.9,65.2z"/>
					<path class="st11" d="M59,71.5c-0.5,0-0.5,0.6-0.5,1.4c0,0.8,0,1.4,0.5,1.4s0.5-0.6,0.5-1.4S59.5,71.5,59,71.5z"/>
					<path class="st11" d="M51.1,75.4c-0.5,0-0.5,0.7-0.6,1.7c0,0.9-0.1,1.7,0.4,1.7s0.5-0.7,0.6-1.7S51.6,75.4,51.1,75.4z"/>
					<path class="st11" d="M39.1,87.3c-0.5,0-0.5,0.6-0.5,1.3s0,1.3,0.5,1.3s0.5-0.6,0.5-1.3S39.6,87.3,39.1,87.3z"/>
					<path class="st11" d="M35.8,92.8c-0.5,0-0.5,0.8-0.6,1.9c0,1-0.1,1.9,0.4,1.9s0.5-0.8,0.6-1.9C36.2,93.7,36.3,92.8,35.8,92.8z"
						/>
					<path class="st11" d="M39.3,94.2c-0.5,0-0.5,0.6-0.4,1.4c0,0.8,0.1,1.4,0.6,1.4s0.5-0.6,0.4-1.4C39.9,94.8,39.8,94.1,39.3,94.2
						z"/>
					<path class="st11" d="M38.4,99.8c-0.5,0.1-0.4,0.7-0.2,1.5c0.1,0.8,0.3,1.4,0.8,1.3s0.4-0.7,0.2-1.5
						C39.1,100.3,38.9,99.7,38.4,99.8z"/>
				</g>
				<g>
					<path class="st2" d="M22.8,91c-0.5,0.1-0.4,0.7-0.3,1.4c0.1,0.7,0.2,1.3,0.7,1.3s0.4-0.7,0.3-1.4S23.3,91,22.8,91z"/>
					<path class="st2" d="M24.3,98c-0.5,0.2-0.3,0.8,0,1.5s0.5,1.3,1,1.2c0.5-0.2,0.3-0.8,0-1.5C25,98.4,24.8,97.8,24.3,98z"/>
					<path class="st2" d="M27.3,96.5c0.5-0.2,0.2-0.8-0.1-1.6s-0.6-1.4-1-1.2c-0.5,0.2-0.2,0.8,0.1,1.6
						C26.5,96.1,26.8,96.7,27.3,96.5z"/>
					<path class="st2" d="M27.3,99.7c-0.5,0.2-0.3,0.8,0,1.5s0.5,1.3,0.9,1.1c0.5-0.2,0.3-0.8,0-1.5C28,100.1,27.8,99.5,27.3,99.7z"
						/>
				</g>
				<g>
					<path class="st11" d="M53.8,24.5c-1.4,1.2-2.6,2.5-3.7,4c-0.1,0.2,0.1,0.3,0.2,0.2c1.1-1.4,2.3-2.7,3.6-3.9
						C54.1,24.6,53.9,24.4,53.8,24.5z"/>
					<path class="st11" d="M54.8,25.8c-1.2,0.7-2.3,1.6-3.3,2.6c-0.1,0.1,0.1,0.4,0.2,0.2c1-1,2.1-1.9,3.3-2.6
						C55.1,25.9,55,25.7,54.8,25.8z"/>
					<path class="st11" d="M55.6,27.6c-1.6,0.4-3.1,1-4.4,1.9c-0.2,0.1,0,0.3,0.2,0.2c1.3-0.8,2.8-1.5,4.3-1.8
						C55.8,27.8,55.8,27.5,55.6,27.6z"/>
					<path class="st11" d="M45.2,30.5c-2.1,0.1-4.2,0.5-6.3,1.2C38.7,31.8,38.8,32,39,32c2-0.7,4.1-1.1,6.2-1.2
						C45.5,30.8,45.4,30.5,45.2,30.5z"/>
					<path class="st11" d="M44.4,31.7c-1.9,0.6-3.8,1.2-5.7,1.9c-0.2,0.1-0.1,0.3,0.1,0.3c1.9-0.7,3.7-1.4,5.6-1.9
						C44.6,32,44.5,31.7,44.4,31.7z"/>
					<path class="st11" d="M45.4,32.6c-1.8,0.7-3.5,1.5-5.2,2.4c-0.2,0.1,0,0.4,0.1,0.3c1.7-0.9,3.4-1.8,5.2-2.4
						C45.7,32.8,45.6,32.5,45.4,32.6z"/>
					<path class="st11" d="M46.5,31.7c-0.4,0-0.4,0.6-0.1,0.6C46.9,32.3,46.9,31.7,46.5,31.7z"/>
					<path class="st11" d="M45.5,33.6c-0.4,0-0.4,0.6-0.1,0.6C45.8,34.2,45.9,33.6,45.5,33.6z"/>
					<path class="st11" d="M49.4,30.2c-0.4,0-0.4,0.6-0.1,0.6C49.7,30.8,49.7,30.2,49.4,30.2z"/>
					<path class="st11" d="M51.1,30.8c-0.4,0-0.4,0.6-0.1,0.6C51.4,31.4,51.4,30.8,51.1,30.8z"/>
					<path class="st11" d="M35.8,24.9c-0.2,0.6-0.2,1.2-0.1,1.7c0,0.2,0.3,0.1,0.3,0c-0.1-0.5-0.1-1.1,0-1.6
						C36.2,24.8,35.9,24.7,35.8,24.9z"/>
					<path class="st11" d="M37.4,23.6c-0.4,0.8-0.5,1.7-0.5,2.6c0,0.2,0.3,0.1,0.3,0c-0.1-0.8,0.1-1.7,0.4-2.4
						C37.7,23.6,37.5,23.5,37.4,23.6z"/>
					<path class="st11" d="M48.1,19.6c-0.1,0-0.2,0-0.2,0.1c-0.1,0.6-0.2,1.1-0.1,1.7c0,0.2,0.3,0.1,0.3,0c-0.1-0.5-0.1-1.1,0.1-1.6
						C48.2,19.7,48.1,19.6,48.1,19.6z"/>
					<path class="st11" d="M48.8,18.7c-0.1,0.7-0.1,1.5-0.1,2.2c0,0.2,0.3,0.2,0.3,0c0-0.8,0.1-1.5,0.1-2.2
						C49.1,18.5,48.8,18.5,48.8,18.7z"/>
					<path class="st11" d="M35.7,17.5c-1,0.3-1.9,0.8-2.7,1.5c-0.1,0.1,0,0.4,0.2,0.2c0.8-0.7,1.7-1.2,2.6-1.5
						C36,17.7,35.9,17.4,35.7,17.5z"/>
					<path class="st11" d="M38.1,16.6c0-0.1-0.1-0.1-0.2-0.1c-0.3,0.1-0.6,0.2-0.9,0.3c-0.1,0-0.1,0.1-0.1,0.2
						c0,0.1,0.1,0.1,0.2,0.1c0.3-0.1,0.6-0.2,0.9-0.3C38.1,16.8,38.1,16.6,38.1,16.6z"/>
					<path class="st11" d="M24.3,21.2c-0.5-0.1-1-0.1-1.5-0.2c-0.2,0-0.2,0.3,0,0.3c0.5,0.1,1,0.1,1.5,0.2
						C24.4,21.5,24.4,21.2,24.3,21.2z"/>
					<path class="st11" d="M26.7,21.3c-0.4,0-0.9,0-1.3-0.1c-0.2,0-0.2,0.3,0,0.3c0.4,0.1,0.9,0.1,1.3,0.1c0.1,0,0.2,0,0.2-0.1
						C26.8,21.4,26.8,21.3,26.7,21.3z"/>
					<path class="st11" d="M50.3,10.7c-0.1-0.1-0.2,0-0.2,0c-0.4,0.4-0.7,0.8-1.1,1.2c-0.1,0.1,0,0.2,0,0.2c0.1,0.1,0.2,0,0.2,0
						c0.4-0.4,0.7-0.8,1.1-1.2C50.4,10.9,50.3,10.8,50.3,10.7z"/>
					<path class="st11" d="M48.3,12.8l-0.1-0.1h-0.1c-0.1,0.1-0.3,0.3-0.4,0.4c0,0,0,0.1-0.1,0.1v0.1l0.1,0.1h0.1
						c0.1-0.1,0.3-0.3,0.4-0.4l0.1-0.1C48.3,12.9,48.3,12.9,48.3,12.8z"/>
					<path class="st11" d="M48,27.5c0-0.1-0.1-0.1-0.2-0.1c-0.3,0.1-0.5,0.2-0.7,0.3c-0.1,0-0.1,0.1-0.1,0.2c0,0.1,0.1,0.1,0.2,0.1
						c0.2-0.1,0.5-0.2,0.7-0.3C48,27.6,48.1,27.5,48,27.5z"/>
					<path class="st11" d="M26.8,31.2c0-0.1-0.1-0.1-0.2-0.1c-0.1,0-0.1,0.1-0.1,0.2c0,0.5,0,1,0.1,1.4c0,0.1,0.1,0.1,0.2,0.1
						c0.1,0,0.1-0.1,0.1-0.2C26.8,32.1,26.8,31.6,26.8,31.2z"/>
					<path class="st11" d="M27.7,36.5c-0.1-0.6-0.3-1.3-0.4-1.9c0-0.2-0.3-0.1-0.3,0c0.1,0.6,0.3,1.3,0.4,1.9
						C27.5,36.7,27.8,36.7,27.7,36.5z"/>
					<path class="st11" d="M27.5,33c0-0.1-0.1-0.1-0.2-0.1c-0.1,0-0.1,0.1-0.1,0.2c0,0.2,0,0.4,0,0.7c0,0.1,0.1,0.1,0.2,0.1
						c0.1,0,0.1-0.1,0.1-0.2C27.5,33.4,27.5,33.2,27.5,33z"/>
					<path class="st11" d="M29.3,29.6c0-0.1-0.1-0.2-0.1-0.2c-0.1,0-0.2,0.1-0.2,0.1c0,0.3,0,0.6,0,0.9c0,0.1,0.1,0.1,0.2,0.1
						c0.1,0,0.1-0.1,0.1-0.2C29.3,30.2,29.3,29.9,29.3,29.6z"/>
					<path class="st11" d="M31.2,31.5c0-0.1-0.1-0.1-0.2-0.1c-0.1,0-0.1,0.1-0.1,0.2c0.1,0.3,0.2,0.6,0.2,0.9c0,0.1,0.1,0.1,0.2,0.1
						c0.1,0,0.1-0.1,0.1-0.2C31.4,32.2,31.4,31.8,31.2,31.5z"/>
					<path class="st11" d="M30.8,34.3c0-0.1-0.1-0.1-0.2-0.1c-0.1,0-0.1,0.1-0.1,0.2c0.1,0.3,0.2,0.7,0.3,1c0,0.1,0.1,0.1,0.2,0.1
						c0.1,0,0.1-0.1,0.1-0.2C30.9,35,30.8,34.6,30.8,34.3z"/>
					<path class="st11" d="M33.1,45.5c0-0.2-0.3-0.2-0.3,0c0,0.6,0,1.1,0,1.7c0,0.1,0.1,0.1,0.2,0.1c0.1,0,0.1-0.1,0.1-0.2
						C33.1,46.6,33.1,46.1,33.1,45.5z"/>
					<path class="st11" d="M36.4,48.6c0-0.2-0.3-0.2-0.3,0c0,0.4-0.1,0.9,0,1.3c0,0.1,0.1,0.1,0.2,0.1c0.1,0,0.1-0.1,0.1-0.2
						C36.4,49.4,36.4,49,36.4,48.6z"/>
					<path class="st11" d="M51.3,45.3c0-0.1,0-0.2-0.1-0.2S51,45.2,51,45.2c0,0.4,0,0.8,0.1,1.2c0,0.1,0.1,0.1,0.2,0.1
						c0.1,0,0.1-0.1,0.1-0.2C51.3,46,51.2,45.7,51.3,45.3z"/>
					<path class="st11" d="M44.7,51c0,0.7,0,1.4-0.1,2.1c0,0.2,0.3,0.2,0.3,0C45,52.4,45,51.7,45,51C45,50.9,44.7,50.8,44.7,51z"/>
					<path class="st11" d="M54.4,52.6c-0.1-0.3-0.2-0.7-0.2-1c0-0.2-0.3-0.2-0.3,0c0,0.4,0,0.8,0.2,1.2c0,0.1,0.1,0.1,0.2,0.1
						C54.4,52.8,54.4,52.7,54.4,52.6z"/>
					<path class="st11" d="M73.7,33.3c-0.3,0-0.6,0.1-0.9,0.1c-0.1,0-0.1,0.1-0.1,0.2c0,0.1,0.1,0.1,0.2,0.1c0.3,0,0.6-0.1,0.9-0.1
						c0.1,0,0.1-0.1,0.1-0.2C73.9,33.4,73.8,33.3,73.7,33.3z"/>
					<path class="st11" d="M76.7,33.8c-0.5-0.2-1.1-0.3-1.6-0.4c-0.2,0-0.2,0.3,0,0.3c0.5,0.1,1,0.2,1.5,0.4
						C76.8,34.1,76.9,33.8,76.7,33.8z"/>
					<path class="st11" d="M78.7,34.6c-0.2-0.1-0.4-0.3-0.6-0.4H78c0,0-0.1,0-0.1,0.1v0.1c0,0,0,0.1,0.1,0.1l0,0l0,0c0,0,0,0,0.1,0
						l0.1,0.1c0.1,0.1,0.2,0.1,0.3,0.2c0.1,0,0.2,0,0.2,0C78.8,34.7,78.8,34.7,78.7,34.6z"/>
					<path class="st11" d="M56.5,60.1c0,0.4-0.1,0.9-0.1,1.3c0,0.2,0.3,0.2,0.3,0c0-0.4,0.1-0.9,0.1-1.3
						C56.8,60,56.5,59.9,56.5,60.1z"/>
					<path class="st11" d="M51.2,68.2c-0.1,0-0.2,0.1-0.2,0.1c0,0.5,0,1-0.1,1.5c0,0.2,0.3,0.2,0.3,0c0-0.5,0.1-1,0.1-1.5
						C51.3,68.2,51.3,68.2,51.2,68.2z"/>
					<path class="st11" d="M39.2,83.5c0-0.1-0.1-0.2-0.1-0.2c-0.1,0-0.1,0.1-0.2,0.1c-0.1,0.3-0.1,0.7,0,1.1c0,0.1,0.1,0.1,0.2,0.1
						c0.1,0,0.1-0.1,0.1-0.2C39.2,84.1,39.2,83.8,39.2,83.5z"/>
					<path class="st11" d="M36.9,89.8c-0.1,0-0.2,0.1-0.2,0.1c0,0.3,0,0.5,0,0.8c0,0.1,0.1,0.2,0.1,0.2c0.1,0,0.2-0.1,0.2-0.1
						c0-0.3,0-0.5,0-0.8C37,89.9,37,89.8,36.9,89.8z"/>
					<path class="st11" d="M36.6,101.6c0-0.1-0.1-0.1-0.2-0.1c-0.1,0-0.1,0.1-0.1,0.2c0.1,0.3,0.1,0.7,0.2,1c0,0.1,0.1,0.1,0.2,0.1
						c0.1,0,0.1-0.1,0.1-0.2C36.7,102.3,36.6,101.9,36.6,101.6z"/>
					<path class="st11" d="M40.5,99.1c0-0.1-0.1-0.1-0.2-0.1c-0.1,0-0.1,0.1-0.1,0.2c0,0.5,0,0.9,0,1.4c0,0.1,0.1,0.2,0.1,0.2
						c0.1,0,0.2-0.1,0.2-0.1C40.5,100,40.5,99.6,40.5,99.1z"/>
					<path class="st11" d="M40.8,102.2c0-0.1-0.1-0.1-0.2-0.1c-0.1,0-0.1,0.1-0.1,0.2c0,0.3,0,0.5,0,0.8c0,0.1,0.1,0.1,0.2,0.1
						c0.1,0,0.1-0.1,0.1-0.2C40.8,102.8,40.8,102.5,40.8,102.2z"/>
					<path class="st11" d="M42.1,102.8c0-0.1-0.1-0.1-0.2-0.1c-0.1,0-0.1,0.1-0.1,0.2c0.1,0.3,0.2,0.6,0.2,1c0,0.1,0.1,0.1,0.2,0.1
						c0.1,0,0.1-0.1,0.1-0.2C42.2,103.4,42.2,103.1,42.1,102.8z"/>
				</g>
			</g>
		</g>
	</g>
</g>
</svg>
