<?xml version="1.0" encoding="utf-8"?>
<!-- Generator: Adobe Illustrator 26.1.0, SVG Export Plug-In . SVG Version: 6.00 Build 0)  -->
<svg version="1.1" id="瀧_1" xmlns="http://www.w3.org/2000/svg" xmlns:xlink="http://www.w3.org/1999/xlink" x="0px" y="0px"
	 viewBox="0 0 150.5 131.4" style="enable-background:new 0 0 150.5 131.4;" xml:space="preserve">
<style type="text/css">
	.st0{clip-path:url(#SVGID_00000011735241418258257290000012537220784598224024_);}
	.st1{fill:#56443B;}
	.st2{fill:#E5C9AE;}
	.st3{fill:#755E4E;}
	.st4{fill:#44332C;}
	.st5{fill:#CCA687;}
	.st6{fill:#F2E8DD;}
	.st7{fill:#FFB6B8;}
	.st8{fill:#FFFFFF;}
	.st9{fill:#F98C7A;}
	.st10{fill:#FFC4B8;}
	.st11{fill:#AFABAA;}
	.st12{fill:#FFE7E3;}
	.st13{fill:#D1CCCB;}
	.st14{fill:#E2DDDC;}
	.st15{fill:#F7F5F5;}
	.st16{fill:#D6D1D0;}
	.st17{fill:#F4EEED;}
	.st18{fill:#F5A64E;}
	.st19{fill:#FFDCCE;}
	.st20{fill:#CEC2B7;}
	.st21{fill:#D8791A;}
	.st22{clip-path:url(#SVGID_00000134243999077643172720000002814867653078077100_);}
	.st23{clip-path:url(#SVGID_00000134243999077643172720000002814867653078077100_);fill:#FFFFFF;}
</style>
<g>
	<defs>
		<rect id="SVGID_1_" x="-241" y="-198.2" width="450" height="450"/>
	</defs>
	<clipPath id="SVGID_00000101809143659165917840000012414320685078744998_">
		<use xlink:href="#SVGID_1_"  style="overflow:visible;"/>
	</clipPath>
	<g style="clip-path:url(#SVGID_00000101809143659165917840000012414320685078744998_);">
		<path class="st1" d="M93.2,80c-0.8,0-1.5-0.4-2-1c-0.8-1.1-0.6-2.7,0.5-3.5c8.6-6.3,11.7-17.5,11.7-25.8l0-1.3
			c0-9.5,0-17.7,8.3-25.4c1-0.9,2.6-0.9,3.5,0.1c0.9,1,0.9,2.6-0.1,3.5c-6.7,6.2-6.7,12.4-6.7,21.7l0,1.4c0,5.6-1.1,11.2-3.3,16.3
			c-2.4,5.6-6,10.3-10.5,13.6C94.2,79.9,93.7,80,93.2,80z"/>
		<path class="st2" d="M99.6,65.9c-5.1-3.2-10.1-3-14.1-3.3c-0.8-0.1-1.7-0.1-2.5-0.1c-1.9-0.1-3.9-0.2-5.8-0.5
			c-3.1-0.5-5.5-1.6-7.2-3.3c-2.1-2-3-4.8-3.3-6.8c-0.4-2.1-0.4-4.1-0.3-6.3L43,59.4c1.4,0.6,2.7,1.2,3.7,2.3c1.5,1.7,1.8,4.1,2,6.7
			l1.2,17.4c0,0.1,0.5,7,0.7,14.3c2.7,0.7,5.5,0.8,8.3,0.3c0-1.1,0.1-2.2,0.1-3.2c0.1-2,0.1-3.9,0.2-5.5c0.8,0.1,1.4,0.2,1.8,0.2
			c0.3,2.6,0.6,6.1,0.6,9.6c2.8,0.4,5.8,0.6,8.6-0.2c0-0.2,0-0.4,0.1-0.6c0.2-2.6,0.5-5.1,0.6-7.3c3.7,0.7,7.2,0.9,10.4,0.8
			c0.3,1.6,0.5,3.8,0.6,6.1c2.6,1.8,5.5,2.6,8.5,2.7c0.2-2,0.3-3.8,0.5-5.2c0.3,0.8,0.5,1.5,0.8,2.2c0.4,1,0.7,1.9,1,2.9
			c3.3-0.3,6.5-1.3,9.6-2.6c0.2-2.4,0.6-4.8,1.1-7.1c2.1-8.3,1.9-14.3,1.3-17.9c-0.4-2.9-1-4.7-1.4-5.5
			C102.2,68.1,101,66.9,99.6,65.9z"/>
		<path class="st2" d="M66.5,45.7c0-0.4,0-0.9,0.1-1.3c0.1-0.6-1.4-8.7-2.3-9.4C59,31,53,29.4,44.9,29.8c-1,0.1-6.7,5.9-7.1,6.4
			c-2.5,2.7-2.9,6.2-2.8,9.7c0.3,5.4,3.7,12.1,7.8,13.5C52.2,62.5,65,56.1,66.5,45.7z"/>
		<path class="st3" d="M54,40.6c8.5,0.3,6.7,8.7,2,12.5s-11.5,5.6-14.8,3.2c-2.7-2.2-4.3-4.7-5-8.3c-1.1-4.9-0.7-12.2,5.2-11.1
			c3.6,0.7,5.4,3.1,6.4,3.4C49.2,40.8,50.8,40.7,54,40.6z"/>
		<path class="st4" d="M45,29.8c0,0-8.9-4.6-9.8-3.8c-0.8,0.8,2.7,10.1,2.7,10.1L45,29.8z"/>
		<path class="st1" d="M64.3,34.9l2.2,9.4c0,0,9.7-6.2,9.1-7.8C75,34.9,64.3,34.9,64.3,34.9z"/>
		<path class="st1" d="M92.7,117.3c0,0.1-0.1,0.3-0.1,0.4c-0.2,0.6-0.4,1.3-0.1,1.9c0.3,0.9,1.3,1.5,2.5,1.6
			c2.4,0.2,4.8-1.1,5.9-3.3c0.8-1.5,0.8-3.3,0.9-4.8c0-1.1,0-2.3,0.1-3.6c0-2.9,0.1-6.1,0.4-9.3c-3,1.4-6.3,2.4-9.6,2.6
			C93.8,106.6,94.4,110.6,92.7,117.3z"/>
		<path class="st4" d="M80.7,116.2L80.7,116.2c-0.2,0.7-0.5,1.6-0.2,2.4c0.3,0.9,1.3,1.5,2.5,1.6c0.2,0,0.3,0,0.5,0
			c2.2,0,4.4-1.3,5.4-3.3c0.8-1.5,0.8-3.3,0.9-4.8c0.1-2.4,0.3-6,0.6-9.2c-3-0.1-5.9-0.9-8.5-2.7C82.2,105.8,82,112.5,80.7,116.2z"
			/>
		<path class="st1" d="M61.6,101.5c0,0.5,0,1.1,0,1.6c0,6.2-0.5,11.2-1.4,13.9l0,0c-0.2,0.7-0.5,1.5-0.2,2.3
			c0.3,0.9,1.3,1.5,2.5,1.6c0.2,0,0.3,0,0.5,0c2.2,0,4.4-1.3,5.4-3.3c0.8-1.5,0.8-3.3,0.9-4.8c0.1-3.3,0.5-7.5,0.9-11.6
			C67.4,102.1,64.4,101.8,61.6,101.5z"/>
		<path class="st4" d="M50.6,100.1c0.2,6.4,0.1,13.1-0.6,16l0,0c-0.2,0.7-0.4,1.6-0.1,2.4c0.4,0.9,1.4,1.4,2.6,1.4c0,0,0.1,0,0.1,0
			c2.4,0,4.6-1.5,5.6-3.6c0.7-1.6,0.6-3.3,0.6-4.9c-0.1-3.1,0-7.1,0.1-11C56.1,100.9,53.3,100.8,50.6,100.1z"/>
		<g>
			<path d="M55.8,46.2c-0.3-1-1.2-1.8-2.3-2.1c-1.2-0.3-2.4,0-3.3,0.9c-0.2,0.2-0.2,0.4,0,0.6c0.2,0.2,0.4,0.2,0.6,0
				c0.6-0.6,1.6-0.9,2.5-0.6c0.8,0.2,1.5,0.8,1.7,1.5c0.1,0.2,0.2,0.3,0.4,0.3c0,0,0.1,0,0.1,0C55.8,46.6,55.9,46.4,55.8,46.2z"/>
			<path d="M41.2,41.9c0.8,0.2,1.5,0.8,1.7,1.5c0.1,0.2,0.2,0.3,0.4,0.3c0,0,0.1,0,0.1,0c0.2-0.1,0.3-0.3,0.3-0.5
				c-0.3-1-1.2-1.8-2.3-2.1c-1.2-0.3-2.4,0-3.3,0.9c-0.2,0.2-0.2,0.4,0,0.6c0.2,0.2,0.4,0.2,0.6,0C39.4,41.9,40.3,41.6,41.2,41.9z"
				/>
			<path d="M50.7,52c-1.6,1.4-3.1,1-5.4-1.5l0.3-1.2c0.8-0.4,1.9-1.5,1.8-1.8c0-0.2-0.6-0.4-1.1-0.5c-0.8-0.3-2.1-0.5-2.3-0.3
				c-0.3,0.3,0.3,1.9,0.8,2.5l-0.3,1.1c-2,0.7-3.3,0.9-3.9,0.6c-0.3-0.2-0.4-0.6-0.5-1c0-0.2-0.2-0.4-0.4-0.3
				c-0.1,0-0.2,0.1-0.3,0.1c-0.1,0.1-0.1,0.2-0.1,0.3c0.1,0.6,0.2,1.2,0.8,1.6c0.8,0.5,2.3,0.4,4.5-0.5c1.2,1.3,2.6,2.6,4.2,2.5
				c0.7,0,1.5-0.3,2.2-1c0.1-0.1,0.1-0.2,0.1-0.3c0-0.1,0-0.2-0.1-0.3C51.1,51.9,50.8,51.8,50.7,52z"/>
		</g>
		<g>
			<path class="st5" d="M58.9,90.9c0,0.2-0.2,0.4-0.5,0.4c0,0,0,0-0.1,0c-0.2,0-4.8-0.7-7.7-3.8c-0.1-0.1-0.1-0.2-0.1-0.3
				c0-0.1,0.1-0.2,0.2-0.3c0.1-0.1,0.2-0.1,0.3-0.1c0.1,0,0.2,0.1,0.3,0.2c2.6,2.9,7.1,3.5,7.1,3.5c0.1,0,0.2,0.1,0.3,0.2
				C58.9,90.7,58.9,90.8,58.9,90.9z"/>
			<path class="st5" d="M91,96.9c0,0.1-0.1,0.2-0.2,0.3c-0.1,0-0.1,0-0.2,0c-0.2,0-0.3-0.1-0.4-0.3c-0.5-1-1-2.2-1.5-3.5
				c-2.1,0.5-4.3,0.8-6.4,0.8c-0.3,0-0.5-0.2-0.5-0.5c0-0.1,0-0.2,0.1-0.3c0.1-0.1,0.2-0.1,0.3-0.1c2,0,4-0.3,6-0.8
				c-0.6-1.6-1-3-1.1-3.5c0-0.3,0.2-0.5,0.4-0.5c0.3,0,0.5,0.2,0.5,0.4c0.1,1,1.6,4.9,2.9,7.7C91,96.7,91,96.8,91,96.9z"/>
		</g>
		<g>
			<path class="st5" d="M66.8,60.1c-0.5-0.8-0.9-1.6-1.3-2.5c-0.1-0.2-0.3-0.3-0.5-0.2c-0.1,0-0.1,0.1-0.1,0.1
				c-0.2,0.1-0.3,0.3-0.2,0.5c0.2,0.6,0.5,1.1,0.7,1.7c0.2,0.4,0.5,1,1,1C66.8,60.6,66.9,60.3,66.8,60.1z"/>
			<path class="st5" d="M61.6,63.8c-0.2-0.8-0.5-1.5-1-2.2c0-0.1,0-0.1-0.1-0.1c0,0,0-0.1,0-0.1c-0.1-0.2-0.4-0.2-0.5-0.1
				c-0.2,0.1-0.2,0.3-0.1,0.5c0,0,0,0,0,0c0.1,0.9,0.3,1.9,1.1,2.4c0.1,0.1,0.3,0.1,0.4,0C61.6,64.1,61.7,64,61.6,63.8z"/>
			<path class="st5" d="M69.7,66.2c-1-0.5-1.9-1.2-2.8-1.9c-0.1-0.1-0.3-0.1-0.4,0c-0.1-0.1-0.3-0.1-0.4,0c-0.2,0.1-0.2,0.3-0.1,0.5
				c0.4,0.7,0.9,1.2,1.5,1.7c0.6,0.4,1.4,0.8,2.2,0.5C70,66.8,69.9,66.4,69.7,66.2z"/>
			<path class="st5" d="M79.1,63.9c-0.5-0.1-1.1-0.2-1.6-0.1c-0.5,0-1,0-1.5-0.1c-0.2,0-0.4,0-0.5,0.2c0,0,0,0.1,0,0.2
				c0,0-0.1,0.1-0.1,0.2c0,0.2,0.1,0.4,0.3,0.4c0.6,0.2,1.3,0.3,1.9,0.3c0.6,0,1.2,0.1,1.6-0.4C79.4,64.3,79.4,64,79.1,63.9z"/>
			<path class="st5" d="M84.9,67.8c-1.4-0.2-2.8-0.2-4.1,0c-0.2,0-0.3,0.2-0.3,0.4c-0.1,0.2-0.1,0.5,0.2,0.5
				c0.8,0.1,1.6,0.1,2.4,0.1c0.7,0,1.4,0.1,2-0.4C85.3,68.3,85.2,67.9,84.9,67.8z"/>
			<path class="st5" d="M75.7,71c-0.5-0.3-1.1-0.3-1.7-0.4c-0.6-0.1-1.2-0.3-1.7-0.6c-0.2-0.1-0.4,0-0.5,0.2c0,0,0,0,0,0
				c0,0-0.1,0.1-0.1,0.1c-0.1,0.1-0.1,0.4,0.1,0.5c1.1,0.7,2.4,1,3.7,0.8C75.8,71.6,76,71.1,75.7,71z"/>
			<path class="st5" d="M66.5,70.4c-0.8-0.9-1.7-1.8-2.5-2.7c-0.1-0.1-0.2-0.2-0.4-0.1c-0.1,0-0.1,0-0.2,0c-0.2,0.1-0.3,0.3-0.2,0.5
				c0.4,0.7,0.8,1.4,1.2,2c0.4,0.6,1.1,1.1,1.9,0.9C66.6,70.9,66.7,70.6,66.5,70.4z"/>
			<path class="st5" d="M58.8,67c-0.6-1-1.3-2.1-2-3c-0.1-0.1-0.1-0.1-0.2-0.1c-0.1,0-0.1-0.1-0.2-0.1c-0.3-0.1-0.6,0.2-0.5,0.5
				c0.2,0.8,0.5,1.5,0.8,2.2c0.2,0.4,0.4,0.7,0.7,1c0.3,0.3,0.8,0.4,1.2,0.2C58.9,67.5,58.9,67.2,58.8,67z"/>
			<path class="st5" d="M58.5,71.5c-0.1-0.2-0.1-0.4-0.2-0.6c-0.2-0.5-0.3-0.9-0.5-1.4c0,0,0-0.1,0-0.1c0-0.1-0.2-0.2-0.3-0.2
				c-0.2,0-0.4,0.1-0.4,0.3c-0.1,0.8-0.2,1.6,0.3,2.3c0.2,0.3,0.7,0.7,1,0.4C58.7,72.1,58.5,71.7,58.5,71.5z"/>
			<path class="st5" d="M67.2,76.5c0-0.2-0.2-0.4-0.4-0.6c-0.3-0.4-0.7-0.7-1-1.1c-0.1-0.1-0.2-0.1-0.3-0.1
				c-0.1-0.1-0.2-0.2-0.2-0.3c-0.1-0.1-0.3-0.2-0.4-0.1c-0.1,0.1-0.2,0.2-0.2,0.4c0.1,0.8,0.3,1.7,1,2.2c0.3,0.2,0.8,0.4,1.2,0.3
				C67.1,77,67.3,76.8,67.2,76.5z"/>
			<path class="st5" d="M74.6,76.4c-0.3-0.3-0.6-0.4-1-0.5l-1.2-0.3c-0.2-0.1-0.4,0-0.5,0.2c0,0,0,0,0,0.1c-0.1,0-0.1,0.1-0.1,0.2
				c-0.1,0.2,0,0.4,0.2,0.5c0.1,0,0.1,0,0.2,0.1c0,0,0,0,0.1,0c0,0,0.1,0,0.1,0c0.1,0.1,0.2,0.1,0.3,0.2c0.2,0.2,0.4,0.3,0.7,0.4
				c0.5,0.2,1.1,0,1.4-0.5C74.7,76.6,74.7,76.5,74.6,76.4z"/>
		</g>
		<g>
			<path class="st6" d="M55.5,77.7c-0.3-0.9-0.8-1.7-1.5-2.3c0,0-0.1,0-0.1-0.1c0,0,0-0.1,0-0.1c-0.1-0.2-0.3-0.3-0.5-0.2
				c-0.2,0.1-0.3,0.3-0.2,0.5c0.2,0.5,0.5,1.1,0.8,1.6c0.1,0.2,0.3,0.5,0.4,0.7c0.2,0.2,0.6,0.4,0.9,0.2
				C55.4,78.1,55.6,77.9,55.5,77.7z"/>
			<path class="st6" d="M66.6,84.2c-0.6-0.6-1.2-1.2-1.9-1.9c0-0.1-0.1-0.2-0.1-0.3c-0.1-0.2-0.4-0.3-0.5-0.2
				c-0.2,0.1-0.3,0.3-0.2,0.5c0,0,0,0,0,0c0,0.1,0,0.2,0.1,0.3c0,0,0,0,0.1,0.1c0.2,0.5,0.5,1.1,0.8,1.6c0.2,0.3,0.4,0.6,0.8,0.7
				c0.4,0.1,0.8-0.1,1-0.4C66.7,84.5,66.7,84.3,66.6,84.2z"/>
			<path class="st6" d="M64.4,90c0-0.1,0-0.3,0-0.4c0-0.2-0.1-0.3-0.3-0.3c-0.3-0.3-0.9,0-0.7,0.5c0.1,0.2,0.1,0.3,0.2,0.5
				c0.1,0.6,0.1,1.1,0.2,1.7c0,0.3,0,0.7,0.1,1c0.1,0.4,0.4,0.7,0.8,0.5c0.1-0.1,0.2-0.2,0.2-0.3C64.9,92,64.7,91,64.4,90z"/>
			<path class="st6" d="M68,94c-0.1-0.2-0.4-0.3-0.5-0.2c-0.2,0.1-0.3,0.3-0.2,0.5c0,0-0.1,0.1-0.1,0.1c-0.3,1.1-0.1,2.2,0.4,3.1
				c0.2,0.4,0.7,0.3,0.8-0.1C68.5,96.3,68.4,95.2,68,94z"/>
			<path class="st6" d="M77,67.9c-0.3-0.4-0.8-0.7-1.3-0.8c-0.2-0.1-0.5-0.1-0.7-0.2c-0.1,0-0.1,0-0.2-0.1c0,0,0,0,0,0c0,0,0,0,0,0
				c0,0-0.1,0-0.1,0c-0.1,0-0.1-0.1-0.1-0.1c0,0,0,0,0,0c0,0,0,0,0,0c-0.1-0.2-0.4-0.2-0.6-0.1c-0.1,0.1-0.1,0.1-0.1,0.2
				c0,0,0,0,0,0c-0.1,0.2-0.1,0.4,0.1,0.6c0.8,0.6,1.7,1.1,2.7,1.3c0.2,0,0.3-0.1,0.4-0.2C77.1,68.2,77.1,68,77,67.9z"/>
			<path class="st6" d="M95.5,66.2c-1.4-0.7-2.9-1.2-4.4-1.2c-0.3,0-0.5,0.3-0.4,0.6c0,0.2,0,0.4,0.3,0.5c0.8,0.2,1.6,0.4,2.4,0.6
				c0.4,0.1,0.8,0.2,1.2,0.3c0.4,0.1,0.7,0.1,1.1-0.1C95.7,66.7,95.8,66.4,95.5,66.2z"/>
			<path class="st6" d="M92.6,74.5c-1.5-1-3.2-1.5-5-1.4c-0.2,0-0.3,0.2-0.3,0.4C87,73.6,87,74,87.4,74.1c1.6,0.6,3.3,0.9,4.9,1.2
				C92.7,75.3,92.9,74.7,92.6,74.5z"/>
			<path class="st6" d="M83.2,75.9c-0.3-0.6-1-0.9-1.6-0.9c-0.7-0.1-1.5-0.1-2.2-0.1c0,0-0.1,0-0.1,0c-0.2-0.1-0.5,0-0.5,0.2
				c0,0,0,0.1,0,0.1c0,0.1,0,0.1,0,0.2c0,0.2,0.3,0.4,0.5,0.3c0,0,0.1,0,0.1,0c1.1,0.3,2.3,0.6,3.5,0.8
				C83.1,76.5,83.3,76.2,83.2,75.9z"/>
			<path class="st6" d="M80.2,82.2c-1.1-0.8-2.5-1.1-3.9-0.9c-0.2,0-0.3,0.1-0.3,0.3c0,0-0.1,0.1-0.1,0.2c-0.1,0.2,0,0.4,0.2,0.5
				c1.2,0.6,2.5,0.8,3.9,0.7C80.4,82.9,80.4,82.4,80.2,82.2z"/>
			<path class="st6" d="M94.1,81c-0.1-0.3-0.3-0.5-0.5-0.7c-0.2-0.2-0.4-0.3-0.7-0.5c-0.4-0.3-1.7-1.2-1.9-1.1
				c-0.1,0.1-0.2,0.2-0.2,0.3c0,0,0,0,0,0.1c-0.1,0.2,1.3,1.9,2,2.3c0.3,0.2,0.6,0.4,0.9,0.3C94,81.7,94.1,81.3,94.1,81z"/>
			<path class="st6" d="M100.8,75.1c-0.1-0.3-0.3-0.5-0.5-0.8c-0.4-0.5-0.8-1.1-1.3-1.6c-0.2-0.2-0.4-0.2-0.6-0.1c0,0,0,0,0,0
				c-0.2,0-0.3,0.1-0.3,0.4c0,1.1,0.4,2.1,1.3,2.8c0.2,0.2,0.4,0.3,0.7,0.4c0.3,0.1,0.7,0,0.8-0.4C101,75.7,100.9,75.4,100.8,75.1z"
				/>
			<path class="st6" d="M99.1,81.9c0-0.1-0.1-0.2-0.1-0.2c0,0,0,0,0,0c-0.1-0.2-0.3-0.3-0.5-0.2c-0.2,0.1-0.3,0.4-0.2,0.5
				c0,0,0,0.1,0.1,0.1c-0.1,1.3-0.1,2.8,0.8,3.8c0.2,0.3,0.7,0.1,0.7-0.2C100,84.4,99.7,83,99.1,81.9z"/>
		</g>
		<g>
			<path class="st5" d="M55.9,33.2C55.8,33,55.6,33,55.4,33c-0.8,0.3-1.4,0.8-2,1.4c0,0-0.1,0.1-0.1,0.2c-0.1,0.1-0.2,0.3-0.1,0.4
				c0.1,0.2,0.3,0.3,0.5,0.2c0.7-0.4,1.4-0.9,2-1.5C56,33.6,56,33.4,55.9,33.2z"/>
			<path class="st5" d="M47.7,33c-0.1-0.4-0.3-0.9-0.5-1.3c-0.1-0.2-0.2-0.4-0.4-0.6c-0.1-0.1-0.1-0.2-0.2-0.3
				c-0.2-0.1-0.4-0.1-0.6-0.1c-0.2,0.1-0.3,0.3-0.2,0.4c0.1,0.8,0.5,1.6,1.1,2.2c0.2,0.2,0.4,0.2,0.6,0.1c0,0,0,0,0,0
				C47.6,33.4,47.7,33.2,47.7,33z"/>
			<path class="st5" d="M53,30.9c-0.2-0.1-0.3-0.1-0.5,0c-0.5,0.4-0.7,1-0.7,1.6c0,0.2,0.2,0.4,0.4,0.5c0,0,0,0,0,0
				c0.1,0,0.1,0,0.2,0c0.1,0,0.2-0.1,0.3-0.2c0.1-0.2,0.3-0.5,0.3-0.8c0.1-0.3,0.1-0.5,0.2-0.8C53.2,31.1,53.1,31,53,30.9z"/>
			<path class="st5" d="M62.8,37.2c-0.4-0.3-0.8-0.4-1.3-0.3c-0.5,0-0.9,0.2-1.3,0.3c-0.2,0.1-0.3,0.4-0.2,0.5c0,0,0,0,0.1,0.1
				c0,0.2,0.2,0.4,0.4,0.4c0.7,0,1.5,0,2.2-0.2c0.2,0,0.3-0.1,0.3-0.3C63,37.4,62.9,37.3,62.8,37.2z"/>
		</g>
		<g>
			<path class="st6" d="M50.7,33.6c0-0.2-0.2-0.3-0.4-0.3c-0.2,0-0.4,0.1-0.4,0.3c-0.2,0.6-0.4,1.2-0.5,1.8c0,0.1,0,0.3,0.1,0.4
				c0,0.1,0.1,0.2,0.2,0.3c0.2,0.1,0.4,0.1,0.6-0.1C50.6,35.2,50.8,34.4,50.7,33.6z"/>
			<path class="st6" d="M61,34.3c-0.4-0.5-1-0.4-1.6-0.2c-0.6,0.2-1.2,0.5-1.7,0.7c-0.2,0.1-0.3,0.3-0.2,0.5c0,0,0,0.1,0.1,0.1
				c0,0,0,0,0,0.1c0,0.2,0.3,0.4,0.5,0.3c1-0.1,2.1-0.3,2.9-1C61.1,34.7,61.1,34.5,61,34.3z"/>
			<path class="st6" d="M49.5,31.8C49.5,31.8,49.5,31.8,49.5,31.8c0-0.4,0-0.7,0.1-1.1c0-0.2-0.1-0.4-0.3-0.4
				c-0.2,0-0.4,0.1-0.5,0.3c-0.2,0.4-0.2,0.9-0.1,1.3c0,0.1,0,0.2,0,0.3c0,0.2,0.1,0.4,0.4,0.5c0.2,0,0.4-0.1,0.5-0.4c0,0,0,0,0,0
				c0,0,0-0.1,0-0.1C49.6,32,49.6,31.9,49.5,31.8C49.5,31.8,49.5,31.8,49.5,31.8z"/>
		</g>
		<path class="st7" d="M66,38c0,0,8-1.9,8.4-1.2c0.4,0.7-7.1,5.8-7.1,5.8L66,38z"/>
		<path class="st7" d="M35.7,26.9c0.5-0.2,4.9,5.6,4.9,5.6l-2.2,2.1C38.4,34.7,35.2,27.1,35.7,26.9z"/>
		<g>
			<path class="st8" d="M57.1,48.7c-2.6-0.4-5.3-0.7-7.9-0.8c-0.2,0-0.2,0.3,0,0.3c2.7,0.1,5.3,0.4,7.9,0.8
				C57.3,49,57.3,48.7,57.1,48.7z"/>
			<path class="st8" d="M57.5,50.9c-2.4-0.6-4.8-1.2-7.2-1.8c-0.2,0-0.3,0.2-0.1,0.3c2.4,0.6,4.8,1.2,7.2,1.8
				C57.6,51.2,57.7,50.9,57.5,50.9z"/>
			<path class="st8" d="M54.4,52.7c-1.8-1.2-3.7-2.3-5.7-3.2c-0.2-0.1-0.3,0.2-0.1,0.3c2,0.9,3.8,2,5.6,3.2
				C54.4,53,54.5,52.8,54.4,52.7z"/>
			<path class="st8" d="M43.5,47.1c-1-0.7-2.1-1.4-3.1-2c-0.5-0.3-1-0.6-1.5-0.8c-0.5-0.2-1.1-0.4-1.7-0.6c-0.2-0.1-0.3,0.2-0.1,0.3
				c0.5,0.2,1.1,0.3,1.6,0.6c0.5,0.2,1,0.5,1.5,0.8c1,0.7,2,1.3,3,2C43.5,47.4,43.6,47.2,43.5,47.1z"/>
			<path class="st8" d="M42.5,47.6c-1.9-0.7-3.8-1.2-5.8-1.5c-0.2,0-0.2,0.2,0,0.3c1.9,0.3,3.9,0.8,5.7,1.5
				C42.6,48,42.7,47.7,42.5,47.6z"/>
			<path class="st8" d="M42.8,49c-1.8-0.7-3.8-0.9-5.7-0.8c-0.2,0-0.1,0.3,0,0.3c1.9-0.2,3.8,0.1,5.5,0.7C42.9,49.3,43,49.1,42.8,49
				z"/>
			<path class="st8" d="M40.8,36.5c-0.1-0.2-0.3-0.1-0.3,0.1c0.3,0.8,0.5,1.6,0.5,2.5c0,0.2,0.3,0.1,0.3,0
				C41.2,38.2,41.1,37.3,40.8,36.5z"/>
			<path class="st8" d="M42.4,38c0,0.5-0.1,1-0.1,1.4c0,0.2,0.3,0.2,0.3,0c0-0.5,0.1-1,0.1-1.4C42.7,37.9,42.4,37.8,42.4,38z"/>
			<path class="st8" d="M53.1,40.1c-0.1,0-0.2,0.1-0.2,0.1c0,0.7-0.1,1.4-0.4,2.1c-0.1,0.2,0.2,0.3,0.3,0.1c0.3-0.7,0.4-1.4,0.4-2.2
				C53.2,40.2,53.2,40.1,53.1,40.1z"/>
			<path class="st8" d="M54.2,41.3c-0.1,0.4-0.3,0.8-0.5,1.1c0,0.1,0,0.1,0,0.2c0.1,0,0.2,0,0.2,0c0.2-0.4,0.4-0.8,0.5-1.2
				C54.6,41.2,54.3,41.1,54.2,41.3z"/>
			<path class="st8" d="M59.1,32.7c-0.7-0.3-1.4-0.7-2.1-1c-0.2-0.1-0.3,0.2-0.1,0.3c0.7,0.3,1.4,0.7,2.1,1
				C59.1,33.1,59.2,32.8,59.1,32.7z"/>
			<path class="st8" d="M61.9,33.8c-0.5-0.3-1-0.6-1.5-0.8c-0.2-0.1-0.3,0.2-0.1,0.3c0.5,0.2,1,0.5,1.4,0.7
				C61.9,34.2,62.1,33.9,61.9,33.8z"/>
			<path class="st8" d="M67.6,35.7c-0.5-0.1-1-0.1-1.5-0.2c-0.2,0-0.2,0.3,0,0.3c0.5,0.1,1,0.1,1.5,0.2C67.7,36,67.8,35.7,67.6,35.7
				z"/>
			<path class="st8" d="M41.8,29c-0.4-0.3-0.8-0.6-1.2-0.9c-0.1,0-0.2,0-0.2,0c0,0.1,0,0.1,0,0.2c0.4,0.3,0.8,0.6,1.2,0.9
				c0.1,0,0.1,0,0.2,0C41.9,29.1,41.9,29,41.8,29z"/>
			<path class="st8" d="M65.9,52.3c0-0.2-0.3-0.1-0.3,0c0.1,0.6,0.2,1.3,0.3,1.9c0,0.2,0.3,0.1,0.3,0C66.2,53.6,66,52.9,65.9,52.3z"
				/>
			<path class="st8" d="M68.2,58.4c-0.4-0.5-0.6-1-0.7-1.6c0-0.2-0.3-0.1-0.3,0c0.1,0.6,0.4,1.2,0.8,1.8
				C68,58.7,68.3,58.5,68.2,58.4z"/>
			<path class="st8" d="M71.5,61.4c-0.5-0.3-0.9-0.6-1.2-1c-0.1-0.1-0.3,0-0.2,0.2c0.4,0.4,0.8,0.8,1.3,1c0.1,0,0.1,0,0.2,0
				C71.5,61.6,71.5,61.5,71.5,61.4z"/>
			<path class="st8" d="M68.9,61.1c-0.4-0.2-0.7-0.6-0.9-1c-0.1-0.2-0.3,0-0.3,0.1c0.2,0.5,0.6,0.9,1,1.1c0.1,0,0.1,0,0.2,0
				C69,61.2,68.9,61.1,68.9,61.1z"/>
			<path class="st8" d="M73.9,64.8c-0.6-0.3-1.3-0.6-1.8-1c-0.1-0.1-0.3,0.1-0.2,0.2c0.6,0.4,1.2,0.7,1.9,1
				C74,65.1,74.1,64.8,73.9,64.8z"/>
			<path class="st8" d="M84.4,63.4h-1.8c-0.2,0-0.2,0.3,0,0.3h1.8C84.5,63.7,84.6,63.4,84.4,63.4z"/>
			<path class="st8" d="M87.9,65.4c-0.7,0-1.4,0-2.1-0.1c-0.2,0-0.2,0.3,0,0.3c0.7,0,1.4,0,2.1,0.1C88.1,65.6,88.1,65.4,87.9,65.4z"
				/>
			<path class="st8" d="M79.1,70.1c-0.5,0.1-1.1,0-1.6-0.2c-0.2-0.1-0.3,0.2-0.1,0.3c0.5,0.2,1.1,0.3,1.7,0.2
				C79.3,70.3,79.3,70.1,79.1,70.1z"/>
			<path class="st8" d="M88.6,71.3c-0.7,0-1.5-0.1-2.2-0.1c-0.2,0-0.2,0.3,0,0.3c0.7,0,1.5,0.1,2.2,0.1
				C88.8,71.6,88.8,71.3,88.6,71.3z"/>
			<path class="st8" d="M65,65.4c-0.3-0.4-0.4-0.8-0.5-1.3c0-0.2-0.3-0.1-0.3,0c0.1,0.5,0.3,1,0.6,1.4c0,0.1,0.1,0.1,0.2,0
				C65.1,65.5,65.1,65.4,65,65.4z"/>
			<path class="st8" d="M60.9,56.9c0-0.1-0.1-0.1-0.2-0.1c-0.1,0-0.1,0.1-0.1,0.2c0.1,0.3,0.1,0.6,0.2,1c0,0.1,0.1,0.1,0.2,0.1
				c0.1,0,0.1-0.1,0.1-0.2C61,57.6,60.9,57.3,60.9,56.9z"/>
			<path class="st8" d="M70.4,73.7c-0.4-0.3-0.8-0.6-1.3-0.8c-0.1,0-0.2,0-0.2,0.1c0,0.1,0,0.1,0.1,0.2c0.4,0.2,0.8,0.4,1.2,0.7
				C70.4,74.1,70.5,73.8,70.4,73.7z"/>
			<path class="st8" d="M70.4,79.8c-0.5-0.4-1-0.9-1.4-1.4c-0.1-0.1-0.3,0-0.2,0.2c0.5,0.5,1,1,1.5,1.4c0.1,0,0.2,0,0.2,0
				C70.5,80,70.5,79.9,70.4,79.8z"/>
			<path class="st8" d="M82.1,79.8c-1.1-0.2-2.1-0.4-3.1-0.7c-0.2-0.1-0.3,0.2-0.1,0.3c1,0.3,2.1,0.6,3.2,0.7
				C82.3,80.1,82.3,79.8,82.1,79.8z"/>
			<path class="st8" d="M97.5,77.6c-0.5-0.4-0.9-0.9-1.3-1.5c0-0.1-0.1-0.1-0.2,0c-0.1,0.1-0.1,0.1,0,0.2c0.4,0.6,0.8,1.1,1.3,1.5
				c0.1,0.1,0.2,0,0.2,0C97.6,77.7,97.6,77.6,97.5,77.6z"/>
		</g>
	</g>
	<g style="clip-path:url(#SVGID_00000101809143659165917840000012414320685078744998_);">
		<g>
			<g>
				<path class="st9" d="M291.2-185.5c2.6,0.7,5.6,1.1,8.6,0.7c2.1-0.3,3.6-1,4.6-2.1c1.1-1.2,1.1-4-0.6-5.7c-0.1-0.1-0.3-0.1-0.5,0
					c-0.1,0.1-0.1,0.3,0,0.5c1.2,1.3,1.5,3.8,0.5,4.8c-0.9,1-2.3,1.7-4.2,1.9c-4.1,0.6-8.1-0.5-11.2-1.6
					c-10.7-3.6-20.6-10.7-27.9-19.7c-0.1-0.1-0.3-0.2-0.5-0.1c-0.1,0.1-0.2,0.3-0.1,0.5c7.4,9.2,17.4,16.3,28.2,20
					C289.2-186.1,290.2-185.8,291.2-185.5z"/>
			</g>
			<g>
				<path class="st9" d="M297-181.4c0.9,0.2,1.9,0.3,2.8,0.1c0.7-0.2,1.3-1,1.7-2.1c0.3-0.9,0.4-2.2-0.3-3c-0.1-0.1-0.3-0.2-0.5-0.1
					c-0.1,0.1-0.2,0.3-0.1,0.5c0.4,0.5,0.5,1.4,0.2,2.4c-0.3,0.8-0.8,1.5-1.2,1.6c-1.3,0.4-2.6-0.1-3.8-0.5
					c-9.4-3.5-17.7-9.4-24.1-17.1c-1.5-1.8-2.9-3.9-4.5-6.4l-0.7-1.1c-0.1-0.2-0.3-0.2-0.5-0.1c-0.2,0.1-0.2,0.3-0.1,0.5l0.7,1.1
					c1.7,2.5,3.1,4.6,4.6,6.4c6.5,7.8,14.9,13.8,24.4,17.3C296-181.7,296.5-181.6,297-181.4z"/>
			</g>
			<g>
				<path class="st9" d="M292.7-207.6C292.8-207.6,292.8-207.6,292.7-207.6c0.2,0,0.4-0.1,0.4-0.3c0.2-2.6-0.7-5.2-2.5-7.1
					c-1.7-1.9-4.3-3-6.9-3c-1.1,0-2.2,0.2-3.3,0.4c-1.6,0.3-3.2,0.5-4.7,0.2c-1.4-0.3-2.6-1.2-3.8-2c-0.4-0.2-0.7-0.5-1.1-0.7
					c-1.7-1.1-6.2-1-8.1-0.4c-0.2,0.1-0.3,0.2-0.2,0.4c0.1,0.2,0.2,0.3,0.4,0.2c1.7-0.6,6-0.7,7.5,0.3c0.4,0.2,0.7,0.5,1.1,0.7
					c1.2,0.9,2.5,1.7,4,2.1c1.6,0.4,3.3,0.1,4.9-0.2c1-0.2,2.1-0.4,3.2-0.4c2.4,0,4.8,1.1,6.4,2.8c1.6,1.8,2.5,4.2,2.3,6.6
					C292.5-207.8,292.6-207.7,292.7-207.6z"/>
			</g>
		</g>
		<g>
			<path class="st8" d="M249.7-194.1c-1.3-0.6-2.6-1.1-3.9-1.6c-4-1.6-5.3-1.8-7-3.3c-1.8-1.6-1.7-5.6,1.4-5.6c1.3,0,2.4,0.7,4,1.3
				L249.7-194.1z"/>
		</g>
		<path class="st8" d="M274-224.2c-6.1-2.6-7.6-11.5-6.3-15c-2-1.8-5.2-6.3-4.7-7s5.7-0.1,7.8,1.1c3.7-3,7.8-3.7,12.4-3.2
			c0,0,6.2-7.1,7.4-6.8c1.2,0.3,1.1,10.5,1.1,10.5c4.3,4.4,3.7,10.6,5.3,16.5c1.6,6.1,5.2,11.4,7.1,17.4c3.2,10.4,0.5,22.4-6.8,30.5
			c-7.3,8.1-19,11.7-29.7,9.7c-12.6-2.3-19.5-10.8-26.2-17c-3.2-2.9-4.3-3.6-5.3-5.5c-1.1-2.2,0.4-5.8,3.3-4.7
			c1.5,0.6,2.3,1.9,4.1,3.3c3.8,2.9,8.1,4.7,12.8,4.9L274-224.2z"/>
		<path class="st8" d="M274.3-170.1c-15.4,7.8-32.9-0.5-38.6-3.9c-5.8-3.4-10.7-8.4-13.4-14.5c-2.7-6.1-3-13.4-0.2-19.5
			c1-2.2,2.5-4.2,4.5-5.5c2.1-1.2,4.8-1.5,6.8-0.2c2,1.2,3,3.7,3,6c0.1,2.3-0.6,4.6-1.3,6.9s-1.4,4.5-1.4,6.9
			c0.1,3.9,2.2,7.4,4.7,10.4c7,8.2,16.8,13.6,27.3,12.4L274.3-170.1z"/>
		<path class="st10" d="M290.1-253.8c0.6,0.2,0.6,7.8,0.1,8.1c-0.5,0.3-4.3-1-4.4-1.8C285.7-248.4,289.6-254,290.1-253.8z"/>
		<path class="st10" d="M263.4-245.8c0.3-0.3,5.4,2.3,5.5,3.1c0.1,0.7-0.7,2.6-1,2.5C267.5-240.3,263.1-245.5,263.4-245.8z"/>
		<g>
			<path class="st11" d="M279.3-236.8c0,0-0.1,0-0.1,0c-1-0.3-1.7-1.2-1.6-2.3c0-0.2,0.2-0.4,0.4-0.4c0.2,0,0.4,0.2,0.4,0.4
				c0,0.8,0.4,1.4,1.1,1.5c0.9,0.2,2.1-0.3,2.6-1.7c0.1-0.2,0.3-0.3,0.5-0.2c0.2,0.1,0.3,0.3,0.2,0.5
				C282.2-237.2,280.5-236.6,279.3-236.8z"/>
			<path class="st11" d="M268.9-238c0.2,0,0.4,0.1,0.5,0.3c0.1,0.7,0.6,1.1,1.3,1.1c0.7-0.1,1.5-0.6,1.5-1.6c0-0.2,0.2-0.4,0.4-0.4
				c0.2,0,0.4,0.2,0.4,0.4c-0.1,1.4-1.2,2.3-2.3,2.4c-0.2,0-0.5,0-0.7-0.1c-0.7-0.2-1.3-0.8-1.4-1.6
				C268.6-237.8,268.7-238,268.9-238z"/>
			<path class="st11" d="M270.6-230.6c0.2-0.1,0.4-0.1,0.6,0.1c0.5,0.6,1.1,1,1.7,0.9c0.5-0.1,1-0.5,1.4-1.2l-0.2-2
				c0-0.2,0.1-0.4,0.3-0.4c0.2,0,0.4,0.1,0.4,0.3l0.2,1.9c0.9,0.9,1.9,1.4,2.8,1.3c0.6-0.1,1.2-0.4,1.6-1c0.1-0.2,0.4-0.2,0.6-0.1
				c0.2,0.1,0.2,0.4,0.1,0.6c-0.6,0.8-1.3,1.3-2.2,1.4c-1,0.1-2.1-0.4-3.1-1.3c-0.6,1-1.3,1.2-1.8,1.3c-0.3,0-0.5,0-0.8-0.1
				c-0.6-0.2-1.2-0.6-1.6-1.1C270.4-230.2,270.5-230.5,270.6-230.6z"/>
		</g>
		<g>
			<path class="st7" d="M272.2-234.6c0.2-0.4,3.6-0.8,3.8-0.5c0.2,0.3-1,2.7-1.6,2.8C273.9-232.1,272-234.2,272.2-234.6z"/>
		</g>
		<g>
			
				<ellipse transform="matrix(0.909 -0.4168 0.4168 0.909 109.186 89.2787)" class="st10" cx="259" cy="-205.4" rx="17.3" ry="17.3"/>
			<g>
				<path class="st9" d="M250.4-197c-0.5,1.9-0.7,3.8-0.6,5.8c0,0.2,0.2,0.3,0.3,0.3c0.2,0,0.3-0.2,0.3-0.3c-0.1-0.9,0-1.7,0-2.6
					c2.2,1.9,5.3,3.1,8.9,3.4c3,0.3,6.1-0.1,8.4-1.1c0,0,0,0.1,0,0.1c-0.1,0.2,0,0.3,0.1,0.4c0.2,0.1,0.3,0,0.4-0.1
					c0.6-1.1,1.2-2.2,1.5-3.3c0,0,0-0.1,0-0.1c0.3-1,0.5-1.9,0.7-2.9c0,0,0-0.1,0-0.1c0.1-1.1,0.1-2.1,0-3.2c0,0,0,0,0-0.1
					c-0.1-0.6-0.2-1.2-0.3-1.8c-0.8-3.4-2.6-6.7-5.4-9.5c1.1-0.4,2.3-0.6,3.3-0.6c5,4,6,13.3,3.3,18c-0.1,0.2,0,0.3,0.1,0.4
					c0.2,0.1,0.3,0,0.4-0.1c1.4-2.4,1.9-6,1.4-9.6c-0.5-3.6-2.1-6.7-4.2-8.7c1,0.1,1.9,0.2,2.8,0.6c0,0,0,0.1,0,0.1
					c2.4,3.4,3.4,6.8,3.1,10.5c0,0.2,0.1,0.3,0.3,0.3c0.2,0,0.3-0.1,0.3-0.3c0.3-3.6-0.5-6.9-2.7-10.2c0.6,0.3,1.2,0.7,1.8,1.2
					c0.1,0.1,0.3,0.1,0.4,0c0.1-0.1,0.1-0.3,0-0.4c-1.9-1.6-4.3-2.4-6.8-2.4c-0.1,0-0.1,0-0.2,0c-1.9,0.1-4,0.6-6.1,1.6
					c-3.3,1.7-6.6,4.6-9,8.4c0,0,0,0,0,0c0,0,0,0,0,0C251.9-201.2,251-199.2,250.4-197z M269.9-197.7c-5.7,2.1-12.2,1-17.4-3
					c0.3-0.6,0.7-1.3,1-1.9c0.1,0,0.1,0.1,0.2,0.1c3.3,2,9.3,5.6,16.2,2.2C270-199.4,270-198.6,269.9-197.7z M267.2-208.1
					c-1.6,0.6-4.3,2.2-6.6,4.9c0,0,0,0,0,0c0,0,0,0.1-0.1,0.1c-0.6,0.7-1.2,1.6-1.7,2.5c-0.7-0.3-1.4-0.6-2.1-0.9c0,0,0,0,0-0.1
					c1.9-3.8,5.2-6.7,9.3-8.1C266.4-209.2,266.8-208.7,267.2-208.1z M262.8-199.5c-0.2-1-0.6-2.2-1.7-3.3c0.6-0.6,1.1-1.2,1.7-1.7
					c1,1.6,1.7,3.4,1.9,5.1C264.1-199.5,263.5-199.5,262.8-199.5z M259.3-200.3c0.4-0.7,0.9-1.4,1.4-2.1c0.8,0.9,1.2,1.9,1.4,2.8
					C261.2-199.8,260.2-200,259.3-200.3z M265-206.2c1.4,2.1,2.2,4.2,2.5,6.2c-0.7,0.2-1.4,0.3-2.1,0.4c-0.2-1.8-0.9-3.8-2-5.5
					C263.9-205.5,264.5-205.9,265-206.2z M264.2-211.7c0.5,0.5,0.9,1,1.4,1.5c-4.1,1.5-7.5,4.5-9.4,8.4c0,0,0,0,0,0.1c0,0,0,0,0,0
					c-0.8-0.4-1.5-0.8-2.1-1.2c-0.1,0-0.1-0.1-0.2-0.1c2.3-3.5,5.4-6.3,8.6-7.9C263-211.3,263.6-211.5,264.2-211.7
					C264.2-211.7,264.2-211.7,264.2-211.7z M269.9-200.9c-0.6,0.3-1.2,0.5-1.7,0.7c-0.3-2.1-1.2-4.3-2.6-6.4c0.7-0.4,1.4-0.8,2-1
					C268.7-205.5,269.6-203.3,269.9-200.9z M269.3-194.8c-5.5,2.4-12.1,1.4-18.1-2.8c0.3-0.9,0.6-1.7,1-2.5
					c5.3,3.9,11.8,5.1,17.6,3.1C269.7-196.3,269.5-195.5,269.3-194.8z M251.1-197c5.9,4.1,12.4,5.2,18,3c-0.2,0.5-0.4,1-0.7,1.5
					c-4.7,2.5-13.2,2.1-17.8-2.1C250.7-195.4,250.8-196.2,251.1-197z"/>
				<path class="st9" d="M258-212.9c5.6-3.6,11.3-3.9,15.9-0.9c0.1,0.1,0.2,0.3,0.1,0.4c-0.1,0.1-0.3,0.2-0.4,0.1
					c-4.3-2.9-9.8-2.6-15.2,0.9c-7,4.5-11.5,12.8-10.4,19.2c0,0.2-0.1,0.3-0.3,0.4c-0.2,0-0.3-0.1-0.4-0.3c-0.3-1.9-0.2-4,0.4-6.1
					C249.1-204.3,252.9-209.6,258-212.9z"/>
				<path class="st9" d="M256.3-222.2c-0.2,0-0.3,0.1-0.3,0.2c0,0,0,0,0,0.1c0,0.2,0.1,0.3,0.3,0.3c3.3,0.2,6.5,1.3,8.9,3
					c-1.3,0-2.5,0.2-3.8,0.6c0,0,0,0,0,0c-4.4-2.2-7.6-2.9-10.3-2.4c-0.1,0-0.2,0.1-0.3,0.2c0,0,0,0.1,0,0.1c0,0.2,0.2,0.3,0.4,0.3
					c2.5-0.4,5.3,0.2,9.3,2.1c-0.9,0.3-1.8,0.6-2.6,1c0,0,0,0,0,0c-1.1-0.5-2.2-0.8-3.3-1.1c0,0-0.1,0-0.1,0c-2.5-0.6-5-0.6-7,0.1
					c-0.1,0-0.2,0.1-0.2,0.2c0,0.1,0,0.1,0,0.2c0.1,0.2,0.2,0.3,0.4,0.2c0.5-0.2,1-0.3,1.6-0.3c-1.4,0.9-2.6,2.1-3.3,3.4
					c-0.1-0.2-0.1-0.5-0.1-0.7c0-0.2-0.2-0.3-0.4-0.3c-0.1,0-0.2,0.1-0.3,0.2c0,0,0,0.1,0,0.1c0.4,2.3,1.4,4.6,3,6.8
					c-0.4,0.7-0.8,1.4-1.2,2.2c-1.5-2.2-2.4-4.6-2.5-6.9c0-0.2-0.2-0.3-0.3-0.3c-0.1,0-0.3,0.1-0.3,0.2c0,0,0,0.1,0,0.1
					c0.1,2.5,1.1,5.1,2.8,7.5c0,0,0,0,0,0c-0.4,0.9-0.7,1.8-0.9,2.7c-1.7-2.5-2.6-4.6-2.7-6.4c0-0.2-0.2-0.3-0.3-0.3
					c-0.1,0-0.3,0.1-0.3,0.2c0,0,0,0.1,0,0.1c0.1,2,1.1,4.3,3.1,7.1c0,0,0,0,0.1,0.1c-0.5,2.2-0.5,4.5,0,6.5c0,0.2,0.2,0.3,0.4,0.2
					c0.2,0,0.3-0.2,0.2-0.4c-1.3-5.5,1.2-12.1,6.4-17c5.3-5,12.1-6.8,18-4.9c0.2,0.1,0.3,0,0.4-0.2c0.1-0.2,0-0.3-0.2-0.4
					c-1.5-0.5-3-0.7-4.5-0.7c0,0,0,0,0,0C263.6-220.7,260-222,256.3-222.2z M250.7-217.7c0.9,0,1.7,0.1,2.6,0.2
					c-2.7,1.3-4.9,3.2-6.6,6c-0.3-0.6-0.5-1.2-0.7-1.8C246.8-215,248.7-216.8,250.7-217.7z M257-216.4c-1.8,0.9-3.5,2.1-5,3.6
					c-1.4,1.3-2.6,2.7-3.6,4.2c-0.5-0.7-1-1.4-1.4-2.2c1.8-3.1,4.2-5.3,7.3-6.5C255.3-217,256.2-216.7,257-216.4z"/>
			</g>
			<g>
				<path class="st12" d="M259-189.2c-0.6,0-1.2-0.1-1.9-0.1c-0.1,0-0.1-0.2,0-0.2c0.6,0.1,1.2,0.1,1.8,0.1
					C259.1-189.4,259.1-189.2,259-189.2z"/>
				<path class="st12" d="M254.4-190.5c0.1,0,0.1,0.1,0.1,0.1c0,0.1-0.1,0.1-0.1,0.1c-0.4-0.1-0.8-0.3-1.2-0.4
					c-0.1,0-0.1-0.1-0.1-0.1c0-0.1,0.1-0.1,0.1-0.1C253.5-190.8,253.9-190.7,254.4-190.5z"/>
				<path class="st12" d="M265.3-194.7c-0.7,0.1-1.4,0-2.1-0.2c-0.1,0-0.1-0.2,0-0.2c0.7,0.2,1.4,0.2,2.1,0.2
					C265.4-194.9,265.5-194.7,265.3-194.7z"/>
				<path class="st12" d="M260.5-195.3l-1.7-0.5c-0.1,0-0.1-0.2,0-0.2l1.7,0.5C260.7-195.5,260.7-195.3,260.5-195.3z"/>
				<path class="st12" d="M261.9-194.2l-1.4-0.4c-0.1,0-0.1-0.2,0-0.2l1.4,0.4C262-194.4,262-194.2,261.9-194.2z"/>
				<path class="st12" d="M263.5-210.7c-1,0.6-2,1.2-2.9,2c-0.1,0.1-0.2-0.1-0.1-0.2c0.9-0.8,1.9-1.4,2.9-2
					C263.5-210.9,263.6-210.7,263.5-210.7z"/>
				<path class="st12" d="M258.7-207.2c-0.5,0.4-0.9,0.8-1.3,1.3c-0.1,0.1-0.2,0-0.2-0.1c0.4-0.5,0.8-0.9,1.3-1.3
					C258.6-207.5,258.8-207.3,258.7-207.2z"/>
				<path class="st12" d="M257.8-210.8c-0.5,0.5-1,0.9-1.4,1.4c-0.1,0.1-0.3,0-0.2-0.1c0.5-0.5,1-1,1.5-1.5
					C257.7-211,257.9-210.9,257.8-210.8z"/>
			</g>
			<g>
				<g>
					<path class="st9" d="M260.1-206.8c0.1-0.1,0.3-0.1,0.5,0.1c7.3,9.1,17.2,16.1,27.9,19.7c3.1,1,7.1,2.2,11.2,1.6
						c1.9-0.3,3.3-0.9,4.2-1.9c0.6-0.7,0.7-2,0.4-3.2c0.2-0.1,0.4-0.2,0.6-0.3c0.5,1.5,0.3,3.1-0.5,4c-1,1.1-2.6,1.8-4.6,2.1
						c-3,0.4-6,0-8.6-0.7c-1-0.3-2-0.6-2.9-0.9c-10.8-3.7-20.8-10.8-28.2-20C260-206.5,260-206.7,260.1-206.8z"/>
				</g>
				<g>
					<path class="st9" d="M266-207.2c0.2-0.1,0.4-0.1,0.5,0.1l0.7,1.1c1.6,2.5,3.1,4.6,4.5,6.4c6.4,7.7,14.7,13.6,24.1,17.1
						c1.2,0.5,2.6,0.9,3.8,0.5c0.5-0.2,1-0.8,1.2-1.6c0.1-0.2,0.1-0.4,0.1-0.5c0.2,0,0.4,0,0.7,0c0,0.3-0.1,0.5-0.2,0.8
						c-0.3,1.1-1,1.9-1.7,2.1c-0.9,0.3-1.9,0.2-2.8-0.1c-0.5-0.1-1-0.3-1.4-0.5c-9.5-3.6-17.9-9.5-24.4-17.3
						c-1.5-1.8-2.9-3.9-4.6-6.4l-0.7-1.1C265.8-206.9,265.8-207.1,266-207.2z"/>
				</g>
				<g>
					<path class="st9" d="M292.7-207.6C292.8-207.6,292.8-207.6,292.7-207.6c0.2,0,0.4-0.1,0.4-0.3c0.2-2.6-0.7-5.2-2.5-7.1
						c-1.7-1.9-4.3-3-6.9-3c-1.1,0-2.2,0.2-3.3,0.4c-1.6,0.3-3.2,0.5-4.7,0.2c-1.4-0.3-2.6-1.2-3.8-2c-0.4-0.2-0.7-0.5-1.1-0.7
						c-1.7-1.1-6.2-1-8.1-0.4c-0.2,0.1-0.3,0.2-0.2,0.4c0.1,0.2,0.2,0.3,0.4,0.2c1.7-0.6,6-0.7,7.5,0.3c0.4,0.2,0.7,0.5,1.1,0.7
						c1.2,0.9,2.5,1.7,4,2.1c1.6,0.4,3.3,0.1,4.9-0.2c1-0.2,2.1-0.4,3.2-0.4c2.4,0,4.8,1.1,6.4,2.8c1.6,1.8,2.5,4.2,2.3,6.6
						C292.5-207.8,292.6-207.7,292.7-207.6z"/>
				</g>
			</g>
		</g>
		<path class="st8" d="M288.3-204.3c0,0-3.1,5.2-6.4,5c-3.2-0.2-9.2-6.3-13-7.9c-6.5-0.1-7.3-3-6.8-4.6c0.4-1.6,2.5-2.8,5.7-2.5
			c2.7,0.2,9.8,4.9,11.2,4.8c1-0.1,4-5,4-5L288.3-204.3z"/>
		<g>
			<path class="st13" d="M274.9-224.4c2.2,0.6,4.3,0.2,5.5-0.5c0.2-0.1,0.4,0,0.5,0.2c0.1,0.2,0,0.4-0.2,0.5
				c-1.3,0.7-3.7,1.2-6.1,0.6c-0.2-0.1-0.3-0.3-0.3-0.5C274.5-224.4,274.7-224.5,274.9-224.4z"/>
			<path class="st13" d="M277.6-201.8c1.3,0.9,3.1,2,4.3,2.1c2.9,0.2,6-4.7,6-4.8c0.1-0.2,0.4-0.2,0.5-0.1c0.2,0.1,0.2,0.4,0.1,0.5
				c-0.1,0.2-3.3,5.4-6.7,5.2c-0.2,0-0.5-0.1-0.7-0.1c-1-0.3-2.3-0.9-4-2.1c-0.2-0.1-0.2-0.4-0.1-0.6
				C277.2-201.9,277.4-202,277.6-201.8z"/>
			<path class="st13" d="M277.2-210.6c1.2,0.6,1.6,0.7,1.8,0.7c0.5-0.1,2.3-2.5,3.7-4.8c0.1-0.2,0.4-0.2,0.5-0.1
				c0.2,0.1,0.2,0.4,0.1,0.5c-0.9,1.5-3.2,5.1-4.3,5.1c-0.1,0-0.3,0-0.5-0.1c-0.4-0.1-0.9-0.3-1.6-0.7c-0.2-0.1-0.3-0.3-0.2-0.5
				C276.8-210.6,277-210.7,277.2-210.6z"/>
			<path class="st13" d="M265.4-211.1L265.4-211.1c0.2,0.1,0.3,0.3,0.3,0.5c-0.1,0.2-0.3,0.3-0.5,0.3c-0.8-0.2-1.7-0.1-2.5,0.3
				c-0.1,0-0.2,0.1-0.3,0c-0.1,0-0.2-0.1-0.3-0.2c-0.1-0.2,0-0.4,0.2-0.5C263.3-211.3,264.5-211.4,265.4-211.1z"/>
			<path class="st13" d="M266.3-213c-0.1,0.2-0.3,0.3-0.5,0.3c0,0,0,0,0,0c-0.9-0.3-1.8-0.1-2.3,0c-0.1,0-0.1,0-0.2,0
				c-0.1,0-0.2-0.1-0.3-0.3c-0.1-0.2,0.1-0.4,0.3-0.5c0.9-0.3,1.8-0.3,2.7,0C266.3-213.4,266.4-213.2,266.3-213z"/>
			<path class="st13" d="M236.3-195.9c0.1-0.2,0.4-0.2,0.5-0.1c0.8,0.5,1.4,1.2,1.8,2c0.1,0.2,0,0.4-0.2,0.5c-0.1,0-0.2,0.1-0.3,0
				c-0.1,0-0.2-0.1-0.3-0.2c-0.3-0.7-0.8-1.2-1.5-1.6C236.2-195.5,236.2-195.7,236.3-195.9z"/>
			<path class="st13" d="M237.9-197.6c0.1-0.2,0.3-0.3,0.5-0.2c0.7,0.4,1.6,1,2.1,2.1c0.1,0.2,0,0.4-0.2,0.5c-0.1,0-0.2,0-0.3,0
				c-0.1,0-0.2-0.1-0.3-0.2c-0.4-0.9-1.2-1.4-1.7-1.7C237.8-197.1,237.8-197.4,237.9-197.6z"/>
			<path class="st13" d="M240.8-200.9c0.2,0.1,0.2,0.4,0,0.6c-0.1,0.1-0.3,0.1-0.4,0.1c-0.1,0-0.1,0-0.2-0.1c-0.5-0.5-1.2-0.9-2-1
				c-0.2,0-0.4-0.2-0.3-0.5c0-0.2,0.2-0.4,0.5-0.3C239.4-201.9,240.2-201.5,240.8-200.9z"/>
			<path class="st13" d="M241.1-202.7c-0.1,0-0.1,0-0.1-0.1c-0.6-0.5-1-0.6-1.7-0.7c-0.2,0-0.4-0.2-0.4-0.4c0-0.2,0.2-0.4,0.4-0.4
				c0.7,0.1,1.3,0.2,2.1,0.8c0.2,0.1,0.2,0.4,0.1,0.6C241.4-202.7,241.3-202.6,241.1-202.7z"/>
		</g>
		<path class="st8" d="M255.8-225.2c-1.2,0-2.6,0.8-3,1.5c-0.5,0.8-0.1,1.9,0.6,2.6c1,1.1,2.7,1.5,4.1,1c1.4-0.4,2.3-1.4,2.5-2.8
			C260-224,258.2-225.3,255.8-225.2z"/>
		<g>
			<path class="st14" d="M293.9-226.3c-0.7,0-0.7-1-0.7-2.2s-0.1-2.2,0.6-2.2c0.7,0,0.7,1,0.7,2.2
				C294.5-227.3,294.5-226.3,293.9-226.3z"/>
			<path class="st14" d="M289.1-226.2c0.7-0.1,0.8,0.7,1,1.8c0.2,1,0.3,1.9-0.4,2c-0.7,0.1-0.8-0.7-1-1.8
				C288.5-225.2,288.4-226.1,289.1-226.2z"/>
			<path class="st14" d="M294.5-219.3c-0.7,0.2-0.9-0.7-1.2-1.7c-0.3-1-0.5-1.9,0.1-2.1c0.7-0.2,0.9,0.7,1.2,1.7
				C294.9-220.3,295.2-219.4,294.5-219.3z"/>
			<path class="st14" d="M298.8-217.9c0.6-0.2,1,0.7,1.5,2c0.5,1.2,0.8,2.2,0.2,2.4c-0.6,0.2-1-0.7-1.5-2
				C298.6-216.6,298.2-217.6,298.8-217.9z"/>
			<path class="st14" d="M296-214.7c0.7-0.2,1,1.1,1.3,2.7c0.4,1.6,0.7,2.9,0,3c-0.7,0.2-1-1.1-1.3-2.7
				C295.7-213.3,295.4-214.6,296-214.7z"/>
			<path class="st14" d="M302.6-205.1c0.3-0.1,0.6,0.1,0.8,0.5c0.2,0.4,0.3,1.1,0.4,1.8c0,0.7,0,1.4-0.2,1.8
				c-0.2,0.4-0.4,0.7-0.7,0.6c-0.7-0.2-0.4-1.1-0.5-2.3C302.3-203.9,302-204.8,302.6-205.1z"/>
			<path class="st14" d="M297.3-201.7c0.7,0.1,0.5,1,0.2,2.2c-0.2,1.1-0.4,2-1.1,1.9c-0.7-0.1-0.5-1-0.2-2.2
				C296.4-200.9,296.6-201.8,297.3-201.7z"/>
			<path class="st14" d="M299.8-196.1c0.7,0.1,0.5,1,0.3,2.1c-0.2,1.1-0.4,2-1,1.9c-0.7-0.1-0.5-1-0.3-2.1
				C299-195.3,299.1-196.2,299.8-196.1z"/>
			<path class="st14" d="M288.4-196.2c0.4-1.2,0.7-2.2,1.3-2c0.6,0.2,0.3,1.2,0,2.4c-0.4,1.2-0.7,2.2-1.3,2
				C287.8-194,288.1-195,288.4-196.2z"/>
			<path class="st14" d="M292-189c-0.6-0.2-0.4-1-0.1-2c0.3-1,0.6-1.8,1.2-1.5c0.6,0.2,0.4,1,0.1,2C292.9-189.6,292.7-188.8,292-189
				z"/>
			<path class="st14" d="M289.8-177.9c0.4,0.5-0.1,1-0.8,1.6c-0.7,0.6-1.2,1.1-1.6,0.5c-0.4-0.5,0.1-1,0.8-1.6
				C288.8-178,289.3-178.4,289.8-177.9z"/>
			<path class="st14" d="M281.4-180.3c-0.3-0.6,0.4-1.1,1.4-1.6c1-0.6,1.8-1.1,2.1-0.5c0.3,0.6-0.4,1.1-1.4,1.6
				C282.5-180.2,281.7-179.7,281.4-180.3z"/>
			<path class="st14" d="M278.3-174.9c1.2-0.5,2.2-0.8,2.4-0.2c0.2,0.6-0.7,1-1.9,1.5c-1.2,0.5-2.2,0.8-2.4,0.2
				C276.1-174.1,277.1-174.5,278.3-174.9z"/>
			<path class="st14" d="M271.3-184.8c-0.3-0.6,0.2-0.9,0.9-1.3c0.7-0.4,1.3-0.8,1.6-0.2c0.3,0.6-0.2,0.9-0.9,1.3
				C272.2-184.5,271.7-184.2,271.3-184.8z"/>
			<path class="st14" d="M270.7-178.8c1-0.4,1.7-0.7,2-0.1c0.3,0.6-0.5,0.9-1.5,1.3c-1,0.4-1.7,0.7-2,0.1
				C269-178.1,269.8-178.4,270.7-178.8z"/>
			<path class="st14" d="M262.1-182.6c1.1-0.1,2-0.2,2.1,0.4c0.1,0.7-0.8,0.8-1.9,0.9c-1.1,0.1-2,0.2-2.1-0.4
				C260.1-182.3,261-182.5,262.1-182.6z"/>
		</g>
		<g>
			<path class="st15" d="M233.7-206.5c0.6,0,0.6,0.8,0.5,1.8c0,1-0.1,1.8-0.7,1.7c-0.6,0-0.6-0.8-0.5-1.8
				C233.1-205.8,233.1-206.6,233.7-206.5z"/>
			<path class="st15" d="M228.6-198.5c-0.6-0.2-0.4-1.1,0-2.2c0.3-1.1,0.5-2,1.1-1.8c0.6,0.2,0.4,1.1,0,2.2
				C229.5-199.3,229.2-198.4,228.6-198.5z"/>
			<path class="st15" d="M230.9-195.1c0.6,0,0.6,0.7,0.5,1.5c0,0.8-0.1,1.4-0.7,1.4c-0.6,0-0.6-0.7-0.5-1.5
				C230.2-194.5,230.2-195.2,230.9-195.1z"/>
			<path class="st15" d="M224.8-200.9c0.6,0.1,0.5,1,0.3,2.1c-0.1,1.1-0.3,2-0.9,1.9c-0.6-0.1-0.5-1-0.3-2.1
				C224.1-200.1,224.2-201,224.8-200.9z"/>
			<path class="st15" d="M225.2-192.9c0.6-0.2,0.9,0.7,1.2,1.8c0.4,1.1,0.6,2,0.1,2.1c-0.6,0.2-0.9-0.7-1.2-1.8
				C224.9-191.9,224.6-192.7,225.2-192.9z"/>
			<path class="st15" d="M231.1-186.2c0.6,1.2,1.1,2.2,0.6,2.5c-0.6,0.3-1-0.7-1.7-1.9c-0.6-1.2-1.1-2.2-0.6-2.5
				S230.5-187.5,231.1-186.2z"/>
			<path class="st15" d="M239.2-180c0.8,1,1.4,1.8,1,2.1c-0.5,0.4-1.1-0.4-1.9-1.4c-0.8-1-1.4-1.8-1-2.1
				C237.8-181.7,238.4-180.9,239.2-180z"/>
			<path class="st15" d="M240.6-174.7c0.6,0.4,1.1,0.8,0.8,1.3c-0.4,0.5-0.9,0.1-1.5-0.3c-0.6-0.4-1.1-0.8-0.8-1.3
				C239.4-175.5,240-175.1,240.6-174.7z"/>
			<path class="st15" d="M246-174c0.7,0.5,1.3,0.8,1,1.4c-0.3,0.5-0.9,0.1-1.7-0.3c-0.7-0.5-1.3-0.8-1-1.4
				C244.7-174.9,245.3-174.5,246-174z"/>
			<path class="st15" d="M252.4-170.3c1.1,0.1,2.1,0.3,2,0.9c-0.1,0.6-1,0.5-2.1,0.4c-1.1-0.1-2.1-0.3-2-0.9
				C250.3-170.6,251.2-170.5,252.4-170.3z"/>
		</g>
		<g>
			<path class="st8" d="M299.9-210.6c0.4-0.1,0.6,0.4,0.7,1.1c0.2,0.7,0.3,1.2-0.2,1.3c-0.4,0.1-0.6-0.4-0.7-1.1
				C299.6-209.9,299.5-210.5,299.9-210.6z"/>
			<path class="st8" d="M294.8-206.4c0.4,0,0.4,0.7,0.3,1.5c-0.1,0.8-0.1,1.5-0.6,1.5c-0.4,0-0.4-0.7-0.3-1.5
				C294.3-205.7,294.4-206.4,294.8-206.4z"/>
			<path class="st8" d="M297.5-190.3c0.4,0.1,0.2,0.9-0.2,1.9c-0.3,1-0.6,1.8-1,1.6c-0.4-0.1-0.2-0.9,0.2-1.9
				C296.8-189.6,297.1-190.4,297.5-190.3z"/>
			<path class="st8" d="M284-178.6c0.7-0.3,1.3-0.5,1.5-0.1c0.2,0.4-0.4,0.7-1.2,0.9c-0.7,0.3-1.3,0.5-1.5,0.1
				C282.7-178.1,283.3-178.3,284-178.6z"/>
			<path class="st8" d="M278.9-184.7c0.3,0.3,0,0.7-0.5,1.2c-0.5,0.5-0.8,0.9-1.2,0.6c-0.3-0.3,0-0.7,0.5-1.2
				C278.2-184.6,278.6-185,278.9-184.7z"/>
			<path class="st8" d="M284.6-223.6c0.4-0.1,0.6,0.4,0.8,1.2c0.2,0.7,0.4,1.3,0,1.4c-0.4,0.1-0.6-0.4-0.8-1.2
				C284.4-222.8,284.2-223.4,284.6-223.6z"/>
			<path class="st8" d="M295.1-225.4c0.4-0.1,0.6,0.3,0.8,0.9c0.2,0.6,0.4,1.1-0.1,1.2c-0.4,0.1-0.6-0.3-0.8-0.9
				C294.9-224.7,294.7-225.2,295.1-225.4z"/>
			<path class="st8" d="M288.9-231.2c0.4-0.1,0.5,0.4,0.6,1c0.1,0.6,0.1,1-0.3,1.1s-0.5-0.4-0.6-1
				C288.5-230.7,288.4-231.2,288.9-231.2z"/>
			<path class="st8" d="M292.8-237c-0.4,0.1-0.6-0.6-0.9-1.4c-0.3-0.9-0.5-1.5,0-1.7c0.4-0.1,0.6,0.6,0.9,1.4
				C293.1-237.8,293.3-237.1,292.8-237z"/>
		</g>
		<g>
			<path class="st13" d="M227.6-197.1c0.5,0,0.5,0.5,0.5,1.2c0,0.7,0,1.3-0.4,1.3c-0.5,0-0.5-0.5-0.5-1.2
				C227.2-196.5,227.2-197.1,227.6-197.1z"/>
			<path class="st13" d="M227.7-208.8c0.3-0.9,0.5-1.7,0.9-1.6c0.4,0.1,0.2,0.9-0.1,1.8c-0.3,0.9-0.5,1.7-0.9,1.6
				C227.2-207,227.4-207.8,227.7-208.8z"/>
			<path class="st13" d="M223-194c0.4-0.1,0.5,0.5,0.6,1.2c0.1,0.7,0.2,1.2-0.3,1.3c-0.4,0.1-0.5-0.5-0.6-1.2
				C222.6-193.4,222.5-193.9,223-194z"/>
			<path class="st13" d="M232.5-189.6c0.4-0.1,0.6,0.3,0.8,0.9c0.2,0.6,0.3,1.1-0.1,1.2c-0.4,0.1-0.6-0.3-0.8-0.9
				C232.2-189,232.1-189.5,232.5-189.6z"/>
			<path class="st13" d="M232.2-202.2c0.4,0.1,0.3,0.6,0.2,1.2c-0.2,0.6-0.3,1.1-0.7,1c-0.4-0.1-0.3-0.6-0.2-1.2
				C231.7-201.8,231.8-202.3,232.2-202.2z"/>
			<path class="st13" d="M223.2-204.7c0.2-0.7,0.4-1.2,0.8-1.1s0.3,0.7,0.1,1.3c-0.2,0.7-0.4,1.2-0.8,1.1
				C222.9-203.5,223-204,223.2-204.7z"/>
			<path class="st13" d="M229.7-181.8c0.5,0.6,0.8,1.1,0.5,1.4c-0.4,0.3-0.7-0.2-1.2-0.9c-0.5-0.6-0.8-1.1-0.5-1.4
				C228.9-183,229.2-182.5,229.7-181.8z"/>
			<path class="st13" d="M235.2-180.1c0.4,0.4,0.8,0.6,0.5,1c-0.3,0.4-0.6,0.1-1.1-0.3c-0.4-0.4-0.8-0.6-0.5-1
				C234.4-180.8,234.7-180.5,235.2-180.1z"/>
		</g>
		<g>
			<path class="st16" d="M268.7-234.2c1.2,0.4,2.4,0.8,3.6,1.2c0.2,0.1,0.1,0.3-0.1,0.2c-1.2-0.4-2.4-0.8-3.6-1.2
				C268.4-234,268.5-234.3,268.7-234.2z"/>
			<path class="st16" d="M268.4-232.8c1.1,0.1,2.1,0.2,3.2,0.3c0.2,0,0.1,0.3,0,0.3c-1.1-0.1-2.1-0.2-3.2-0.3
				C268.2-232.5,268.3-232.8,268.4-232.8z"/>
			<path class="st16" d="M268.8-231.1c1.1-0.3,2.2-0.6,3.3-0.8c0.2,0,0.2,0.2,0,0.3c-1.1,0.2-2.2,0.5-3.2,0.8
				C268.7-230.8,268.6-231,268.8-231.1z"/>
			<path class="st16" d="M276.5-233.4c1.5-1,3-2,4.8-2.3c0.2,0,0.2,0.2,0.1,0.3c-1.8,0.2-3.3,1.3-4.8,2.3
				C276.5-233,276.3-233.3,276.5-233.4z"/>
			<path class="st16" d="M277.2-233.1c1.5-0.5,3-0.8,4.5-1c0.2,0,0.2,0.2,0.1,0.3c-1.5,0.2-3,0.5-4.5,1
				C277.1-232.8,277-233,277.2-233.1z"/>
			<path class="st16" d="M276.8-232.3c1.5,0,3.1,0.1,4.5,0.7c0.2,0.1,0,0.3-0.1,0.2c-1.4-0.6-2.9-0.6-4.4-0.7
				C276.6-232.1,276.7-232.3,276.8-232.3z"/>
			<path class="st16" d="M268.8-245.4c0.5,0.1,0.9,0.3,1.4,0.4c0.1,0,0.1,0.1,0.1,0.2c0,0.1-0.1,0.1-0.2,0.1
				c-0.5-0.1-0.9-0.3-1.4-0.4c-0.1,0-0.1-0.1-0.1-0.2C268.6-245.4,268.7-245.4,268.8-245.4z"/>
			<path class="st16" d="M266.6-246c0.4,0.1,0.9,0.2,1.2,0.4c0.2,0.1,0,0.3-0.1,0.2c-0.4-0.2-0.8-0.3-1.2-0.3
				C266.4-245.7,266.4-246,266.6-246z"/>
			<path class="st16" d="M272.2-245.6c0.3-0.3,0.7-0.5,1.1-0.7c0.1,0,0.1,0,0.2,0.1c0,0.1,0,0.1-0.1,0.2c-0.4,0.2-0.7,0.4-1,0.6
				c-0.1,0-0.1,0-0.2,0C272.1-245.5,272.1-245.5,272.2-245.6z"/>
			<path class="st16" d="M279.7-248c0.5-0.1,0.9-0.1,1.4-0.1c0.1,0,0.1,0.1,0.1,0.2c0,0.1-0.1,0.1-0.2,0.1c-0.4,0-0.9,0-1.3,0.1
				c-0.1,0-0.1-0.1-0.1-0.1C279.6-247.9,279.6-248,279.7-248z"/>
			<path class="st16" d="M277.1-247.7c0.4-0.1,0.8-0.1,1.2-0.1c0.1,0,0.1,0,0.1,0.1c0,0.1,0,0.1-0.1,0.1c-0.4,0-0.8,0-1.2,0.1
				c-0.1,0-0.1-0.1-0.1-0.1C277-247.6,277-247.7,277.1-247.7z"/>
			<path class="st16" d="M278.4-246.7c0.4-0.2,0.8-0.3,1.2-0.4c0.1,0,0.1,0.1,0.1,0.1c0,0.1,0,0.1-0.1,0.1c-0.4,0.1-0.7,0.2-1.1,0.3
				c-0.1,0-0.1,0-0.2-0.1C278.3-246.6,278.3-246.6,278.4-246.7z"/>
			<path class="st16" d="M286.9-252.1c0.1-0.1,0.3,0,0.2,0.2c-0.3,0.3-0.5,0.7-0.7,1.1c-0.1,0.2-0.3,0-0.2-0.1
				C286.4-251.4,286.7-251.8,286.9-252.1z"/>
			<path class="st16" d="M284.7-248.6c0.2-0.4,0.5-0.9,0.8-1.3c0.1-0.1,0.3,0,0.2,0.2c-0.3,0.4-0.5,0.8-0.7,1.2
				C284.8-248.4,284.6-248.5,284.7-248.6z"/>
			<path class="st16" d="M290.9-232.8c0.1,0,0.2,0,0.2,0.1c0.2,0.6,0.3,1.1,0.5,1.7c0,0.1,0,0.1-0.1,0.2c-0.1,0-0.2,0-0.2-0.1
				c-0.2-0.6-0.3-1.1-0.5-1.7C290.9-232.7,290.9-232.8,290.9-232.8z"/>
			<path class="st16" d="M290.6-227c0.1,0,0.1,0,0.2,0.1c0.3,0.5,0.4,1,0.6,1.6c0,0.1-0.1,0.1-0.1,0.1c-0.1,0-0.1,0-0.1-0.1
				c-0.1-0.5-0.3-1-0.5-1.5C290.5-226.9,290.6-227,290.6-227z"/>
			<path class="st16" d="M284.6-226.8c0.1,0,0.1,0,0.2,0.1c0.2,0.5,0.3,1.1,0.5,1.6c0,0.1,0,0.1-0.1,0.2c-0.1,0-0.1,0-0.2-0.1
				c-0.2-0.5-0.3-1.1-0.5-1.6C284.5-226.7,284.5-226.8,284.6-226.8z"/>
			<path class="st16" d="M290.5-219.6c0.2,0.5,0.4,1,0.6,1.5c0.1,0.2-0.2,0.3-0.2,0.1c-0.2-0.5-0.4-1-0.6-1.5
				C290.1-219.7,290.4-219.7,290.5-219.6z"/>
			<path class="st16" d="M285.8-207.5c0.4-0.8,0.8-1.5,1.3-2.3c0.1-0.1,0.3,0,0.2,0.1c-0.4,0.8-0.8,1.5-1.3,2.3
				C285.9-207.2,285.7-207.3,285.8-207.5z"/>
			<path class="st16" d="M283.8-211c0.3-0.4,0.5-0.8,0.6-1.2c0.1-0.2,0.3-0.1,0.2,0.1c-0.2,0.5-0.4,0.9-0.7,1.3c0,0.1-0.1,0.1-0.2,0
				C283.8-210.9,283.8-211,283.8-211z"/>
			<path class="st16" d="M282.1-206.5c0.2-0.3,0.4-0.6,0.5-0.9c0-0.1,0.1-0.1,0.2,0c0.1,0,0.1,0.1,0,0.2c-0.2,0.3-0.4,0.6-0.5,0.9
				c0,0.1-0.1,0.1-0.2,0C282.1-206.3,282.1-206.4,282.1-206.5z"/>
			<path class="st16" d="M283.3-202.6c0.3-0.4,0.5-0.9,0.8-1.4c0.1-0.1,0.3,0,0.2,0.1c-0.3,0.5-0.5,1-0.8,1.4c0,0.1-0.1,0.1-0.2,0
				C283.3-202.5,283.3-202.6,283.3-202.6z"/>
			<path class="st16" d="M276.7-207.2c0-0.1,0.1-0.1,0.2,0c0.4,0.2,0.7,0.5,1.1,0.7c0.1,0,0.1,0.1,0.1,0.2c0,0.1-0.1,0.1-0.2,0.1
				c-0.4-0.2-0.8-0.5-1.2-0.7C276.6-207,276.6-207.1,276.7-207.2z"/>
			<path class="st16" d="M273.4-210.2c0.3,0.1,0.6,0.3,0.9,0.4c0.1,0,0.1,0.1,0.1,0.2c0,0.1-0.1,0.1-0.2,0.1
				c-0.3-0.1-0.6-0.3-0.9-0.4c-0.1,0-0.1-0.1-0.1-0.2C273.3-210.2,273.4-210.2,273.4-210.2z"/>
			<path class="st16" d="M273.8-207.1c0.2,0.1,0.4,0.2,0.6,0.3c0.1,0,0.1,0.1,0.1,0.2c0,0.1-0.1,0.1-0.2,0.1
				c-0.2-0.1-0.4-0.2-0.6-0.3c-0.1,0-0.1-0.1-0.1-0.2C273.7-207.1,273.8-207.1,273.8-207.1z"/>
			<path class="st16" d="M293.4-197.6L293-196c0,0.2-0.3,0.1-0.3,0l0.4-1.7C293.2-197.8,293.5-197.8,293.4-197.6z"/>
			<path class="st16" d="M301.5-191.6c0.1,0,0.1,0.1,0.1,0.2l-0.2,0.9c0,0.1-0.1,0.1-0.2,0.1c-0.1,0-0.1-0.1-0.1-0.2l0.2-0.9
				C301.4-191.5,301.4-191.6,301.5-191.6z"/>
			<path class="st16" d="M288.2-191.2c0-0.1,0.1-0.1,0.2-0.1c0.1,0,0.1,0.1,0.1,0.2c-0.1,0.4-0.3,0.8-0.5,1.2c0,0.1-0.1,0.1-0.2,0.1
				c-0.1,0-0.1-0.1-0.1-0.2C288-190.4,288.1-190.8,288.2-191.2z"/>
			<path class="st16" d="M289.3-181.4c0.4-0.2,0.7-0.5,1-0.9c0.1-0.1,0.3,0,0.2,0.2c-0.3,0.4-0.7,0.7-1.1,0.9c-0.1,0-0.1,0-0.2,0
				C289.3-181.3,289.3-181.4,289.3-181.4z"/>
			<path class="st16" d="M280.1-184c0.5-0.4,1-0.9,1.4-1.4c0.1-0.1,0.3,0,0.2,0.2c-0.4,0.5-0.9,1-1.4,1.4
				C280.1-183.7,280-183.9,280.1-184z"/>
			<path class="st16" d="M277.3-178.5c0.4-0.2,0.8-0.5,1.1-0.8c0.1,0,0.1,0,0.2,0c0,0.1,0,0.1,0,0.2c-0.4,0.3-0.8,0.6-1.2,0.8
				c-0.1,0-0.1,0-0.2-0.1C277.2-178.4,277.3-178.5,277.3-178.5z"/>
			<path class="st16" d="M266-179c0.9-0.2,1.8-0.6,2.6-1c0.2-0.1,0.2,0.2,0.1,0.2c-0.8,0.4-1.7,0.8-2.6,1
				C266-178.8,265.9-179,266-179z"/>
			<path class="st16" d="M264.6-174.3c0.6,0,1.3-0.1,1.8-0.3c0.2-0.1,0.3,0.2,0.1,0.2c-0.6,0.3-1.3,0.4-2,0.3
				c-0.1,0-0.1-0.1-0.1-0.2C264.5-174.3,264.6-174.3,264.6-174.3z"/>
			<path class="st16" d="M229-191.9c0.1,0,0.1,0,0.1,0.1c0.1,0.5,0.2,1,0.4,1.5c0.1,0.2-0.2,0.3-0.2,0.1c-0.2-0.5-0.4-1.1-0.4-1.6
				C228.9-191.8,229-191.9,229-191.9z"/>
			<path class="st16" d="M231.5-206.3c-0.1,0.4-0.1,0.8-0.1,1.2c0,0.1,0,0.1-0.1,0.1c-0.1,0-0.1,0-0.1-0.1c0-0.4,0-0.8,0.1-1.2
				C231.2-206.5,231.5-206.4,231.5-206.3z"/>
			<path class="st16" d="M231.8-198.3c0.1,0,0.1,0.1,0.1,0.2c-0.1,0.4-0.1,0.8,0,1.2c0,0.1-0.1,0.1-0.1,0.1c-0.1,0-0.1,0-0.1-0.1
				c-0.1-0.4-0.1-0.9,0-1.3C231.6-198.3,231.7-198.3,231.8-198.3z"/>
			<path class="st16" d="M234.2-184.5c0.5,0.5,0.9,0.9,1.4,1.5c0.1,0.1-0.1,0.3-0.2,0.2c-0.4-0.5-0.8-1-1.3-1.4
				C233.9-184.5,234-184.7,234.2-184.5z"/>
			<path class="st16" d="M241.8-177.5c0.5,0.4,0.9,0.7,1.4,1c0.1,0.1,0,0.3-0.1,0.2c-0.5-0.3-1-0.6-1.5-1
				C241.5-177.4,241.7-177.6,241.8-177.5z"/>
			<path class="st16" d="M225-187.2c0.5,0.6,1,1.2,1.6,1.8c0.1,0.1-0.1,0.3-0.2,0.2c-0.5-0.6-1-1.2-1.6-1.8
				C224.7-187.2,224.9-187.3,225-187.2z"/>
		</g>
	</g>
	<g style="clip-path:url(#SVGID_00000101809143659165917840000012414320685078744998_);">
		<path class="st17" d="M195.4,324.5c0,19.5,16,32,34.1,32c12.9,0,23.7-3.1,30.1-13.3c3.8-6,4-11.8,3.6-18.2
			c-1.1-17.6-15.7-32.4-33.8-32.4C211.5,292.5,195.4,305.4,195.4,324.5z"/>
		<path class="st17" d="M222.3,337c5.1-5,3.1-15.4,1.4-20.5c0.5-1.6,2.7-7.7,1.6-8.7s-8.5,2.9-8.5,2.9c-5.4-2.6-10.4-2.8-16.6-1.3
			c0,0-5.8-5.9-7.4-4.5c-1.6,1.4,0.9,9.9,0.9,9.9c-4.2,8.4-4.9,16.6,0.2,21.3C199,340.7,212.8,346.3,222.3,337z"/>
		<path d="M216.8,310.8c0,0,7.4-3.9,8.5-2.9c1.1,1-1.1,7.1-1.6,8.7c0.3,1,0.7,2.2,1,3.5c-0.6-0.8-1.5-1.4-2.4-1.6
			c-1.3-0.3-2.8,0-4-0.7c-1.5-0.9-1.6-2.9-1.7-4.6c0-0.9-0.1-1.8-0.5-2.7C216.3,310.5,216.5,310.6,216.8,310.8z"/>
		<path d="M210.7,326.1c-0.3-0.8-6.3-1.5-6.6-1c-0.4,0.6,1.7,4.7,2.7,5C207.8,330.3,211.1,326.8,210.7,326.1z"/>
		<path class="st17" d="M259.7,343.1c-7.6,13.7-28.6,16.6-44.3,11.9c-20.5-6.2-21.6-16.1-18.8-21.8c2.1-4.2,7.2-5.7,12.8-2.9
			c11.1,5.8,25.2,20,44.7,9C258.8,336.7,261.9,339.2,259.7,343.1z"/>
		<path class="st18" d="M193.6,314.8c0,0-2.4-8.5-0.9-9.9c1.6-1.4,7.4,4.5,7.4,4.5c2.8-0.7,5.3-1,7.8-0.9c-0.1,0.9-0.3,1.8-0.2,2.8
			c0.1,1.2,0.2,2.3-0.3,3.5c-0.7,1.6-4.2,0.6-4.2,6.7c0,3.5-5.1,6.9-12.9,4.2C190.6,322.3,191.7,318.6,193.6,314.8z"/>
		<path class="st18" d="M209.3,330.4c2.8,1.5,5.8,3.5,9,5.4c5.6,5.9-1.5,8.9-1.5,11.6c0,4.9,3.9,3.5,6.6,5.1c2.5,1.5,1.9,4,4,4.6
			c-4.2-0.2-8.4-0.9-12.2-2c-20.5-6.2-21.6-16.1-18.8-21.8C198.7,329.1,203.8,327.5,209.3,330.4z"/>
		<path class="st18" d="M221.9,325.1c1.1-0.9,1.7-2.4,2-3.8c0.2-0.8,0.3-1.6,0.4-2.4c1.3,4.9,2.1,12.2-0.9,16.7
			c-0.8-0.7-1.6-1.4-2.4-2.1c-0.9-0.8-1.8-1.6-2.3-2.6c-0.6-1-0.7-2.3-0.1-3.3C219.3,326.4,220.9,326,221.9,325.1z"/>
		<path class="st18" d="M232.3,304.4c0.7-0.8,1.4-1.5,2-2.3c0.6-0.7,1.2-1.4,2-1.9c1.9-1.4,4.6-1.6,6.7-0.6c1.9,0.9,3.6,3,3.7,5.2
			c0,1.4-0.4,4.7-2.3,4.7c-1.3,0-2-1.7-3.2-2.2c-1.2-0.6-2.6,0-3.5,0.9c-0.9,0.9-1.6,2.1-2.4,3.1s-2.1,1.8-3.4,1.6
			c-1.7-0.3-2.6-2.4-2.2-4.1C230,307,231.2,305.6,232.3,304.4z"/>
		<path class="st18" d="M220.3,302.5c-2.4-0.2-4.6,0.8-6.7,1.9c-2.1,1.1-4.2,2.3-6.5,2.7c-1.6,0.2-3.5-0.1-4.9-1.1
			c-0.2-0.1-0.3-0.3-0.4-0.4c6.3-8.2,16.7-13.1,27.8-13.1c0.3,0,0.6,0,1,0c0.3,1.3,0.3,2.8,0.3,4.1c0,2.4-0.3,5.3-2.4,6.5
			C226,304.5,223.1,302.7,220.3,302.5z"/>
		<path class="st18" d="M247.2,327.4c-0.7-2,0.2-4.5,2-5.7c0.8-0.5,1.8-0.8,2.5-1.5c1-1.1,0.8-2.8,1.1-4.3c0.4-2,2-3.7,4-4.2
			c1.1-0.3,2.1-0.3,3-0.1c2.1,4.1,3.3,8.6,3.6,13.4c0.2,3.3,0.2,6.4-0.3,9.4c-0.6,0.1-1.3,0.1-1.9-0.2c-1.8-0.8-2.4-3.3-4.3-4
			c-1.5-0.5-3,0.4-4.5,0.5C250.1,330.9,247.9,329.4,247.2,327.4z"/>
		<path class="st18" d="M233,332.1c0.8-0.4,1.8-0.5,2.5-1.1c0.7-0.5,1-1.4,1.5-2.1c0.5-0.7,3.1-2.4,4.1,0.7c0.2,0.5,0,1-0.1,1.5
			c-0.1,0.5-0.1,1.1,0.3,1.5c0.3,0.3,0.7,0.5,1.1,0.7c1.4,0.8,2.2,2.5,1.9,4c-0.3,1.6-1.7,2.8-3.3,3c-1.5,0.1-2.9-0.6-4.4-0.2
			c-0.8,0.2-1.5,0.7-2.3,0.8s-1.5,0.3-1.7-1.2c-0.2-1.5-0.8-2-1.1-3c-0.3-0.9-0.4-2-0.1-2.9C231.7,333.1,232.3,332.5,233,332.1z"/>
		<path class="st18" d="M239.1,349c1-0.3,2.2,0.4,3.2,0.1c0.9-0.2,1.4-1.1,2.1-1.7c1.5-1.4,4-1.7,5.8-0.8c1,0.5,1.8,1.4,2.8,1.9
			c0.3,0.2,1.3,0.3,1.9,0.4c-4.4,3.9-10.3,6.4-16.6,7.5c0-0.4-0.1-0.9-0.2-1.3c-0.3-1.1-0.7-2.2-0.8-3.4
			C237.4,350.6,238,349.3,239.1,349z"/>
		<path d="M255.4,332.5c0.5-1.8,1.1-3.8,2.5-5.1c1.2-1.2,3.5-1.8,5.4-1.5c0.3,6-0.1,11.5-3.7,17.3c-0.1,0.2-0.2,0.3-0.3,0.5
			c0-0.1,0-0.2,0-0.3c0.2-1.6-0.2-3.3-1.2-4.4c-0.9-1-2.3-1.5-2.9-2.7C254.7,335,255.1,333.7,255.4,332.5z"/>
		<path d="M225.1,292.8c0.1,0.2,0.1,0.5,0.2,0.7c0.1,0.9-0.2,2-1.1,2.2c-0.4,0.1-0.8,0-1.2,0c-0.9,0.1-1.6,0.8-2.2,1.4
			c-0.6,0.7-1.2,1.4-2,1.7c-0.8,0.3-2,0-2.1-0.9c-0.2-0.9,0.7-1.6,1-2.4c0.1-0.4,0.2-0.8,0.1-1.2
			C220.2,293.6,222.6,293.1,225.1,292.8z"/>
		<path d="M211.6,351.9c-0.5-2.3,3.9-4.9,5.5-5.9c2.6-1.5,4.2,0.6,5,2.9c0.3,0.9,0.7,1.9,1.4,2.5c0.9,0.7,2.2,0.7,3.3,0.6
			c1.1-0.1,2.3-0.3,3.4,0.2c1.1,0.4,1.8,1.8,1.3,2.8c-0.7,1.2-2.6,0.8-4,1.2c-0.5,0.1-1,0.4-1.4,0.7c-3-0.2-6-0.7-8.8-1.4
			c-0.2-0.3-0.5-0.6-0.8-0.8c-0.8-0.6-1.8-0.7-2.8-1C212.8,353.5,211.8,352.9,211.6,351.9z"/>
		<path d="M251,309.5c-0.6,0.6-0.2,1.6-0.5,2.4c-0.2,0.7-1,1.1-1.8,1c-0.7-0.2-1.2-0.9-1.1-1.7c0.1-0.7,0.7-1.3,0.7-2
			c0.1-1.3-0.6-1.8,0.7-2.6c0.6-0.3,1.7-0.6,2.3-0.4c0.6,0.2,1.5,1,1.5,1.7C252.8,309.1,251.7,308.8,251,309.5z"/>
		<path class="st8" d="M196.7,319.2c-0.6,0.1-1.3,0.4-1.5,1c-0.2,0.7,0.3,1.4,0.9,1.8c1.3,0.9,5.5,1.9,6.3-0.3
			C203.2,319.5,198,319,196.7,319.2z"/>
		<path d="M213.8,322.1c0.3,1.2,1.5,1.9,2.7,2c1.1,0.1,2.3-0.4,2.9-1.4c0.1-0.2,0.4-0.2,0.6-0.1c0.2,0.2,0.2,0.4,0.1,0.6
			c-0.8,1.2-2.3,1.8-3.7,1.7c-1.4-0.2-3-1.2-3.3-2.6C212.9,321.8,213.7,321.5,213.8,322.1z"/>
		<path class="st19" d="M193.1,305.8c0.4-0.3,3.8,3.1,4.6,5.2c0.2,0.4-2.2,3.5-2.9,2.9S192.4,306.3,193.1,305.8z"/>
		<path class="st19" d="M225,308.6c-0.3-0.4-4.5,2.6-5.8,4.4c-0.3,0.4,2.3,2.7,3.2,2.3C223.3,314.9,225.5,309.3,225,308.6z"/>
		<path class="st20" d="M220.8,337.2c3.7,2.1,7.5,4.3,11.7,5c1.1,0.2,2.3,0.3,3.4,0.3c1.2,0.1,2.4,0.1,3.6,0.1
			c2.3,0,4.6-0.3,6.8-0.9c2.5-0.7,4.8-1.6,7.2-2.6c0.5-0.2,0.8,0.6,0.3,0.8c-4.3,1.8-8.6,3.4-13.3,3.5c-2.4,0.1-4.8,0-7.2-0.3
			c-2.2-0.3-4.3-0.9-6.3-1.8c-2.3-1-4.4-2.2-6.6-3.4C220,337.8,220.3,337,220.8,337.2z"/>
		<path class="st20" d="M226.8,340.3c1.6-1.5,2.7-3.5,3.1-5.7c0.5-2.4,0.3-5,1.2-7.3c0.4-1.1,0.9-2.2,1.4-3.3c0.5-1,0.9-2,1.5-2.9
			c1.1-1.9,2.4-3.6,4.1-5c2.1-1.6,4.8-2.6,7.4-3.1c0.5-0.1,0.6,0.7,0.1,0.8c-2.3,0.4-4.6,1.3-6.6,2.6c-1.8,1.3-3.1,3-4.2,4.9
			c-0.5,0.9-1,1.9-1.5,2.9c-0.5,1.1-1,2.1-1.4,3.2c-0.8,2.3-0.7,4.8-1.2,7.3c-0.5,2.5-1.7,4.7-3.5,6.3
			C226.9,341.4,226.4,340.7,226.8,340.3z"/>
		<g>
			<path class="st21" d="M205.9,338.3c0.1-0.3,0.4-0.5,0.6-0.5c0.1,0,0.3,0,0.4,0c0.1,0,0.3,0.1,0.4,0.1c0.2,0,0.4,0.1,0.5,0.3
				c0.9,0.5,1.8,1.1,2.6,1.8c0.3,0.2,0.2,0.7-0.2,0.8c-1.2,0.1-2.3-0.5-3.3-1.2C206.4,339.3,205.7,338.9,205.9,338.3z"/>
			<path class="st21" d="M198.6,337.6c0.1-0.2,0.3-0.3,0.6-0.2c0.9,0.4,1.8,1,2.5,1.8c0.1,0.1,0.2,0.2,0.2,0.4
				c0,0.1-0.1,0.3-0.3,0.3c-1.2,0.3-2.2-0.8-2.8-1.7c0,0,0-0.1-0.1-0.1C198.6,338,198.5,337.8,198.6,337.6z"/>
			<path class="st21" d="M204.5,342.3C204.5,342.3,204.6,342.3,204.5,342.3c0.2-0.2,0.4-0.3,0.6-0.2c0.8,0.3,1.6,0.8,2.2,1.4
				c0.1,0.1,0.2,0.3,0.1,0.5c0,0.2-0.2,0.3-0.4,0.3c-1,0-2-0.5-2.7-1.3C204.3,342.7,204.3,342.4,204.5,342.3z"/>
			<path class="st21" d="M199.7,344.5c0.1-0.2,0.3-0.2,0.5-0.1c1.3,0.6,2.6,1.4,3.8,2.3c0.3,0.2,0.1,0.7-0.2,0.8
				c-1,0.1-1.9-0.3-2.7-0.8c-0.4-0.3-0.7-0.6-1.1-0.9c-0.2-0.2-0.4-0.3-0.4-0.5C199.5,345,199.5,344.7,199.7,344.5z"/>
			<path class="st21" d="M208.3,346.7c0.1-0.1,0.3-0.1,0.5-0.1c1,0.4,2,0.9,2.9,1.5c0.3,0.2,0.1,0.7-0.2,0.8
				c-1.3,0.2-2.8-0.4-3.6-1.5C207.7,347,208,346.7,208.3,346.7z"/>
			<path class="st21" d="M258.8,315.3c0.2-0.1,0.5-0.1,0.6,0.1c0.5,0.8,0.8,1.7,0.9,2.7c0,0.2-0.2,0.5-0.4,0.5
				c-0.2,0-0.4-0.1-0.5-0.4c0-0.1,0-0.2-0.1-0.3c0,0,0-0.1,0-0.1c0,0,0,0,0,0c0,0,0-0.1,0-0.1c-0.1-0.2-0.1-0.4-0.2-0.6
				c-0.1-0.2-0.1-0.4-0.2-0.6c0-0.1-0.1-0.2-0.1-0.3c0,0,0-0.1-0.1-0.1c0,0-0.1-0.1-0.1-0.1C258.6,315.7,258.6,315.5,258.8,315.3z"
				/>
			<path class="st21" d="M254.5,316.8c0.2-0.1,0.5,0,0.5,0.3c0.4,1,0.8,1.9,1.2,2.9c0.1,0.2,0,0.5-0.3,0.5c-0.2,0.1-0.5,0-0.5-0.3
				l-1.2-2.9C254.2,317.1,254.3,316.8,254.5,316.8z"/>
			<path class="st21" d="M258.1,320.6c0.2-0.1,0.5,0,0.5,0.3c0.4,1.2,0.6,2.5,0.6,3.8c0,0.2-0.1,0.4-0.4,0.5c-0.2,0-0.5-0.2-0.5-0.4
				c0-1.2-0.2-2.4-0.5-3.6C257.8,320.9,257.9,320.7,258.1,320.6z"/>
		</g>
		<g>
			<path class="st20" d="M239.7,345.9l2.1-0.1c0.2,0,0.4,0.1,0.5,0.4c0,0.2-0.1,0.4-0.4,0.5c-0.7,0-1.4,0.1-2.1,0.1
				c-0.2,0-0.4-0.1-0.5-0.4C239.3,346.2,239.4,345.9,239.7,345.9z"/>
			<path class="st20" d="M232.9,347.5c0-0.2,0.3-0.4,0.5-0.3c0.3,0,0.7,0.1,1,0.1c0,0,0.1,0,0.1,0c0,0,0.1,0,0.1,0
				c0.1,0,0.2,0,0.2,0c0.2,0,0.3,0,0.5,0c0.2,0,0.4,0.1,0.5,0.4c0,0.2-0.1,0.5-0.4,0.5c-0.7,0-1.4,0-2.1-0.1
				C233,348,232.9,347.7,232.9,347.5z"/>
			<path class="st20" d="M227.7,344.3c0.1-0.2,0.3-0.3,0.6-0.2c0.8,0.3,1.6,0.5,2.5,0.5c0.2,0,0.4,0.1,0.5,0.4
				c0,0.2-0.1,0.5-0.4,0.5c-1,0-2-0.2-2.9-0.6C227.7,344.8,227.6,344.5,227.7,344.3z"/>
			<path class="st20" d="M221.1,344.2c0.1-0.2,0.4-0.3,0.6-0.2c0.9,0.4,1.7,0.6,2.7,0.7c0.2,0,0.4,0.3,0.3,0.5
				c0,0.2-0.3,0.4-0.5,0.3c-1-0.1-2-0.3-2.9-0.8C221.1,344.7,221,344.4,221.1,344.2z"/>
			<path class="st20" d="M242.8,316c0.7-0.3,1.3-0.5,2-0.6c0.2,0,0.5,0.2,0.5,0.4c0,0.3-0.1,0.4-0.4,0.5c0,0-0.1,0-0.1,0
				c0,0,0,0-0.1,0c-0.1,0-0.2,0-0.2,0.1c-0.2,0-0.3,0.1-0.5,0.1c-0.3,0.1-0.6,0.2-0.9,0.3c-0.2,0.1-0.5,0-0.5-0.3
				C242.5,316.3,242.6,316.1,242.8,316z"/>
			<path class="st20" d="M237.5,319.3c0.8-1.1,1.9-1.9,3.1-2.3c0.2-0.1,0.5,0,0.5,0.3c0.1,0.2,0,0.5-0.3,0.5
				c-1.1,0.4-2.1,1.1-2.8,2.1c-0.1,0.2-0.4,0.2-0.6,0.1C237.4,319.8,237.4,319.5,237.5,319.3z"/>
			<path class="st20" d="M234.4,324.2c0.4-1,1-1.9,1.7-2.8c0.1-0.2,0.4-0.2,0.6-0.1c0.2,0.2,0.2,0.4,0.1,0.6
				c-0.6,0.8-1.1,1.7-1.5,2.6c-0.1,0.2-0.4,0.3-0.6,0.2C234.4,324.6,234.3,324.4,234.4,324.2z"/>
			<path class="st20" d="M238,322.1c0.4-0.6,0.9-1.2,1.5-1.6c0.2-0.1,0.5-0.1,0.6,0.1c0.1,0.2,0.1,0.4-0.1,0.6
				c-0.1,0.1-0.3,0.2-0.4,0.3c0,0,0,0,0,0c0,0,0,0,0,0c0,0-0.1,0.1-0.1,0.1c-0.1,0.1-0.1,0.1-0.2,0.2c-0.2,0.3-0.5,0.5-0.6,0.8
				c-0.1,0.1-0.2,0.1-0.3,0.2c-0.1,0-0.2,0-0.3-0.1C237.9,322.6,237.9,322.3,238,322.1z"/>
		</g>
		<g>
			<defs>
				<path id="SVGID_00000091000165545482926840000011271367813464499359_" d="M196.7,319.2c-0.6,0.1-1.3,0.4-1.5,1
					c-0.2,0.7,0.3,1.4,0.9,1.8c1.3,0.9,5.5,1.9,6.3-0.3C203.2,319.5,198,319,196.7,319.2z"/>
			</defs>
			<clipPath id="SVGID_00000036941209748006600490000014569997224967763112_">
				<use xlink:href="#SVGID_00000091000165545482926840000011271367813464499359_"  style="overflow:visible;"/>
			</clipPath>
			<path style="clip-path:url(#SVGID_00000036941209748006600490000014569997224967763112_);" d="M200.9,320.3
				c0.3,0.6,0.2,1.4-0.2,2c-0.4,0.6-1.1,0.9-1.8,0.9c-0.8,0-1.6-0.4-2-1.1c-0.4-0.7-0.4-1.6,0-2.2
				C197.8,318.5,200.2,318.8,200.9,320.3z"/>
			<path style="clip-path:url(#SVGID_00000036941209748006600490000014569997224967763112_);fill:#FFFFFF;" d="M198,320.3
				c0.1,0.1,0,0.3,0,0.5s-0.2,0.2-0.4,0.2c-0.2,0-0.3-0.1-0.4-0.2c-0.1-0.2-0.1-0.4,0-0.5C197.3,319.9,197.9,320,198,320.3z"/>
		</g>
		<g>
			<path class="st21" d="M202.9,310.7c0.4-0.6,1.1-1.1,1.8-1.3c0.1,0,0.2,0,0.3,0.1c0.1-0.1,0.3-0.1,0.4,0.1
				c0.1,0.1,0.1,0.3-0.1,0.4c-0.7,0.4-1.3,0.8-2,1.2C203,311.2,202.7,311,202.9,310.7z"/>
			<path class="st21" d="M198,313c0.5-0.7,1.2-1.3,2-1.7c0.1-0.1,0.3,0,0.3,0.2c0,0,0,0,0,0c0,0.1,0.1,0.2,0,0.3
				c-0.3,0.4-0.5,0.9-0.9,1.2c-0.4,0.4-0.9,0.6-1.4,0.4C198,313.4,197.9,313.2,198,313z"/>
			<g>
				<path class="st21" d="M204.7,312.6C204.7,312.7,204.7,312.7,204.7,312.6L204.7,312.6z"/>
				<path class="st21" d="M203.1,313.5c0.4-0.6,0.9-1.1,1.5-1.5c0.1-0.1,0.3-0.1,0.4,0.1c0,0.1,0.1,0.1,0,0.2c0,0.1,0,0.2-0.1,0.2
					c0,0-0.1,0-0.1,0.1c0,0,0,0-0.1,0c0,0,0,0,0,0c0,0,0,0,0,0c0,0-0.1,0.1-0.1,0.1c0,0-0.1,0.1-0.1,0.1c-0.1,0.1-0.2,0.3-0.3,0.4
					c-0.1,0.1-0.2,0.3-0.4,0.4c-0.1,0.1-0.3,0.2-0.5,0.2C203.2,313.9,203,313.7,203.1,313.5z"/>
			</g>
			<path class="st21" d="M193.6,317.5c0.3-0.8,0.9-1.4,1.5-1.9c0.1-0.1,0.2-0.1,0.3,0c0.1-0.1,0.2-0.1,0.3-0.1c0,0,0.1,0,0.1,0.1
				c0.1,0.1,0.2,0.2,0.1,0.4c-0.5,0.8-1.2,1.5-2.1,1.9c-0.1,0-0.2,0-0.3-0.1C193.6,317.7,193.6,317.6,193.6,317.5z"/>
			<path class="st21" d="M224.1,323.8c0.1,0,0.2,0,0.2,0c0.1,0,0.2,0.1,0.2,0.2c0,0.1,0,0.2,0,0.4c0,0,0,0.1,0,0.1
				c0.1,0.6,0.2,1.1,0.2,1.7c0,0.1-0.1,0.2-0.2,0.3c-0.1,0-0.3,0-0.3-0.1c-0.2-0.3-0.3-0.7-0.3-1.1c0-0.2,0-0.4,0-0.6
				c0,0,0-0.1,0-0.1c0-0.1-0.1-0.3-0.1-0.4C223.9,324,224,323.9,224.1,323.8z"/>
			<path class="st21" d="M221.8,327.6c0-0.1,0.1-0.1,0.1-0.2c0-0.1,0-0.3,0.2-0.3c0.1,0,0.3,0,0.3,0.2c0.2,0.8,0.3,1.7,0.3,2.5
				c0,0.1-0.1,0.2-0.2,0.2c-0.1,0-0.2,0-0.3-0.1C221.6,329.3,221.7,328.4,221.8,327.6z"/>
		</g>
		<g>
			<path class="st8" d="M197.5,324c1.9,0.2,3.7,0.7,5.5,1.6c0.2,0.1,0,0.3-0.1,0.3c-1.7-0.8-3.5-1.4-5.4-1.5
				C197.2,324.2,197.3,323.9,197.5,324z"/>
			<path class="st8" d="M194.7,325.7c2.5,0,4.9,0.3,7.3,0.7c0.2,0,0.1,0.3,0,0.3c-2.4-0.5-4.8-0.7-7.2-0.7
				C194.5,326,194.5,325.7,194.7,325.7z"/>
			<path class="st8" d="M197.4,328.2c1.9-0.2,3.8-0.4,5.6-0.6c0.2,0,0.2,0.3,0,0.3c-1.9,0.1-3.8,0.3-5.6,0.6
				C197.2,328.5,197.2,328.2,197.4,328.2z"/>
			<path class="st8" d="M211.5,326.5c1.9-0.5,3.8-0.8,5.8-0.8c0.2,0,0.2,0.3,0,0.3c-1.9,0-3.8,0.2-5.7,0.8
				C211.5,326.8,211.4,326.5,211.5,326.5z"/>
			<path class="st8" d="M210.8,327.5c2.3-0.2,4.7-0.1,7,0.2c0.2,0,0.1,0.3,0,0.3c-2.3-0.3-4.6-0.4-6.9-0.2
				C210.6,327.8,210.6,327.5,210.8,327.5z"/>
			<path class="st8" d="M211.3,328.7c2.2,0.4,4.4,1,6.5,2c0.2,0.1,0,0.3-0.1,0.3c-2-1-4.2-1.6-6.4-2
				C211,328.9,211.1,328.6,211.3,328.7z"/>
			<path class="st8" d="M218,320l0.6-1.1c0-0.1,0.1-0.1,0.2-0.1c0.1,0,0.1,0.1,0.1,0.2c-0.2,0.4-0.4,0.8-0.6,1.1
				c0,0.1-0.1,0.1-0.2,0.1C218,320.2,218,320.1,218,320z"/>
			<path class="st8" d="M216.1,317.6c0-0.2,0.3-0.2,0.3,0c0,0.8,0,1.6-0.1,2.4c0,0.2-0.3,0.1-0.3,0
				C216.1,319.2,216.1,318.4,216.1,317.6z"/>
			<path class="st8" d="M199.9,315.6c0-0.2,0.3-0.1,0.3,0c-0.1,0.7-0.1,1.4-0.2,2.1c0,0.2-0.3,0.1-0.3,0
				C199.7,317,199.8,316.3,199.9,315.6z"/>
			<path class="st8" d="M198.8,316.7c0-0.1,0.1-0.1,0.2-0.1c0.1,0,0.1,0.1,0.1,0.2c0,0.3,0,0.6,0,1c0,0.1-0.1,0.1-0.1,0.2
				c-0.1,0-0.1-0.1-0.2-0.1C198.8,317.3,198.8,317,198.8,316.7z"/>
			<path class="st8" d="M220.6,309.4c0.4-0.2,0.7-0.3,1.1-0.5c0.1,0,0.2,0,0.2,0.1c0,0.1,0,0.2-0.1,0.2c-0.4,0.2-0.7,0.3-1.1,0.5
				c-0.1,0-0.2,0-0.2-0.1C220.4,309.5,220.5,309.4,220.6,309.4z"/>
			<path class="st8" d="M218.5,310.6c0.3-0.2,0.6-0.4,0.8-0.6c0.1,0,0.2,0,0.2,0c0,0.1,0,0.2,0,0.2c-0.3,0.2-0.6,0.4-0.8,0.6
				c-0.1,0-0.2,0-0.2,0C218.4,310.8,218.4,310.7,218.5,310.6z"/>
			<path class="st8" d="M197.8,307.8c0.4,0.4,0.9,0.8,1.3,1.2c0.1,0.1,0,0.2,0,0.2c-0.1,0-0.1,0-0.2,0c-0.4-0.4-0.8-0.8-1.2-1.2
				C197.5,307.9,197.7,307.7,197.8,307.8z"/>
			<path class="st8" d="M211.6,309.8c0.9,0.1,1.8,0.3,2.7,0.5c0.2,0.1,0.1,0.3-0.1,0.3c-0.8-0.3-1.7-0.4-2.6-0.5
				C211.4,310,211.4,309.7,211.6,309.8z"/>
			<path class="st8" d="M210.2,310.7c0.4,0,0.9,0,1.3,0c0.1,0,0.1,0.1,0.1,0.2c0,0.1-0.1,0.1-0.2,0.1c-0.4,0-0.9,0-1.3,0
				c-0.1,0-0.1-0.1-0.1-0.2C210.1,310.7,210.1,310.6,210.2,310.7z"/>
			<path class="st8" d="M191.2,327.1c0.1,0,0.2,0.1,0.2,0.1c0,0.5,0.1,1,0.1,1.5c0,0.1-0.1,0.1-0.1,0.2c-0.1,0-0.1-0.1-0.2-0.1
				c-0.1-0.5-0.1-1-0.1-1.5C191.1,327.2,191.1,327.1,191.2,327.1z"/>
			<path class="st8" d="M191.6,330.4c0,0.5,0.1,1,0.3,1.5c0.1,0.2-0.2,0.3-0.3,0.1c-0.2-0.5-0.3-1-0.4-1.6
				C191.3,330.2,191.6,330.2,191.6,330.4z"/>
			<path class="st8" d="M216.6,336c0.1-0.1,0.1-0.1,0.2,0c0.5,0.3,1,0.7,1.5,1c0.1,0,0.1,0.1,0,0.2c-0.1,0.1-0.1,0.1-0.2,0
				c-0.5-0.3-1-0.7-1.5-1C216.6,336.1,216.6,336,216.6,336z"/>
			<path class="st8" d="M213.2,334.4c0-0.1,0.1-0.1,0.2-0.1c0.5,0.2,0.9,0.5,1.4,0.7c0.1,0,0.1,0.1,0.1,0.2c0,0.1-0.1,0.1-0.2,0.1
				c-0.5-0.2-0.9-0.5-1.4-0.7C213.3,334.6,213.2,334.5,213.2,334.4z"/>
			<path class="st8" d="M214.6,338.6c0.6,0.2,1.2,0.5,1.8,0.7c0.2,0.1,0.1,0.3-0.1,0.3c-0.6-0.2-1.2-0.5-1.8-0.7
				C214.3,338.8,214.4,338.5,214.6,338.6z"/>
			<path class="st8" d="M212,342.2c0-0.1,0.1-0.1,0.2-0.1c0.3,0.1,0.5,0.3,0.8,0.4c0.1,0,0.1,0.1,0.1,0.2c0,0.1-0.1,0.1-0.2,0.1
				c-0.3-0.1-0.5-0.3-0.8-0.4C212,342.4,212,342.3,212,342.2z"/>
			<path class="st8" d="M205.2,335c0.3,0.1,0.6,0.2,0.9,0.4c0.1,0,0.1,0.1,0.1,0.2c0,0.1-0.1,0.1-0.2,0.1c-0.3-0.1-0.6-0.3-0.9-0.3
				c-0.1,0-0.1-0.1-0.1-0.2C205,335,205.1,334.9,205.2,335z"/>
			<path class="st8" d="M234.9,344.3c0.5,0,1,0,1.6,0c0.2,0,0.2,0.3,0,0.3c-0.5,0-1,0-1.6,0C234.7,344.6,234.7,344.3,234.9,344.3z"
				/>
			<path class="st8" d="M230.6,343.5c0-0.1,0.1-0.1,0.2-0.1c0.4,0.1,0.7,0.2,1.1,0.2c0.1,0,0.1,0,0.2,0.1c0,0.1-0.1,0.2-0.1,0.2
				c-0.4,0-0.8,0-1.2-0.2C230.6,343.7,230.6,343.6,230.6,343.5z"/>
			<path class="st8" d="M227.6,346.7c0.8,0,1.5,0.1,2.3,0.2c0.2,0,0.1,0.3,0,0.3c-0.7-0.1-1.5-0.2-2.2-0.2
				C227.5,347,227.4,346.7,227.6,346.7z"/>
			<path class="st8" d="M246.5,344.1c0.6-0.1,1.2-0.3,1.7-0.5c0.2-0.1,0.3,0.2,0.1,0.3c-0.6,0.3-1.2,0.4-1.8,0.5
				C246.4,344.4,246.3,344.1,246.5,344.1z"/>
			<path class="st8" d="M252.7,341.9c0.4-0.2,0.7-0.4,1.1-0.6c0.1,0,0.2,0,0.2,0c0,0.1,0,0.2,0,0.2c-0.4,0.2-0.7,0.4-1.1,0.6
				c-0.1,0-0.2,0-0.2-0.1C252.6,342,252.7,341.9,252.7,341.9z"/>
			<path class="st8" d="M244.7,317.9c0.9-0.2,1.7-0.5,2.6-0.9c0.2-0.1,0.3,0.2,0.1,0.3c-0.8,0.4-1.7,0.6-2.6,0.9
				C244.6,318.2,244.5,317.9,244.7,317.9z"/>
			<path class="st8" d="M241.9,319.2c0.3-0.3,0.6-0.5,0.9-0.8c0.1,0,0.2,0,0.2,0c0,0.1,0,0.1,0,0.2c-0.3,0.3-0.6,0.5-0.9,0.8
				c-0.1,0-0.2,0-0.2,0C241.8,319.3,241.8,319.2,241.9,319.2z"/>
			<path class="st8" d="M242,322.2c0.4-0.5,0.8-1,1.3-1.4c0.1,0,0.2,0,0.2,0c0,0.1,0,0.1,0,0.2c-0.5,0.4-0.9,0.9-1.3,1.4
				c0,0.1-0.1,0.1-0.2,0C241.9,322.3,241.9,322.3,242,322.2z"/>
			<path class="st8" d="M238.2,325.6c0.1-0.4,0.2-0.9,0.5-1.2c0-0.1,0.1-0.1,0.2-0.1c0.1,0,0.1,0.1,0.1,0.2
				c-0.2,0.4-0.3,0.8-0.4,1.2C238.4,325.8,238.2,325.7,238.2,325.6z"/>
			<path class="st8" d="M234.6,328.4c0.2-0.7,0.4-1.4,0.6-2.1c0-0.1,0.1-0.1,0.2-0.1c0.1,0,0.1,0.1,0.1,0.2
				c-0.2,0.7-0.4,1.4-0.6,2.1c0,0.1-0.1,0.1-0.2,0.1C234.6,328.6,234.5,328.5,234.6,328.4z"/>
			<path class="st8" d="M254.1,305.6c0.6,0.5,1.1,1.1,1.6,1.6c0,0.1,0,0.2,0,0.2c-0.1,0-0.1,0-0.2,0c-0.5-0.6-1-1.1-1.5-1.6
				C253.8,305.6,253.9,305.4,254.1,305.6z"/>
			<path class="st8" d="M251.5,302.9c0-0.1,0.1-0.1,0.2,0c0.3,0.4,0.7,0.7,1.1,1c0.1,0.1,0,0.3-0.2,0.2c-0.4-0.3-0.7-0.6-1.1-1
				C251.5,303,251.4,303,251.5,302.9z"/>
			<path class="st8" d="M245.5,297.8c0.7,0.3,1.3,0.7,1.9,1.2c0.1,0.1,0,0.3-0.2,0.2c-0.6-0.4-1.2-0.8-1.9-1.1
				C245.2,298,245.3,297.8,245.5,297.8z"/>
			<path class="st8" d="M242,296c0.5,0.1,1,0.3,1.4,0.5c0.2,0.1,0,0.3-0.1,0.3c-0.4-0.2-0.9-0.4-1.4-0.5
				C241.8,296.3,241.8,296,242,296z"/>
			<path class="st8" d="M243.4,298.4c0-0.1,0.1-0.1,0.2-0.1c0.4,0.1,0.7,0.3,1.1,0.4c0.1,0,0.1,0.1,0.1,0.2c0,0.1-0.1,0.1-0.2,0.1
				c-0.4-0.1-0.7-0.3-1.1-0.4C243.4,298.5,243.4,298.4,243.4,298.4z"/>
			<path class="st8" d="M233.5,293.9c0.8,0.1,1.6,0.2,2.5,0.3c0.2,0,0.1,0.3,0,0.3c-0.8-0.1-1.6-0.2-2.5-0.3
				C233.2,294.2,233.3,293.9,233.5,293.9z"/>
			<path class="st8" d="M212.7,298.3c0.3-0.1,0.7-0.3,1-0.4c0.1,0,0.2,0,0.2,0.1c0,0.1,0,0.2-0.1,0.2c-0.3,0.1-0.7,0.3-1,0.4
				c-0.1,0-0.2,0-0.2-0.1C212.6,298.4,212.7,298.4,212.7,298.3z"/>
			<path class="st8" d="M209,300.5c0.4-0.2,0.7-0.5,1-0.8c0.1-0.1,0.1-0.1,0.2,0c0.1,0,0.1,0.1,0,0.2c-0.3,0.3-0.7,0.6-1.1,0.9
				c-0.1,0-0.2,0-0.2,0C209,300.6,209,300.5,209,300.5z"/>
			<path class="st8" d="M212.8,302c0.4-0.3,0.8-0.6,1.2-1c0.1,0,0.2,0,0.2,0c0,0.1,0,0.1,0,0.2c-0.4,0.3-0.8,0.6-1.2,1
				c-0.1,0-0.2,0-0.2,0C212.7,302.2,212.7,302.1,212.8,302z"/>
			<path class="st8" d="M223.1,299.6c0.6-0.1,1.3-0.2,1.9-0.3c0.2,0,0.2,0.2,0,0.3c-0.6,0.1-1.3,0.2-1.9,0.3
				C222.9,299.9,222.9,299.6,223.1,299.6z"/>
			<path class="st8" d="M242.7,303c0.4,0.1,0.7,0.2,1.1,0.4c0.1,0,0.1,0.1,0.1,0.2c0,0.1-0.1,0.1-0.2,0.1c-0.3-0.2-0.6-0.3-1-0.3
				C242.5,303.3,242.5,303,242.7,303z"/>
			<path class="st8" d="M239.2,301.4c0.5,0,1,0,1.5,0.1c0.2,0,0.1,0.3,0,0.3c-0.5-0.1-1-0.1-1.5-0.1
				C239,301.7,239,301.4,239.2,301.4z"/>
			<path class="st8" d="M237.5,304l1.4-0.3c0.1,0,0.1,0.1,0.2,0.1c0,0.1-0.1,0.1-0.1,0.2l-1.4,0.3c-0.1,0-0.1-0.1-0.2-0.1
				C237.3,304.1,237.4,304,237.5,304z"/>
			<path class="st8" d="M256.9,314.9c0.2,0.5,0.4,1,0.6,1.5c0.1,0.2-0.2,0.3-0.3,0.1c-0.2-0.5-0.4-1-0.6-1.5
				C256.6,314.8,256.8,314.7,256.9,314.9z"/>
			<path class="st8" d="M260.4,320.3c0.1,0,0.1,0.1,0.2,0.1c0.1,0.4,0.1,0.9,0.2,1.3c0,0.2-0.3,0.2-0.3,0c0-0.4-0.1-0.9-0.2-1.3
				C260.3,320.4,260.4,320.3,260.4,320.3z"/>
			<path class="st8" d="M254.4,322.7c0.1,0,0.2,0,0.2,0.1l0.3,1.5c0,0.1,0,0.2-0.1,0.2c-0.1,0-0.2,0-0.2-0.1c-0.1-0.5-0.2-1-0.3-1.5
				C254.3,322.8,254.3,322.8,254.4,322.7z"/>
		</g>
	</g>
</g>
</svg>
